<svg height="512" viewBox="0 0 58 46" width="512" xmlns="http://www.w3.org/2000/svg"><g id="Page-1" fill="none" fill-rule="evenodd"><g id="045---Gift-Envelope"><g fill-rule="nonzero"><path id="Shape" d="m54 0h-50c-2.20731329.00440144-3.99559856 1.79268671-4 4v38c.00385309 2.207541 1.79245897 3.9961469 4 4h50c2.207541-.0038531 3.9961469-1.792459 4-4v-38c-.0044014-2.20731329-1.7926867-3.99559856-4-4z" fill="#f0c419"/><path id="Shape" d="m56.87 1.22-19.11 20.56-3.49 3.76-2.43 2.61-.88.94c-.4883061.5757504-1.205062.9076823-1.96.9076823s-1.4716939-.3319319-1.96-.9076823l-.87-.93-2.43-2.62-3.54-3.8-19.07-20.52c.75014073-.78121373 1.78694774-1.22194702 2.87-1.22h50c1.0830523-.00194702 2.1198593.43878627 2.87 1.22z" fill="#f3d55b"/><path id="Shape" d="m56.74 44.91c-.7419054.6978967-1.7214336 1.087563-2.74 1.09h-50c-1.01856636-.002437-1.99809462-.3921033-2.74-1.09l22.48-19.37 2.43 2.62.87.93c.4883061.5757504 1.205062.9076823 1.96.9076823s1.4716939-.3319319 1.96-.9076823l.88-.94 2.43-2.61z" fill="#f29c1f"/><path id="Shape" d="m11 5h-2c-.55228475 0-1-.44771525-1-1s.44771525-1 1-1h2c.5522847 0 1 .44771525 1 1s-.4477153 1-1 1z" fill="#f9eab0"/><path id="Shape" d="m49 5h-34c-.5522847 0-1-.44771525-1-1s.4477153-1 1-1h34c.5522847 0 1 .44771525 1 1s-.4477153 1-1 1z" fill="#f9eab0"/><path id="Shape" d="m46 43h-34c-.5522847 0-1-.4477153-1-1s.4477153-1 1-1h34c.5522847 0 1 .4477153 1 1s-.4477153 1-1 1z" fill="#e57e25"/></g><path id="Shape" d="m34.85 24.91h-.01" stroke="#000" stroke-linejoin="round" stroke-width="2"/><path id="Shape" d="m35.987 23.015c1.477 1.31 5.013 3.933 6.018 8.985l-4.54-1.81c-.254048-.1035675-.5440997.0169155-.65.27l-1.81 4.54s-1.42-6.4-5.46-9c0-.0055228-.0044772-.01-.01-.01h-1.06c-.0055228 0-.01.0044772-.01.01-4.04 2.6-5.46 9-5.46 9l-1.805-4.54c-.1059003-.2530845-.395952-.3735675-.65-.27l-4.545 1.81c1-5.039 4.544-7.668 5.988-9.008z" fill="#c03a2b" fill-rule="nonzero"/><path id="Shape" d="m29.525 19c.84-2.43 3.01-6.7 8.04-6.99.4006913-.030052.8012075.0604995 1.15.26 2.3369012 1.1478676 4.1648455 3.1219049 5.13 5.54.3056142.8424915.1864853 1.7806322-.32 2.52-1.029625 1.5336493-2.3982488 2.8098909-4 3.73-2.0021985 1.125645-4.417197 1.2441725-6.52.32z" fill="#e64c3c" fill-rule="nonzero"/><path id="Shape" d="m32.946 22.45c-.4774364.000769-.8888238-.3360718-.9822697-.8042747-.0934459-.4682028.1571173-.9371585.5982697-1.1197253 1.7405574-.6734183 3.1870814-1.9403665 4.084-3.577-.3360909-.1287421-.5770746-.4281578-.631-.784-.0794706-.5488175.2979776-1.0592202.846-1.144.6741024-.0927438 1.3556297.1078553 1.872.551.2347578.2898296.3199116.6730217.23 1.035-.947587 2.6516761-3.0051509 4.7578123-5.634 5.767-.1214324.0502542-.2515797.0760798-.383.076z" fill="#c03a2b" fill-rule="nonzero"/><path id="Shape" d="m28.485 19c-.84-2.43-3.01-6.7-8.04-6.99-.4006913-.030052-.8012075.0604995-1.15.26-2.3369012 1.1478676-4.1648455 3.1219049-5.13 5.54-.3046019.8426039-.1855331 1.7802704.32 2.52 1.1088169 1.6663674 2.6274235 3.0196834 4.41 3.93 1.9181254.9439808 4.1562886.9879382 6.11.12z" fill="#e64c3c" fill-rule="nonzero"/><path id="Shape" d="m24.682 22.374c-2.6184229-1.0038968-4.6710045-3.096625-5.624-5.734-.1031048-.3616136-.0289242-.7506903.2-1.049.5146215-.4588759 1.2054248-.667434 1.888-.57.4469276.0680613.7926072.4275065.8431735.8767499.0505662.4492434-.206559.8765394-.6271735 1.0422501.8953652 1.64144 2.3439055 2.9121019 4.088 3.586.5103111.2118012.7523012.7971889.5405 1.3075s-.7971889.7523012-1.3075.5405z" fill="#c03a2b" fill-rule="nonzero"/><path id="Shape" d="m33.005 22v2.5c-.0293468.8552563-.7446304 1.5258347-1.6 1.5h-4.8c-.8553696.0258347-1.5706532-.6447437-1.6-1.5-.0755954-1.0163013-.0555071-2.0374581.06-3.05.3296522-1.4602317 1.6434373-2.4853188 3.14-2.45h1.6c1.7107392-.0516694 3.1413065 1.2894874 3.2 3z" fill="#fb7b76" fill-rule="nonzero"/></g></g></svg>