<?xml version="1.0" encoding="iso-8859-1"?>
<!-- Generator: Adobe Illustrator 19.0.0, SVG Export Plug-In . SVG Version: 6.00 Build 0)  -->
<svg version="1.1" id="Capa_1" xmlns="http://www.w3.org/2000/svg" xmlns:xlink="http://www.w3.org/1999/xlink" x="0px" y="0px"
	 viewBox="0 0 512 512" style="enable-background:new 0 0 512 512;" xml:space="preserve">
<path style="fill:#FFA4BA;" d="M424.718,306.885H288.967c-26.247,0-47.525-21.277-47.525-47.525V101.67h230.801v157.69
	C472.243,285.608,450.965,306.885,424.718,306.885z"/>
<path style="fill:#FF809E;" d="M472.243,176.73v-75.06H241.442v142.599C304.903,203.038,421.043,183.6,472.243,176.73z"/>
<path style="fill:#F46262;" d="M421.831,11.361c-14.838-14.838-38.779-14.721-53.733,0c-6.425,6.325-14.876,8.314-22.512,0
	c-14.194-15.456-38.896-14.838-53.733,0s-14.838,38.896,0,53.733c13.218,13.218,37.49,20.744,64.989,20.744
	c27.499,0,51.771-7.525,64.989-20.744C436.669,50.257,436.669,26.2,421.831,11.361z"/>
<path style="fill:#D7F3FF;" d="M35.083,135.299c-35.361,40.712-42.609,98.889-19.129,147.434
	c22.755,47.044,53.147,89.582,89.613,126.048c36.465,36.465,79.004,66.859,126.048,89.613
	c48.544,23.48,106.723,16.232,147.434-19.129c3.311-2.876,22.177-21.512,22.177-21.512c15.27-15.27,15.27-40.028,0-55.298
	l-44.378-44.379c-15.27-15.27-40.028-15.27-55.298,0l-22.82,22.82c-10.298,10.298-26.359,12.018-38.648,4.203
	c-22.303-14.184-42.921-30.738-61.509-49.324c-18.587-18.587-35.141-39.206-49.324-61.509c-7.815-12.289-6.096-28.351,4.203-38.648
	l22.82-22.82c15.27-15.27,15.27-40.028,0-55.298l-44.378-44.379c-15.27-15.27-40.028-15.27-55.298,0
	C56.595,113.123,37.959,131.988,35.083,135.299z"/>
<path style="fill:#FFBDCD;" d="M468.943,150.278H241.442c-22.39,0-40.71-18.32-40.71-40.71l0,0c0-22.39,18.32-40.71,40.71-40.71
	h227.501c22.39,0,40.71,18.32,40.71,40.71l0,0C509.652,131.958,491.333,150.278,468.943,150.278z"/>
<rect x="318.975" y="68.858" style="fill:#FF737D;" width="77.428" height="237.972"/>
<rect x="318.975" y="150.273" style="fill:#F46262;" width="77.428" height="156.557"/>
<path style="fill:#D65B5B;" d="M318.979,209.682c25.694-8.285,52.56-14.886,77.429-20.052v-39.352h-77.429V209.682z"/>
<g>
	<path style="fill:#92D8FF;" d="M156.271,212.799c15.27-15.27,15.27-40.028,0-55.298l-44.379-44.379
		c-15.27-15.27-40.028-15.27-55.298,0c0,0-8.902,9.012-15.351,15.672l99.515,99.515L156.271,212.799z"/>
	<path style="fill:#92D8FF;" d="M401.226,402.456l-44.378-44.379c-15.27-15.27-40.028-15.27-55.298,0l-15.511,15.511l99.515,99.516
		c6.66-6.448,15.672-15.351,15.672-15.351C416.496,442.484,416.496,417.725,401.226,402.456z"/>
</g>
<path style="fill:#BDEBFF;" d="M153.325,373.796c87.908,80.354,125.404,7.1,125.404,7.1c-10.298,10.298-26.359,12.018-38.648,4.203
	c-22.303-14.184-42.921-30.738-61.509-49.324s-35.141-39.206-49.324-61.509c-7.815-12.289-6.096-28.351,4.203-38.648
	C133.452,235.618,65.417,293.442,153.325,373.796z"/>
<g>
</g>
<g>
</g>
<g>
</g>
<g>
</g>
<g>
</g>
<g>
</g>
<g>
</g>
<g>
</g>
<g>
</g>
<g>
</g>
<g>
</g>
<g>
</g>
<g>
</g>
<g>
</g>
<g>
</g>
</svg>
