<svg height="512" viewBox="0 0 256 256" width="512" xmlns="http://www.w3.org/2000/svg"><circle cx="43.654" cy="93.263" fill="#f87023" r="12.5"/><circle cx="131.948" cy="93.263" fill="#f8af23" r="12.5"/><path d="m155.488 226.893h-133.188v-18.056a53.944 53.944 0 0 1 53.944-53.944h23.113a53.944 53.944 0 0 1 53.943 53.944z" fill="#63bce7"/><path d="m94.745 154.893h-18.5a53.944 53.944 0 0 0 -53.945 53.944v18.056h18.5v-18.056a53.944 53.944 0 0 1 53.945-53.944z" fill="#6377e7"/><rect fill="#f8af23" height="53.419" rx="13.5" width="27" x="74.301" y="118.89"/><path d="m74.3 132.39v26.42a13.554 13.554 0 0 0 11.686 13.378v-53.175a13.554 13.554 0 0 0 -11.686 13.377z" fill="#f87023"/><rect fill="#f8af23" height="110.075" rx="44.147" width="88.294" x="43.654" y="35.91"/><path d="m62.154 101.838v-21.781a44.314 44.314 0 0 1 34.897-43.157 43.876 43.876 0 0 0 -9.25-.99 44.277 44.277 0 0 0 -44.147 44.147v21.781a44.277 44.277 0 0 0 44.146 44.147 43.876 43.876 0 0 0 9.25-.99 44.314 44.314 0 0 1 -34.896-43.157z" fill="#f87023"/><path d="m74.301 154.927 13.5 17.591-14.625 7.875-5.918-24.755 7.043-7.995z" fill="#f46275"/><path d="m101.301 154.927-13.5 17.591 14.625 7.875 5.918-24.755-7.043-7.995z" fill="#f46275"/><path d="m77.341 101.164a2.779 2.779 0 0 1 -2.779 2.78 2.779 2.779 0 0 1 -2.777-2.78v-3.9a2.779 2.779 0 0 1 2.777-2.779 2.78 2.78 0 0 1 2.779 2.779z" fill="#3f3679"/><path d="m124.6 32.125a22.328 22.328 0 0 0 -17.4 8.312 43.732 43.732 0 0 0 -19.4-4.527 44.277 44.277 0 0 0 -44.146 44.147v9.78h7.272v-5.9s14.722-3.714 14.861-19.964c0 0 18.732 16.629 52.487 11.988a22.375 22.375 0 1 0 6.326-43.836z" fill="#9e9e9e"/><path d="m97.027 36.906a43.768 43.768 0 0 0 -9.226-1 44.277 44.277 0 0 0 -44.147 44.151v9.78h7.272v-5.9a21.634 21.634 0 0 0 11.45-8.284 44.36 44.36 0 0 1 34.651-38.747z" fill="#707070"/><path d="m115.335 137.89h28v9.708h-28z" fill="#f8af23" transform="matrix(.941 -.338 .338 .941 -40.601 52.051)"/><path d="m131.1 144.857h28a0 0 0 0 1 0 0v69.667a14 14 0 0 1 -14 14 14 14 0 0 1 -14-14v-69.667a0 0 0 0 1 0 0z" fill="#63bce7" transform="matrix(.941 -.338 .338 .941 -54.513 59.954)"/><path d="m118.367 147.071h28v8.252h-28z" fill="#f46275" transform="matrix(.941 -.338 .338 .941 -43.277 53.571)"/><circle cx="103.468" cy="97.163" fill="#9e9e9e" r="16.815" transform="matrix(.851 -.525 .525 .851 -35.601 68.771)"/><rect fill="#f46275" height="28.812" rx="5.253" transform="matrix(.851 -.525 .525 .851 -49.42 83.848)" width="10.506" x="117.89" y="114.663"/><path d="m130.267 116.341h6.016a2.768 2.768 0 0 1 2.768 2.768v19.214a2.768 2.768 0 0 1 -2.768 2.768h-6.016a5.591 5.591 0 0 1 -5.591-5.591v-13.568a5.591 5.591 0 0 1 5.591-5.591z" fill="#f8af23" transform="matrix(.589 -.808 .808 .589 -49.816 159.514)"/><path d="m117.8 152.041-5.719-8.887a5 5 0 0 1 -.73-3.509l1.236-7.591a5 5 0 0 1 2.464-3.543l8.571-4.873a3.571 3.571 0 0 1 5.126 1.9 3.571 3.571 0 0 1 -1.512 4.26l-8.634 5.226a24.845 24.845 0 0 1 10.26 13.052z" fill="#f8af23"/><path d="m109.815 101.164a2.781 2.781 0 0 1 -2.781 2.78 2.779 2.779 0 0 1 -2.777-2.78v-3.9a2.779 2.779 0 0 1 2.777-2.779 2.781 2.781 0 0 1 2.781 2.779z" fill="#3f3679"/><path d="m169.366 97.163h64.333v81.838h-64.333z" fill="#f46275"/><path d="m215.129 97.163h18.57v81.838h-18.57z" fill="#f48875"/><path d="m178.713 151.984h10.223v27.018h-10.223z" fill="#9e9e9e"/><path d="m196.421 143.471h10.223v35.531h-10.223z" fill="#f8af23"/><path d="m214.129 138.082h10.223v40.919h-10.223z" fill="#63bce7"/><path d="m201.532 107.087v13.061h-13.06a13.061 13.061 0 1 0 13.061-13.061z" fill="#f8af23"/><path d="m201.532 107.087a13.061 13.061 0 0 0 -13.061 13.061h13.061z" fill="#63bce7"/><path d="m218.477 49.07a16.945 16.945 0 1 0 -28.371 12.511v7.756a11.427 11.427 0 0 0 11.427 11.427 11.427 11.427 0 0 0 11.427-11.427v-7.756a16.9 16.9 0 0 0 5.517-12.511z" fill="#f8af23"/><path d="m190.106 69.337a11.427 11.427 0 0 0 11.427 11.427 11.427 11.427 0 0 0 11.427-11.427v-1.515h-22.854z" fill="#9e9e9e"/><circle cx="201.532" cy="49.6" fill="#f8af23" r="6.844"/><g fill="#3f3679"><path d="m25.89 237.147h-18.5a1.5 1.5 0 1 0 0 3h18.5a1.5 1.5 0 0 0 0-3z"/><path d="m248.61 237.147h-18.5a1.5 1.5 0 0 0 0 3h18.5a1.5 1.5 0 0 0 0-3z"/><path d="m215.337 237.147h-174.674a1.5 1.5 0 1 0 0 3h174.674a1.5 1.5 0 0 0 0-3z"/><path d="m7.39 228.393h241.22a1.5 1.5 0 0 0 0-3h-84.951a15.507 15.507 0 0 0 5.427-17.737l-23.522-65.576-2.069-5.766 2.185-3a4.269 4.269 0 0 0 -.937-5.963l-13.973-10.178a45.044 45.044 0 0 0 2.351-9.969 14.024 14.024 0 0 0 11.74-8.541h8.518l14.486 15.545v64.792a1.5 1.5 0 0 0 1.5 1.5h64.335a1.5 1.5 0 0 0 1.5-1.5v-81.837a1.5 1.5 0 0 0 -1.5-1.5h-64.334a1.5 1.5 0 0 0 -1.5 1.5v12.645l-12.737-13.667a1.5 1.5 0 0 0 -1.1-.478h-8.305a13.911 13.911 0 0 0 -12.3-16.312q-.02-1.318-.117-2.628a23.909 23.909 0 0 0 15.173-22.223c0-.549-.025-1.093-.062-1.633h25.5l14.683 15.756v.712a12.927 12.927 0 1 0 25.854 0v-7.11a18.444 18.444 0 1 0 -25.854 0v2l-12.929-13.88a1.5 1.5 0 0 0 -1.1-.478h-26.55a23.871 23.871 0 0 0 -41.214-11.281 44.931 44.931 0 0 0 -19.008-4.176 45.692 45.692 0 0 0 -45.628 44.942 13.989 13.989 0 0 0 .308 27.848 45.756 45.756 0 0 0 30.32 37.74v2.136l-6.322 7.177a55.316 55.316 0 0 0 -45.678 54.584v16.556h-13.41a1.5 1.5 0 1 0 0 3zm172.823-50.893v-24.016h7.223v24.016zm17.708 0v-32.53h7.223v32.53zm17.708 0v-37.917h7.223v37.917zm-44.763-78.837h61.334v78.837h-6.348v-39.417a1.5 1.5 0 0 0 -1.5-1.5h-10.224a1.5 1.5 0 0 0 -1.5 1.5v39.417h-4.484v-34.03a1.5 1.5 0 0 0 -1.5-1.5h-10.223a1.5 1.5 0 0 0 -1.5 1.5v34.03h-4.485v-25.516a1.5 1.5 0 0 0 -1.5-1.5h-10.223a1.5 1.5 0 0 0 -1.5 1.5v25.516h-6.347zm40.593-29.327a9.927 9.927 0 1 1 -19.854 0v-.014h19.854zm-9.927-14.392a5.344 5.344 0 1 1 5.344-5.344 5.35 5.35 0 0 1 -5.344 5.344zm-15.444-5.874a15.445 15.445 0 1 1 25.859 11.4 1.5 1.5 0 0 0 -.488 1.107v4.742h-8.427v-8.519a8.344 8.344 0 1 0 -3 0v8.52h-8.427v-4.739a1.5 1.5 0 0 0 -.488-1.107 15.484 15.484 0 0 1 -5.029-11.404zm-20.288 169.155a12.5 12.5 0 0 1 -23.07-1.115l-20.23-56.4 23.532-8.441 20.229 56.4a12.418 12.418 0 0 1 -.461 9.556zm-56.669-63.962-6.33-7.186v-2.155a45.443 45.443 0 0 0 7.109-3.213 6.49 6.49 0 0 0 .906 2.257l5.626 8.742 1.379 3.844a55.2 55.2 0 0 0 -8.69-2.29zm-6.64 1.578a1.5 1.5 0 0 0 .31-.913v-3.312l3.9 4.431-5.284 22.1-11.356-6.115zm9.016-45.641a15.373 15.373 0 1 1 7.255-13.252 3.02 3.02 0 0 0 0 .458 15.305 15.305 0 0 1 -7.255 12.792zm10.188-11.536h8.754v3.175a42.191 42.191 0 0 1 -2.269 13.661 4.18 4.18 0 0 0 -4.784 1.309 6.754 6.754 0 0 0 -7.234-1.92l-1.844-2.99a18.289 18.289 0 0 0 7.376-13.236zm-4.961 27.162-1.589-2.577a3.757 3.757 0 0 1 1.223-5.164 3.768 3.768 0 0 1 5.163 1.225l.009.012-1.834 2.518a7.094 7.094 0 0 0 -1.248 3.005zm-.946 3.989 8.571-4.874a2.07 2.07 0 0 1 2.1 3.571l-8.634 5.226a1.5 1.5 0 0 0 .063 2.6 23.372 23.372 0 0 1 9.015 10.842l-8.485 3.044-5.074-7.884a3.5 3.5 0 0 1 -.512-2.457l1.236-7.591a3.484 3.484 0 0 1 1.719-2.478zm25.526 9.3.92 2.565-12.511 4.488a28.631 28.631 0 0 0 -1.244-2.6 6.512 6.512 0 0 0 5.127-3.073 7 7 0 0 0 2.787.6 7.181 7.181 0 0 0 1.116-.087 7.035 7.035 0 0 0 3.804-1.892zm-21.6 13.83 9.648-3.461 13.883-4.98 1.773 4.943-23.531 8.441zm10.2-12.891a3.779 3.779 0 0 1 -3.536.2 26.328 26.328 0 0 0 -5.009-5.163l2.453-1.485 7.255 5.285a3.722 3.722 0 0 1 -1.16 1.164zm13.566-9.451a1.26 1.26 0 0 1 -.228.943l-3.542 4.862a4.091 4.091 0 0 1 -5.715.9l-7.39-5.383 1.4-.847a5.066 5.066 0 0 0 -4.843-8.889l2.512-3.448a1.268 1.268 0 0 1 1.771-.278l15.53 11.313a1.261 1.261 0 0 1 .509.824zm-10.1-26.446c.039-.771.063-1.544.063-2.32v-3.174h8.073a11.011 11.011 0 0 1 -8.132 5.495zm9.563-10.9a10.973 10.973 0 0 1 -.272 2.4h-9.228v-13.3a10.924 10.924 0 0 1 9.505 10.906zm-55.143-55.847a41.994 41.994 0 0 1 18.741 4.373 1.5 1.5 0 0 0 1.83-.4 20.872 20.872 0 1 1 10.329 33.14 1.517 1.517 0 0 0 -.628-.047c-32.614 4.481-51.108-11.464-51.29-11.624a1.5 1.5 0 0 0 -2.5 1.109c-.122 14.855-13.171 18.381-13.723 18.522a1.5 1.5 0 0 0 -1.133 1.455v4.4h-4.272v-8.28a42.7 42.7 0 0 1 42.646-42.648zm-55.146 55.853a11.069 11.069 0 0 1 9.5-10.891v19.465q0 1.167.059 2.32a11.009 11.009 0 0 1 -9.559-10.894zm12.5 8.575v-10.5h5.771a1.5 1.5 0 0 0 1.5-1.5v-4.815c3.377-1.234 13.221-5.857 14.68-18.137 6.025 4.263 23.556 14.29 51.057 10.6a23.859 23.859 0 0 0 12.211.177c.044.8.074 1.594.074 2.39v15.61h-8.747a18.307 18.307 0 1 0 -33.824 11.114 18.365 18.365 0 0 0 1.547 2.138v6.677a1.5 1.5 0 0 0 1.5 1.5c.021 0 .04-.005.06-.006a3.139 3.139 0 0 1 -.06 6.277 1.5 1.5 0 0 0 0 3 6.137 6.137 0 0 0 1.5-12.09v-2.508a18.418 18.418 0 0 0 11.073 3.708 18.193 18.193 0 0 0 8.272-1.991l1.839 2.982a6.76 6.76 0 0 0 -1.018 8.357l1.539 2.5a6.465 6.465 0 0 0 -3.028 4.493l-1.034 6.351a42.586 42.586 0 0 1 -64.913-36.325zm42.646 45.647a45.356 45.356 0 0 0 12-1.628v8.561l-12 15.636-12-15.636v-8.545a45.521 45.521 0 0 0 12 1.612zm-15 4.13v3.312a1.5 1.5 0 0 0 .31.913l12.427 16.193-11.356 6.115-5.283-22.1zm-49 57.222a52.314 52.314 0 0 1 42.332-51.457l5.584 23.362a1.5 1.5 0 0 0 2.17.972l13.914-7.492 13.914 7.492a1.5 1.5 0 0 0 2.17-.972l5.583-23.355a52.222 52.222 0 0 1 9.682 2.872l20.756 57.864a15.387 15.387 0 0 0 5.43 7.271h-13.7v-19.834a1.5 1.5 0 0 0 -3 0v19.833h-81.667v-19.833a1.5 1.5 0 0 0 -3 0v19.833h-20.168z"/><path d="m94.229 130.555a1.5 1.5 0 0 0 -2.121 0 6.427 6.427 0 0 1 -10.974-4.544 1.5 1.5 0 0 0 -3 0 9.431 9.431 0 0 0 16.095 6.666 1.5 1.5 0 0 0 0-2.122z"/><path d="m79.8 88.955a1.5 1.5 0 0 0 -.325-2.1 10.922 10.922 0 0 0 -8.461-2.033 9.822 9.822 0 0 0 -6.483 4.178 1.5 1.5 0 0 0 2.512 1.641 6.814 6.814 0 0 1 4.514-2.87 7.955 7.955 0 0 1 6.152 1.5 1.5 1.5 0 0 0 2.091-.316z"/><path d="m110.4 86.858a10.919 10.919 0 0 0 -8.461-2.033 9.822 9.822 0 0 0 -6.488 4.175 1.5 1.5 0 0 0 2.512 1.641 6.814 6.814 0 0 1 4.514-2.87 7.954 7.954 0 0 1 6.152 1.5 1.5 1.5 0 1 0 1.771-2.422z"/><path d="m201.532 134.708a14.561 14.561 0 1 0 -14.561-14.561 14.577 14.577 0 0 0 14.561 14.561zm-1.5-26.024v9.964h-9.964a11.585 11.585 0 0 1 9.964-9.964zm1.5 12.964a1.5 1.5 0 0 0 1.5-1.5v-11.464a11.561 11.561 0 1 1 -12.964 12.964z"/><path d="m201.532 27.353a1.5 1.5 0 0 0 1.5-1.5v-8.5a1.5 1.5 0 0 0 -3 0v8.5a1.5 1.5 0 0 0 1.5 1.5z"/><path d="m215.472 30.358a1.5 1.5 0 0 0 1.061-.439l6.011-6.011a1.5 1.5 0 1 0 -2.121-2.121l-6.012 6.013a1.5 1.5 0 0 0 1.061 2.561z"/><path d="m186.532 29.919a1.5 1.5 0 0 0 2.121-2.121l-6.01-6.011a1.5 1.5 0 1 0 -2.121 2.121z"/></g></svg>