<svg height="512pt" viewBox="0 -2 512 512" width="512pt" xmlns="http://www.w3.org/2000/svg"><path d="m464.042969 138.125-103.730469 78.539062c-6.847656 5.195313-15.742188-3.070312-11.078125-10.289062l44.191406-68.25zm0 0" fill="#d8cecc"/><path d="m283.738281 179.304688c0 14.453124-11.71875 26.171874-26.171875 26.171874-14.457031 0-26.171875-11.71875-26.171875-26.171874 0-14.453126 11.714844-26.171876 26.171875-26.171876 14.453125 0 26.171875 11.71875 26.171875 26.171876zm0 0" fill="#f2d1a5"/><path d="m238.996094 53.78125h-93.914063c-12.40625 0-22.464843 10.058594-22.464843 22.464844v121.703125c0 37.578125 52.222656 68.042969 69.421874 68.046875 17.199219-.003906 69.421876-30.46875 69.421876-68.046875v-121.703125c0-12.40625-10.058594-22.464844-22.464844-22.464844zm0 0" fill="#f2d1a5"/><path d="m210.140625 260.644531c-7.3125 3.445313-13.796875 5.347657-18.101563 5.347657-17.203124 0-69.417968-30.464844-69.417968-68.042969v-121.699219c0-12.410156 10.054687-22.464844 22.457031-22.464844h36.203125c-12.402344 0-22.457031 10.054688-22.457031 22.464844v121.699219c0 28.1875 29.367187 52.371093 51.316406 62.695312zm0 0" fill="#f2bb88"/><path d="m242.519531 26.554688h-63.324219c-17.878906 0-32.90625 11.429687-37.277343 26.933593-2.332031-.679687-4.8125-1.042969-7.382813-1.042969h-6.605468c-13.769532 0-24.933594 10.484376-24.933594 23.421876v27.804687c0 9.738281 8.402344 17.632813 18.765625 17.632813h12.773437c13.179688 0 23.964844-9.613282 24.863282-21.785157 20.542968 20.878907 56.238281 34.1875 98.441406 33.710938h11.515625c6.476562 0 11.726562-6.261719 11.726562-13.988281v-56.460938c0-20.007812-17.265625-36.226562-38.5625-36.226562zm0 0" fill="#d19a75"/><path d="m281.082031 101.253906v17.988282c0 7.726562-5.246093 13.992187-11.71875 13.992187h-11.523437c-42.207032.46875-77.902344-12.835937-98.445313-33.71875-.890625 12.175781-11.679687 21.785156-24.855469 21.785156h-12.777343c-10.363281 0-18.761719-7.894531-18.761719-17.628906v-27.804687c0-6.679688 2.976562-12.710938 7.757812-16.964844v13.613281c0 9.734375 8.398438 17.628906 18.761719 17.628906h12.777344c13.175781 0 23.964844-9.609375 24.855469-21.785156 20.542968 20.882813 56.238281 34.1875 98.445312 33.710937h11.523438c1.382812 0 2.71875-.289062 3.960937-.816406zm0 0" fill="#c9885b"/><path d="m152.6875 179.300781c0 14.453125-11.71875 26.171875-26.171875 26.171875-14.457031 0-26.171875-11.71875-26.171875-26.171875 0-14.457031 11.714844-26.171875 26.171875-26.171875 14.453125 0 26.171875 11.714844 26.171875 26.171875zm0 0" fill="#f2bb88"/><g fill="#c9885b"><path d="m167.304688 180.441406c0 4.542969-3.683594 8.226563-8.226563 8.226563-4.539063 0-8.222656-3.683594-8.222656-8.226563 0-4.539062 3.683593-8.222656 8.222656-8.222656 4.542969 0 8.226563 3.683594 8.226563 8.222656zm0 0"/><path d="m172.894531 152.640625c-2-.773437-19.894531-7.402344-32.890625-1.949219-3.949218 1.65625-5.8125 6.203125-4.152344 10.152344 1.65625 3.953125 6.203126 5.8125 10.152344 4.15625 5.484375-2.300781 15.964844.074219 21.289063 2.113281.921875.355469 1.867187.523438 2.796875.523438 3.109375 0 6.042968-1.882813 7.234375-4.957031 1.546875-3.996094-.4375-8.488282-4.429688-10.039063zm0 0"/><path d="m233.222656 180.441406c0 4.542969-3.679687 8.226563-8.222656 8.226563s-8.222656-3.683594-8.222656-8.226563c0-4.539062 3.679687-8.222656 8.222656-8.222656s8.222656 3.683594 8.222656 8.222656zm0 0"/><path d="m244.074219 150.691406c-13-5.453125-30.890625 1.175782-32.886719 1.953125-3.996094 1.546875-5.980469 6.039063-4.433594 10.035157 1.191406 3.074218 4.128906 4.957031 7.238282 4.957031.933593 0 1.878906-.167969 2.800781-.527344 4.460937-1.726563 15.535156-4.519531 21.28125-2.109375 3.957031 1.65625 8.5-.203125 10.15625-4.15625 1.65625-3.949219-.203125-8.496094-4.15625-10.152344zm0 0"/></g><path d="m487.25 159.609375h-132.589844c-9.226562 0-16.707031-7.480469-16.707031-16.707031v-126.195313c0-9.226562 7.480469-16.707031 16.707031-16.707031h132.589844c9.230469 0 16.707031 7.480469 16.707031 16.707031v126.195313c0 9.226562-7.480469 16.707031-16.707031 16.707031zm0 0" fill="#fff5f4"/><path d="m325.996094 365.636719h-267.910156v-132.949219c0-16.992188 13.777343-30.773438 30.773437-30.773438h206.363281c16.992188 0 30.773438 13.78125 30.773438 30.773438zm0 0" fill="#c0dbff"/><path d="m218.246094 277.152344c0 14.472656-11.734375 26.203125-26.207032 26.203125-14.472656 0-26.203124-11.730469-26.203124-26.203125s11.730468-26.207032 26.203124-26.207032c14.472657 0 26.207032 11.734376 26.207032 26.207032zm0 0" fill="#fff5f4"/><path d="m125.058594 201.914062c-16.996094 0-30.773438 13.78125-30.773438 30.773438v132.953125h-36.203125v-132.953125c0-16.992188 13.777344-30.773438 30.773438-30.773438zm0 0" fill="#a0cafe"/><path d="m218.25 277.148438c0 11.292968-7.148438 20.925781-17.164062 24.597656-2.8125 1.042968-5.863282 1.613281-9.050782 1.613281-14.46875 0-26.199218-11.730469-26.199218-26.210937 0-14.472657 11.730468-26.203126 26.199218-26.203126 3.1875 0 6.238282.570313 9.050782 1.613282 10.015624 3.671875 17.164062 13.304687 17.164062 24.589844zm0 0" fill="#ebe0da"/><path d="m218.25 277.148438c0 11.292968-7.148438 20.925781-17.164062 24.597656-10.011719-3.671875-17.148438-13.304688-17.148438-24.597656 0-11.285157 7.136719-20.917969 17.148438-24.589844 10.015624 3.671875 17.164062 13.304687 17.164062 24.589844zm0 0" fill="#fff5f4"/><path d="m490.222656 508.617188h-468.066406c-2.140625 0-3.878906-1.738282-3.878906-3.878907v-116.628906h475.824218v116.628906c0 2.140625-1.734374 3.878907-3.878906 3.878907zm0 0" fill="#d8cecc"/><path d="m58.359375 508.617188h-36.203125c-2.140625 0-3.878906-1.738282-3.878906-3.878907v-116.628906h36.203125v116.628906c0 2.140625 1.738281 3.878907 3.878906 3.878907zm0 0" fill="#c8bebc"/><path d="m506.117188 404.980469h-500.230469c-3.25 0-5.88281275-2.636719-5.88281275-5.882813v-40.824218c0-3.25 2.63281275-5.882813 5.88281275-5.882813h500.230469c3.25 0 5.882812 2.632813 5.882812 5.882813v40.824218c0 3.246094-2.632812 5.882813-5.882812 5.882813zm0 0" fill="#ebe0da"/><path d="m42.089844 404.980469h-36.203125c-3.25 0-5.886719-2.640625-5.886719-5.886719v-40.816406c0-3.25 2.636719-5.886719 5.886719-5.886719h36.203125c-3.25 0-5.886719 2.636719-5.886719 5.886719v40.816406c0 3.246094 2.636719 5.886719 5.886719 5.886719zm0 0" fill="#d8cecc"/><path d="m390.871094 159.609375h-36.207032c-9.226562 0-16.703124-7.480469-16.703124-16.707031v-126.195313c0-9.226562 7.476562-16.707031 16.703124-16.707031h36.207032c-9.226563 0-16.707032 7.480469-16.707032 16.707031v126.195313c0 9.226562 7.480469 16.707031 16.707032 16.707031zm0 0" fill="#d8cecc"/><path d="m449.886719 29.921875c-13.265625.171875-24.296875 9.308594-27.78125 21.523437-.148438.519532-.609375.882813-1.148438.882813-.539062 0-1-.363281-1.148437-.882813-3.566406-12.5-15.035156-21.796874-28.765625-21.519531-21.003907.417969-32.074219 25.191407-18.8125 41.480469l46.652343 57.296875c1.070313 1.316406 3.082032 1.316406 4.152344 0l46.652344-57.296875c13.402344-16.460938 1.980469-41.769531-19.800781-41.484375zm0 0" fill="#ff72c3"/></svg>