<svg id="Capa_1" enable-background="new 0 0 512 512" height="512" viewBox="0 0 512 512" width="512" xmlns="http://www.w3.org/2000/svg"><g fill="#d77f4a"><path d="m104.019 119.012h28.385v38.461h-28.385z"/><path d="m285.169 119.012h28.385v38.461h-28.385z"/><path d="m378.997 429.915h-343.726c-10.68 0-19.338-8.658-19.338-19.338v-247.144h382.403v247.144c-.001 10.68-8.659 19.338-19.339 19.338z"/></g><path d="m398.332 163.436v247.142c0 10.683-8.654 19.345-19.337 19.345h-19.321c10.683 0 19.337-8.662 19.337-19.345v-247.142z" fill="#c86d36"/><path d="m388.275 300.312h-362.283c-10.204 0-18.476-8.272-18.476-18.476v-105.952c0-10.204 8.272-18.476 18.476-18.476h362.283c10.204 0 18.476 8.272 18.476 18.476v105.952c0 10.204-8.272 18.476-18.476 18.476z" fill="#ac5e2e"/><path d="m406.753 175.886v105.952c0 10.204-8.272 18.476-18.476 18.476h-362.287c-10.204 0-18.476-8.272-18.476-18.476v-11.303c2.544 6.424 8.815 10.973 16.141 10.973h351.685c5.273 0 9.548-4.275 9.548-9.548v-107.345c0-2.568-.556-5.015-1.562-7.205h4.951c10.2 0 18.476 8.268 18.476 18.476z" fill="#9e5528"/><path d="m230.88 325.748h-47.493c-3.606 0-6.529-2.923-6.529-6.529v-37.814c0-3.606 2.923-6.529 6.529-6.529h47.493c3.606 0 6.529 2.923 6.529 6.529v37.814c0 3.606-2.923 6.529-6.529 6.529z" fill="#fea613"/><path d="m237.411 281.404v37.813c0 3.607-2.922 6.529-6.529 6.529h-15.296c3.607 0 6.529-2.922 6.529-6.529v-37.813c0-3.607-2.922-6.529-6.529-6.529h15.296c3.607 0 6.529 2.922 6.529 6.529z" fill="#fe9901"/><path d="m321.609 119.012h-228.951c-5.157 0-9.338-4.181-9.338-9.338v-18.252c0-5.157 4.181-9.338 9.338-9.338h228.951c5.157 0 9.338 4.181 9.338 9.338v18.252c0 5.157-4.181 9.338-9.338 9.338z" fill="#ac5e2e"/><path d="m330.95 91.42v18.251c0 5.16-4.186 9.338-9.339 9.338h-18.621c5.16 0 9.338-4.178 9.338-9.338v-18.251c0-5.152-4.178-9.338-9.338-9.338h18.621c5.153 0 9.339 4.186 9.339 9.338z" fill="#9e5528"/><path d="m478.827 121.182-46.307 8.172c-7.742 1.366-13.221 8.859-12.175 16.651 1.134 8.447 8.928 14.146 17.321 12.665l7.986-1.409-36.457 57.486c-2.885 4.549-8.911 5.898-13.46 3.013l-62.993-32.885c-7.857-4.983-18.265-2.654-23.25 5.201l-38.912 59.988c-4.809 7.578-2.563 17.619 5.016 22.426 7.578 4.806 17.616 2.559 22.422-5.019l25.276-38.554c2.885-4.549 8.911-5.898 13.46-3.013l63.028 32.907c7.858 4.984 18.269 2.653 23.252-5.205l50.112-79.017 1.796 10.175c1.428 8.093 9.147 13.497 17.241 12.068 8.094-1.428 13.497-9.148 12.068-17.242l-8.184-46.34c-1.429-8.094-9.148-13.496-17.24-12.068z" fill="#8ac9fe"/><path d="m504.253 179.588-8.183-46.338c-1.429-8.091-9.154-13.497-17.245-12.068l-.742.128c1.42 5.644 3.18 11.215 3.83 17.036.661 5.893 4.331 16.479-2.3 20.307-4.06 2.344-8.732-.226-12.942 2.42-3.703 2.328-5.698 5.77-7.996 9.388-5.663 8.916-11.307 17.822-16.952 26.728-8.137 12.828-15.793 25.974-24.41 38.494-6.069 8.818-11.109 9.734-23.256 3.015l-63.033-32.905c-4.545-2.886-10.574-1.539-13.461 3.006l-25.272 40.748c-4.811 7.578-14.844 9.823-22.422 5.021-.367-.238-.724-.477-1.063-.742-2.19 6.872.412 14.615 6.79 18.665 2.703 1.714 5.709 2.529 8.687 2.529 5.379 0 10.638-2.676 13.735-7.551l25.272-38.558c2.887-4.545 8.916-5.892 13.461-3.006l63.033 32.905c7.853 4.985 18.262 2.648 23.247-5.205l50.113-79.022 1.796 10.18c1.429 8.091 9.145 13.497 17.245 12.068 7.221-1.274 12.297-7.56 12.297-14.643 0-.859-.073-1.73-.229-2.6z" fill="#60b7ff"/><path d="m511.653 178.281-8.184-46.341c-2.148-12.16-13.787-20.302-25.949-18.161l-46.306 8.172c-11.678 2.061-19.895 13.3-18.318 25.052.823 6.134 4.002 11.505 8.951 15.124 2.804 2.05 5.973 3.389 9.301 3.969l-16.88 26.616v-16.829c0-14.332-11.66-25.992-25.992-25.992h-67.206v-23.363h.539c9.293 0 16.853-7.561 16.853-16.854v-18.252c0-9.294-7.56-16.854-16.853-16.854h-228.951c-9.294 0-16.854 7.561-16.854 16.854v18.252c0 9.294 7.561 16.854 16.854 16.854h3.844v23.363h-70.51c-14.332 0-25.992 11.66-25.992 25.993v105.953c0 7.56 3.246 14.374 8.416 19.128v109.612c0 14.809 12.047 26.856 26.855 26.856h81.673c4.152 0 7.516-3.365 7.516-7.517s-3.365-7.516-7.516-7.516h-81.673c-6.518 0-11.822-5.304-11.822-11.823v-102.874c.837.082 1.685.126 2.544.126h143.349v11.39c0 7.744 6.301 14.045 14.045 14.045h47.493c7.745 0 14.045-6.301 14.045-14.045v-11.39h143.35c.858 0 1.706-.044 2.543-.126v102.874c0 6.519-5.303 11.823-11.823 11.823h-227.1c-4.152 0-7.517 3.365-7.517 7.516 0 4.152 3.365 7.517 7.517 7.517h227.101c14.808 0 26.856-12.047 26.856-26.856v-109.613c5.169-4.754 8.416-11.568 8.416-19.128v-13.523c6.033-1.388 11.545-5.055 15.115-10.684l15.148-23.887c2.223-3.506 1.183-8.15-2.323-10.373s-8.15-1.184-10.373 2.323l-15.148 23.887c-2.755 4.345-8.535 5.638-12.88 2.882-.178-.113-.36-.217-.547-.315l-62.785-32.78c-3.831-2.322-8.333-3.059-12.716-2.08-4.48 1.002-8.305 3.682-10.777 7.549l-25.25 38.513c-.021.032-.041.063-.062.096-1.249 1.969-3.19 3.334-5.466 3.844-2.272.51-4.613.104-6.583-1.147-1.969-1.249-3.334-3.191-3.844-5.467-.509-2.276-.101-4.615 1.108-6.521l38.953-60.052c2.757-4.342 8.532-5.636 12.879-2.88.178.113.36.218.547.315l62.753 32.76c8.008 4.848 18.492 2.413 23.527-5.526l36.456-57.484c1.594-2.514 1.554-5.734-.103-8.208s-4.624-3.739-7.552-3.219l-7.985 1.409c-2.027.356-4.026-.096-5.64-1.275-1.613-1.179-2.651-2.951-2.924-4.989-.511-3.804 2.251-7.581 6.031-8.249l46.306-8.172c3.999-.711 7.827 1.973 8.533 5.972l8.184 46.34c.341 1.938-.091 3.892-1.22 5.504-1.127 1.611-2.816 2.688-4.753 3.029-1.938.344-3.89-.091-5.502-1.219-1.611-1.128-2.688-2.817-3.029-4.755l-1.796-10.175c-.539-3.056-2.9-5.465-5.944-6.067-3.048-.607-6.144.728-7.806 3.348l-16.187 25.522c-2.223 3.506-1.183 8.15 2.323 10.374 3.504 2.222 8.148 1.183 10.373-2.323l6.853-10.806c1.617 2.822 3.849 5.275 6.592 7.195 4.902 3.431 10.848 4.75 16.736 3.708 5.892-1.04 11.027-4.311 14.458-9.213 3.429-4.899 4.745-10.843 3.705-16.736zm-418.995-66.785c-1.004 0-1.821-.817-1.821-1.822v-18.252c0-1.004.817-1.822 1.821-1.822h228.952c1.004 0 1.821.817 1.821 1.822v18.252c0 1.004-.816 1.822-1.821 1.822zm213.38 15.032v23.363h-13.353v-23.363zm-28.386 0v23.363h-137.731v-23.363zm-152.764 0v23.363h-13.352v-23.363zm105.004 191.703h-45.518v-35.838h45.518zm106.583-139.887c-11.309-6.952-26.195-3.539-33.29 7.641l-38.953 60.051c-3.402 5.361-4.512 11.724-3.126 17.92s5.102 11.481 10.463 14.881c3.853 2.444 8.225 3.703 12.68 3.703 1.741 0 3.497-.193 5.238-.582 6.175-1.382 11.443-5.079 14.844-10.411l25.248-38.51c.021-.032.041-.064.062-.096.66-1.04 2.047-1.349 3.087-.691.177.114.36.218.547.316l62.773 32.773c1.035.636 2.1 1.184 3.186 1.648v14.849c0 6.043-4.916 10.959-10.959 10.959h-143.35v-11.39c0-7.745-6.301-14.045-14.045-14.045h-47.493c-7.744 0-14.045 6.301-14.045 14.045v11.39h-143.35c-6.043 0-10.959-4.916-10.959-10.959v-105.952c0-6.043 4.916-10.959 10.959-10.959h362.283c6.043 0 10.959 4.916 10.959 10.959v35.225c-.007-.004-.014-.009-.021-.012z"/></svg>