<?xml version="1.0" encoding="iso-8859-1"?>
<!-- Generator: Adobe Illustrator 19.0.0, SVG Export Plug-In . SVG Version: 6.00 Build 0)  -->
<svg version="1.1" id="Capa_1" xmlns="http://www.w3.org/2000/svg" xmlns:xlink="http://www.w3.org/1999/xlink" x="0px" y="0px"
	 viewBox="0 0 468.293 468.293" style="enable-background:new 0 0 468.293 468.293;" xml:space="preserve">
<path style="fill:#FCD462;" d="M189.536,207.525c7.587,0,14.325,3.593,18.632,9.164c1.317,1.702,3.312,2.737,5.465,2.737h4.255
	v-54.897c0-5.273-4.275-9.548-9.548-9.548h-54.897v-4.255c0-2.152,1.034-4.148,2.737-5.464c5.571-4.308,9.163-11.046,9.163-18.632
	c0-14.564-13.209-26.041-28.3-23.107c-9.475,1.841-16.983,9.661-18.52,19.19c-1.475,9.147,2.328,17.5,8.832,22.538
	c1.708,1.322,2.752,3.319,2.752,5.479v4.252H75.212c-5.273,0-9.548,4.275-9.548,9.548v54.897h-4.255
	c-2.153,0-4.148-1.034-5.465-2.737c-4.308-5.57-11.045-9.163-18.632-9.163c-14.564,0-26.041,13.209-23.107,28.299
	c1.842,9.475,9.661,16.983,19.19,18.52c9.147,1.475,17.5-2.328,22.538-8.832c1.323-1.707,3.319-2.752,5.479-2.752h4.252v54.897
	c0,5.273,4.275,9.548,9.548,9.548h54.897v-4.252c0-2.16-1.044-4.157-2.752-5.479c-6.503-5.037-10.305-13.388-8.832-22.534
	c1.535-9.53,9.043-17.35,18.518-19.193c15.092-2.936,28.303,8.542,28.303,23.107c0,7.586-3.593,14.324-9.163,18.632
	c-1.703,1.317-2.737,3.312-2.737,5.465v4.255h54.897c5.273,0,9.548-4.274,9.548-9.548V242.76h-4.252
	c-2.16,0-4.156,1.044-5.479,2.752c-5.037,6.503-13.389,10.306-22.535,8.832c-9.529-1.535-17.349-9.043-19.192-18.517
	C163.493,220.735,174.971,207.525,189.536,207.525z"/>
<path style="fill:#E1E6E9;" d="M391.067,392.425c4.276,6.269,5.105,13.861,2.931,20.559c-0.664,2.047-0.394,4.279,0.819,6.057
	l2.398,3.516l45.35-30.929c4.356-2.971,5.478-8.911,2.506-13.268l-30.939-45.362l3.515-2.397c1.778-1.213,4.009-1.482,6.057-0.817
	c6.698,2.176,14.289,1.349,20.556-2.925c12.031-8.205,14.068-25.586,3.14-36.403c-6.861-6.792-17.552-8.591-26.29-4.492
	c-8.388,3.935-13.145,11.783-13.641,19.996c-0.13,2.156-1.191,4.144-2.975,5.361l-3.512,2.395l-30.939-45.362
	c-2.972-4.357-8.912-5.481-13.268-2.51l-45.35,30.929l-2.398-3.516c-1.213-1.779-1.484-4.01-0.819-6.058
	c2.174-6.698,1.345-14.289-2.931-20.558c-8.208-12.034-25.588-14.077-36.401-3.15c-6.789,6.86-8.585,17.551-4.484,26.291
	c3.937,8.389,11.786,13.149,19.998,13.647c2.156,0.131,4.144,1.192,5.361,2.977l2.396,3.514l-45.35,30.929
	c-4.356,2.971-5.478,8.911-2.506,13.268l30.939,45.362l3.513-2.396c1.784-1.217,2.845-3.205,2.975-5.361
	c0.496-8.212,5.252-16.058,13.637-19.994c8.737-4.101,19.429-2.303,26.292,4.488c10.931,10.817,8.894,28.199-3.137,36.405
	c-6.267,4.274-13.858,5.102-20.556,2.926c-2.048-0.665-4.279-0.396-6.058,0.817l-3.515,2.397l30.939,45.362
	c2.972,4.357,8.912,5.481,13.268,2.51l45.35-30.929l-2.396-3.514c-1.217-1.785-3.205-2.846-5.361-2.977
	c-8.211-0.498-16.059-5.257-19.996-13.645c-4.103-8.739-2.308-19.431,4.48-26.291C365.477,378.348,382.858,380.39,391.067,392.425z"
	/>
<path style="fill:#44C4A1;" d="M357.098,146.737c3.575,6.692,3.58,14.328,0.696,20.752c-0.881,1.964-0.853,4.211,0.161,6.11
	l2.005,3.753l48.421-25.866c4.651-2.484,6.407-8.269,3.923-12.92l-25.865-48.421l3.753-2.005c1.898-1.014,4.146-1.042,6.11-0.16
	c6.424,2.884,14.06,2.878,20.752-0.696c12.846-6.862,16.746-23.921,7.048-35.849c-6.088-7.489-16.523-10.428-25.652-7.294
	c-8.763,3.009-14.339,10.299-15.718,18.409c-0.362,2.129-1.631,3.991-3.536,5.009l-3.75,2.003L349.578,21.14
	c-2.484-4.651-8.269-6.407-12.92-3.923l-48.421,25.866l-2.005-3.753c-1.014-1.899-1.042-4.146-0.161-6.11
	c2.884-6.424,2.878-14.06-0.697-20.752c-6.862-12.846-23.92-16.746-35.849-7.048c-7.49,6.089-10.428,16.523-7.294,25.652
	c3.009,8.763,10.299,14.339,18.409,15.718c2.129,0.362,3.991,1.631,5.009,3.536l2.004,3.751l-48.421,25.866
	c-4.651,2.485-6.407,8.269-3.923,12.92l25.865,48.421l3.751-2.004c1.905-1.018,3.174-2.88,3.536-5.009
	c1.379-8.11,6.953-15.398,15.715-18.408c9.129-3.136,19.564-0.199,25.654,7.29c9.701,11.929,5.801,28.989-7.046,35.851
	c-6.692,3.574-14.328,3.58-20.752,0.697c-1.964-0.882-4.211-0.854-6.11,0.161l-3.753,2.005l25.865,48.421
	c2.484,4.651,8.268,6.408,12.92,3.923l48.421-25.866l-2.004-3.751c-1.018-1.905-2.879-3.174-5.009-3.536
	c-8.11-1.379-15.399-6.954-18.408-15.715c-3.136-9.128-0.199-19.564,7.29-25.653C333.176,129.99,350.236,133.89,357.098,146.737z"/>
<g>
</g>
<g>
</g>
<g>
</g>
<g>
</g>
<g>
</g>
<g>
</g>
<g>
</g>
<g>
</g>
<g>
</g>
<g>
</g>
<g>
</g>
<g>
</g>
<g>
</g>
<g>
</g>
<g>
</g>
</svg>
