<svg width="322" height="268" viewBox="0 0 322 268" fill="none" xmlns="http://www.w3.org/2000/svg">
<path fill-rule="evenodd" clip-rule="evenodd" d="M165 72C165 125.806 137.584 173.208 95.9598 201H72.1715C119.991 178.008 153 129.109 153 72.5C153 63.2398 152.117 54.1859 150.43 45.418C148.286 44.1446 145.628 43.7573 143.064 44.5705C138.902 45.8905 136.363 49.9372 136.79 54.1156L136.593 53.4963C137.52 59.6962 138 66.042 138 72.5C138 138.973 87.1309 193.565 22.1972 199.471C13.0328 196.525 5.6705 189.559 2.18658 180.649C4.46176 180.793 6.7561 180.865 9.06738 180.865C33.7219 180.865 56.4457 172.599 74.6184 158.686C75.5187 155.745 74.8979 152.419 72.69 149.967C70.7205 147.779 67.9269 146.775 65.2036 147.001C49.6076 158.84 30.158 165.865 9.06738 165.865C6.00815 165.865 2.98343 165.717 0 165.429V141.371C3.40112 141.882 6.88284 142.147 10.4265 142.147C48.8509 142.147 80 110.998 80 72.5735C80 36.5995 52.697 7.00238 17.6825 3.37383C21.9904 1.21501 26.8533 0 32 0H66.6695C72.4573 4.57744 77.6874 9.82916 82.241 15.6366C84.1867 15.4691 86.4145 14.5847 88.441 13.032C91.506 10.6836 93.2146 7.49295 92.9696 5.03088C91.5746 3.30935 90.1277 1.63159 88.6313 0H115.395C121.29 8.51294 126.175 17.7782 129.878 27.6227C132.094 29.1251 134.952 29.6343 137.703 28.7619C140.903 27.7467 143.145 25.1189 143.815 22.0587C140.903 14.3658 137.344 6.99076 133.204 0H147.298C158.603 21.5136 165 46.0098 165 72ZM90.4513 28.0292C97.8108 41.3394 102 56.6468 102 72.9326C102 93.9158 95.0458 113.275 83.3163 128.83C81.9204 131.993 82.4082 135.817 84.8715 138.553C86.8547 140.756 89.6734 141.758 92.4146 141.514C107.775 122.867 117 98.9773 117 72.9326C117 53.0375 111.617 34.3995 102.228 18.3958C100.065 18.2772 97.3802 19.1787 94.9779 21.0193C92.3104 23.0632 90.6703 25.745 90.4513 28.0292ZM290 0C307.673 0 322 14.3269 322 32V169C322 186.673 307.673 201 290 201H120.725C157.015 169.823 180 123.596 180 72C180 46.2638 174.281 21.8633 164.045 0H290ZM0 126.152C3.37494 126.805 6.86075 127.147 10.4265 127.147C40.5666 127.147 65 102.714 65 72.5735C65 42.4334 40.5666 18 10.4265 18C7.89938 18 5.41245 18.1718 2.97665 18.5042C1.06656 22.605 0 27.178 0 32V42.9149C3.36224 41.6763 6.99646 41 10.7886 41C28.0262 41 42 54.9738 42 72.2114C42 89.4489 28.0262 103.423 10.7886 103.423C6.99646 103.423 3.36224 102.746 0 101.508V126.152ZM10.7886 88.4227C6.64575 88.4227 2.86581 86.8687 0 84.3118V60.111C2.86581 57.554 6.64575 56 10.7886 56C19.7419 56 27 63.2581 27 72.2114C27 81.1647 19.7419 88.4227 10.7886 88.4227ZM191.066 185.704C193.898 186.904 197.066 187.504 200.57 187.504C204.266 187.504 207.458 186.832 210.146 185.488C212.834 184.096 214.874 182.248 216.266 179.944C217.658 177.64 218.354 175.144 218.354 172.456C218.354 169.336 217.61 166.816 216.122 164.896C214.634 162.976 212.858 161.536 210.794 160.576C208.73 159.616 206.066 158.656 202.802 157.696C200.402 156.976 198.53 156.352 197.186 155.824C195.89 155.248 194.786 154.528 193.874 153.664C193.01 152.752 192.578 151.624 192.578 150.28C192.578 148.36 193.154 146.896 194.306 145.888C195.506 144.88 197.09 144.376 199.058 144.376C201.314 144.376 203.114 144.952 204.458 146.104C205.85 147.208 206.594 148.624 206.69 150.352H217.778C217.442 145.84 215.642 142.336 212.378 139.84C209.162 137.296 204.962 136.024 199.778 136.024C196.322 136.024 193.25 136.624 190.562 137.824C187.874 138.976 185.786 140.656 184.298 142.864C182.81 145.072 182.066 147.664 182.066 150.64C182.066 153.808 182.786 156.352 184.226 158.272C185.714 160.144 187.466 161.56 189.482 162.52C191.546 163.432 194.21 164.368 197.474 165.328C199.874 166 201.746 166.624 203.09 167.2C204.482 167.728 205.634 168.472 206.546 169.432C207.458 170.392 207.914 171.616 207.914 173.104C207.914 174.928 207.242 176.416 205.898 177.568C204.554 178.672 202.706 179.224 200.354 179.224C198.05 179.224 196.226 178.624 194.882 177.424C193.586 176.224 192.866 174.592 192.722 172.528H181.922C181.97 175.6 182.81 178.264 184.442 180.52C186.074 182.776 188.282 184.504 191.066 185.704ZM264.749 165.472C262.925 163.168 260.597 161.752 257.765 161.224C260.357 160.408 262.421 159.016 263.957 157.048C265.541 155.08 266.333 152.632 266.333 149.704C266.333 147.208 265.685 144.976 264.389 143.008C263.141 141.04 261.269 139.504 258.773 138.4C256.325 137.296 253.397 136.744 249.989 136.744H229.253V187H250.925C254.333 187 257.285 186.424 259.781 185.272C262.277 184.12 264.173 182.536 265.469 180.52C266.813 178.456 267.485 176.08 267.485 173.392C267.485 170.416 266.573 167.776 264.749 165.472ZM248.549 157.48H239.333V144.88H248.549C250.949 144.88 252.797 145.432 254.093 146.536C255.389 147.64 256.037 149.2 256.037 151.216C256.037 153.232 255.389 154.792 254.093 155.896C252.797 156.952 250.949 157.48 248.549 157.48ZM255.173 177.064C253.829 178.216 251.933 178.792 249.485 178.792H239.333V165.256H249.269C251.717 165.256 253.661 165.88 255.101 167.128C256.541 168.328 257.261 170.008 257.261 172.168C257.261 174.28 256.565 175.912 255.173 177.064ZM287.759 187V136.744H277.679V187H287.759Z" fill="white"/>
<path d="M10.17 255.224C8.61267 255.224 7.20467 254.957 5.946 254.424C4.70867 253.891 3.72733 253.123 3.002 252.12C2.27667 251.117 1.90333 249.933 1.882 248.568H6.682C6.746 249.485 7.066 250.211 7.642 250.744C8.23933 251.277 9.05 251.544 10.074 251.544C11.1193 251.544 11.9407 251.299 12.538 250.808C13.1353 250.296 13.434 249.635 13.434 248.824C13.434 248.163 13.2313 247.619 12.826 247.192C12.4207 246.765 11.9087 246.435 11.29 246.2C10.6927 245.944 9.86067 245.667 8.794 245.368C7.34333 244.941 6.15933 244.525 5.242 244.12C4.346 243.693 3.56733 243.064 2.906 242.232C2.266 241.379 1.946 240.248 1.946 238.84C1.946 237.517 2.27667 236.365 2.938 235.384C3.59933 234.403 4.52733 233.656 5.722 233.144C6.91667 232.611 8.282 232.344 9.818 232.344C12.122 232.344 13.9887 232.909 15.418 234.04C16.8687 235.149 17.6687 236.707 17.818 238.712H12.89C12.8473 237.944 12.5167 237.315 11.898 236.824C11.3007 236.312 10.5007 236.056 9.498 236.056C8.62333 236.056 7.91933 236.28 7.386 236.728C6.874 237.176 6.618 237.827 6.618 238.68C6.618 239.277 6.81 239.779 7.194 240.184C7.59933 240.568 8.09 240.888 8.666 241.144C9.26333 241.379 10.0953 241.656 11.162 241.976C12.6127 242.403 13.7967 242.829 14.714 243.256C15.6313 243.683 16.4207 244.323 17.082 245.176C17.7433 246.029 18.074 247.149 18.074 248.536C18.074 249.731 17.7647 250.84 17.146 251.864C16.5273 252.888 15.6207 253.709 14.426 254.328C13.2313 254.925 11.8127 255.224 10.17 255.224ZM27.174 240.952V249.528C27.174 250.125 27.3127 250.563 27.59 250.84C27.8887 251.096 28.3793 251.224 29.062 251.224H31.142V255H28.326C24.55 255 22.662 253.165 22.662 249.496V240.952H20.55V237.272H22.662V232.888H27.174V237.272H31.142V240.952H27.174ZM42.2363 255.288C40.5296 255.288 38.9936 254.915 37.6283 254.168C36.2629 253.4 35.1856 252.323 34.3963 250.936C33.6283 249.549 33.2443 247.949 33.2443 246.136C33.2443 244.323 33.6389 242.723 34.4283 241.336C35.2389 239.949 36.3376 238.883 37.7243 238.136C39.1109 237.368 40.6576 236.984 42.3643 236.984C44.0709 236.984 45.6176 237.368 47.0043 238.136C48.3909 238.883 49.4789 239.949 50.2683 241.336C51.0789 242.723 51.4843 244.323 51.4843 246.136C51.4843 247.949 51.0683 249.549 50.2362 250.936C49.4256 252.323 48.3163 253.4 46.9083 254.168C45.5216 254.915 43.9643 255.288 42.2363 255.288ZM42.2363 251.384C43.0469 251.384 43.8043 251.192 44.5083 250.808C45.2336 250.403 45.8096 249.805 46.2363 249.016C46.6629 248.227 46.8763 247.267 46.8763 246.136C46.8763 244.451 46.4283 243.16 45.5323 242.264C44.6576 241.347 43.5803 240.888 42.3003 240.888C41.0203 240.888 39.9429 241.347 39.0683 242.264C38.2149 243.16 37.7883 244.451 37.7883 246.136C37.7883 247.821 38.2043 249.123 39.0363 250.04C39.8896 250.936 40.9563 251.384 42.2363 251.384ZM59.2505 240.024C59.8265 239.085 60.5732 238.349 61.4905 237.816C62.4292 237.283 63.4958 237.016 64.6905 237.016V241.72H63.5065C62.0985 241.72 61.0318 242.051 60.3065 242.712C59.6025 243.373 59.2505 244.525 59.2505 246.168V255H54.7705V237.272H59.2505V240.024ZM84.668 237.272L73.692 263.384H68.924L72.764 254.552L65.66 237.272H70.684L75.26 249.656L79.9 237.272H84.668ZM99.755 243.544C101.014 243.779 102.048 244.408 102.859 245.432C103.67 246.456 104.075 247.629 104.075 248.952C104.075 250.147 103.776 251.203 103.179 252.12C102.603 253.016 101.76 253.72 100.651 254.232C99.5417 254.744 98.2297 255 96.715 255H87.083V232.664H96.299C97.8137 232.664 99.115 232.909 100.203 233.4C101.312 233.891 102.144 234.573 102.699 235.448C103.275 236.323 103.563 237.315 103.563 238.424C103.563 239.725 103.211 240.813 102.507 241.688C101.824 242.563 100.907 243.181 99.755 243.544ZM91.563 241.88H95.659C96.7257 241.88 97.547 241.645 98.123 241.176C98.699 240.685 98.987 239.992 98.987 239.096C98.987 238.2 98.699 237.507 98.123 237.016C97.547 236.525 96.7257 236.28 95.659 236.28H91.563V241.88ZM96.075 251.352C97.163 251.352 98.0057 251.096 98.603 250.584C99.2217 250.072 99.531 249.347 99.531 248.408C99.531 247.448 99.211 246.701 98.571 246.168C97.931 245.613 97.067 245.336 95.979 245.336H91.563V251.352H96.075ZM115.518 255.288C113.811 255.288 112.275 254.915 110.91 254.168C109.544 253.4 108.467 252.323 107.678 250.936C106.91 249.549 106.526 247.949 106.526 246.136C106.526 244.323 106.92 242.723 107.71 241.336C108.52 239.949 109.619 238.883 111.006 238.136C112.392 237.368 113.939 236.984 115.646 236.984C117.352 236.984 118.899 237.368 120.286 238.136C121.672 238.883 122.76 239.949 123.55 241.336C124.36 242.723 124.766 244.323 124.766 246.136C124.766 247.949 124.35 249.549 123.517 250.936C122.707 252.323 121.598 253.4 120.19 254.168C118.803 254.915 117.246 255.288 115.518 255.288ZM115.518 251.384C116.328 251.384 117.086 251.192 117.79 250.808C118.515 250.403 119.091 249.805 119.518 249.016C119.944 248.227 120.158 247.267 120.158 246.136C120.158 244.451 119.71 243.16 118.814 242.264C117.939 241.347 116.862 240.888 115.582 240.888C114.302 240.888 113.224 241.347 112.35 242.264C111.496 243.16 111.07 244.451 111.07 246.136C111.07 247.821 111.486 249.123 112.318 250.04C113.171 250.936 114.238 251.384 115.518 251.384ZM135.924 255.288C134.217 255.288 132.681 254.915 131.316 254.168C129.95 253.4 128.873 252.323 128.084 250.936C127.316 249.549 126.932 247.949 126.932 246.136C126.932 244.323 127.326 242.723 128.116 241.336C128.926 239.949 130.025 238.883 131.412 238.136C132.798 237.368 134.345 236.984 136.052 236.984C137.758 236.984 139.305 237.368 140.692 238.136C142.078 238.883 143.166 239.949 143.956 241.336C144.766 242.723 145.172 244.323 145.172 246.136C145.172 247.949 144.756 249.549 143.924 250.936C143.113 252.323 142.004 253.4 140.596 254.168C139.209 254.915 137.652 255.288 135.924 255.288ZM135.924 251.384C136.734 251.384 137.492 251.192 138.196 250.808C138.921 250.403 139.497 249.805 139.924 249.016C140.35 248.227 140.564 247.267 140.564 246.136C140.564 244.451 140.116 243.16 139.22 242.264C138.345 241.347 137.268 240.888 135.988 240.888C134.708 240.888 133.63 241.347 132.756 242.264C131.902 243.16 131.476 244.451 131.476 246.136C131.476 247.821 131.892 249.123 132.724 250.04C133.577 250.936 134.644 251.384 135.924 251.384ZM158.954 255L152.938 247.448V255H148.458V231.32H152.938V244.792L158.89 237.272H164.714L156.906 246.168L164.778 255H158.954ZM179.251 232.664V255H174.771V232.664H179.251ZM193.501 237.016C195.613 237.016 197.319 237.688 198.621 239.032C199.922 240.355 200.573 242.211 200.573 244.6V255H196.093V245.208C196.093 243.8 195.741 242.723 195.037 241.976C194.333 241.208 193.373 240.824 192.157 240.824C190.919 240.824 189.938 241.208 189.213 241.976C188.509 242.723 188.157 243.8 188.157 245.208V255H183.677V237.272H188.157V239.48C188.754 238.712 189.511 238.115 190.429 237.688C191.367 237.24 192.391 237.016 193.501 237.016ZM207.105 235.16C206.316 235.16 205.654 234.915 205.121 234.424C204.609 233.912 204.353 233.283 204.353 232.536C204.353 231.789 204.609 231.171 205.121 230.68C205.654 230.168 206.316 229.912 207.105 229.912C207.894 229.912 208.545 230.168 209.057 230.68C209.59 231.171 209.857 231.789 209.857 232.536C209.857 233.283 209.59 233.912 209.057 234.424C208.545 234.915 207.894 235.16 207.105 235.16ZM209.313 237.272V255H204.833V237.272H209.313ZM218.955 240.952V249.528C218.955 250.125 219.094 250.563 219.371 250.84C219.67 251.096 220.161 251.224 220.843 251.224H222.923V255H220.107C216.331 255 214.443 253.165 214.443 249.496V240.952H212.331V237.272H214.443V232.888H218.955V237.272H222.923V240.952H218.955ZM228.418 235.16C227.628 235.16 226.967 234.915 226.434 234.424C225.922 233.912 225.666 233.283 225.666 232.536C225.666 231.789 225.922 231.171 226.434 230.68C226.967 230.168 227.628 229.912 228.418 229.912C229.207 229.912 229.858 230.168 230.37 230.68C230.903 231.171 231.17 231.789 231.17 232.536C231.17 233.283 230.903 233.912 230.37 234.424C229.858 234.915 229.207 235.16 228.418 235.16ZM230.626 237.272V255H226.146V237.272H230.626ZM233.9 246.072C233.9 244.28 234.252 242.691 234.956 241.304C235.681 239.917 236.652 238.851 237.868 238.104C239.105 237.357 240.481 236.984 241.996 236.984C243.318 236.984 244.47 237.251 245.452 237.784C246.454 238.317 247.254 238.989 247.852 239.8V237.272H252.364V255H247.852V252.408C247.276 253.24 246.476 253.933 245.452 254.488C244.449 255.021 243.286 255.288 241.964 255.288C240.47 255.288 239.105 254.904 237.868 254.136C236.652 253.368 235.681 252.291 234.956 250.904C234.252 249.496 233.9 247.885 233.9 246.072ZM247.852 246.136C247.852 245.048 247.638 244.12 247.212 243.352C246.785 242.563 246.209 241.965 245.484 241.56C244.758 241.133 243.98 240.92 243.148 240.92C242.316 240.92 241.548 241.123 240.844 241.528C240.14 241.933 239.564 242.531 239.116 243.32C238.689 244.088 238.476 245.005 238.476 246.072C238.476 247.139 238.689 248.077 239.116 248.888C239.564 249.677 240.14 250.285 240.844 250.712C241.569 251.139 242.337 251.352 243.148 251.352C243.98 251.352 244.758 251.149 245.484 250.744C246.209 250.317 246.785 249.72 247.212 248.952C247.638 248.163 247.852 247.224 247.852 246.136ZM261.955 240.952V249.528C261.955 250.125 262.094 250.563 262.371 250.84C262.67 251.096 263.161 251.224 263.843 251.224H265.923V255H263.107C259.331 255 257.443 253.165 257.443 249.496V240.952H255.331V237.272H257.443V232.888H261.955V237.272H265.923V240.952H261.955ZM271.418 235.16C270.628 235.16 269.967 234.915 269.434 234.424C268.922 233.912 268.666 233.283 268.666 232.536C268.666 231.789 268.922 231.171 269.434 230.68C269.967 230.168 270.628 229.912 271.418 229.912C272.207 229.912 272.858 230.168 273.37 230.68C273.903 231.171 274.17 231.789 274.17 232.536C274.17 233.283 273.903 233.912 273.37 234.424C272.858 234.915 272.207 235.16 271.418 235.16ZM273.626 237.272V255H269.146V237.272H273.626ZM285.444 250.872L289.924 237.272H294.692L288.132 255H282.692L276.164 237.272H280.964L285.444 250.872ZM313.688 245.752C313.688 246.392 313.645 246.968 313.56 247.48H300.6C300.707 248.76 301.155 249.763 301.944 250.488C302.733 251.213 303.704 251.576 304.856 251.576C306.52 251.576 307.704 250.861 308.408 249.432H313.24C312.728 251.139 311.747 252.547 310.296 253.656C308.845 254.744 307.064 255.288 304.952 255.288C303.245 255.288 301.709 254.915 300.344 254.168C299 253.4 297.944 252.323 297.176 250.936C296.429 249.549 296.056 247.949 296.056 246.136C296.056 244.301 296.429 242.691 297.176 241.304C297.923 239.917 298.968 238.851 300.312 238.104C301.656 237.357 303.203 236.984 304.952 236.984C306.637 236.984 308.141 237.347 309.464 238.072C310.808 238.797 311.843 239.832 312.568 241.176C313.315 242.499 313.688 244.024 313.688 245.752ZM309.048 244.472C309.027 243.32 308.611 242.403 307.8 241.72C306.989 241.016 305.997 240.664 304.824 240.664C303.715 240.664 302.776 241.005 302.008 241.688C301.261 242.349 300.803 243.277 300.632 244.472H309.048Z" fill="white"/>
</svg>
