<svg width="44" height="48" viewBox="0 0 44 48" fill="none" xmlns="http://www.w3.org/2000/svg">
<mask id="path-1-inside-1" fill="white">
<path fill-rule="evenodd" clip-rule="evenodd" d="M43.3839 36.7419C37.7658 33.2039 33.6608 27.3347 32.5894 20.2551C31.675 14.2128 33.1323 8.35881 36.2645 3.63857C31.1767 0.437499 24.8746 -0.83802 18.5425 0.566327C5.7852 3.39565 -2.263 16.0311 0.566327 28.7884C3.39565 41.5456 16.0311 49.5938 28.7884 46.7645C35.014 45.3838 40.1181 41.6677 43.3839 36.7419Z"/>
</mask>
<path fill-rule="evenodd" clip-rule="evenodd" d="M43.3839 36.7419C37.7658 33.2039 33.6608 27.3347 32.5894 20.2551C31.675 14.2128 33.1323 8.35881 36.2645 3.63857C31.1767 0.437499 24.8746 -0.83802 18.5425 0.566327C5.7852 3.39565 -2.263 16.0311 0.566327 28.7884C3.39565 41.5456 16.0311 49.5938 28.7884 46.7645C35.014 45.3838 40.1181 41.6677 43.3839 36.7419Z" fill="#28113C"/>
<path d="M43.3839 36.7419L44.2174 37.2945L44.7831 36.4412L43.9168 35.8957L43.3839 36.7419ZM32.5894 20.2551L31.6007 20.4047L31.6007 20.4047L32.5894 20.2551ZM36.2645 3.63857L37.0978 4.19149L37.6643 3.33777L36.7971 2.79216L36.2645 3.63857ZM18.5425 0.566327L18.759 1.5426L18.759 1.5426L18.5425 0.566327ZM28.7884 46.7645L29.0049 47.7408L29.0049 47.7408L28.7884 46.7645ZM43.9168 35.8957C38.5342 32.506 34.6042 26.8857 33.5782 20.1054L31.6007 20.4047C32.7174 27.7838 36.9975 33.9018 42.8511 37.5881L43.9168 35.8957ZM33.5782 20.1054C32.7023 14.3179 34.0974 8.71302 37.0978 4.19149L35.4313 3.08566C32.1672 8.00459 30.6477 14.1076 31.6007 20.4047L33.5782 20.1054ZM18.759 1.5426C24.8238 0.197544 30.858 1.41841 35.732 4.48498L36.7971 2.79216C31.4954 -0.543415 24.9254 -1.87359 18.326 -0.409951L18.759 1.5426ZM1.5426 28.5718C-1.16714 16.3538 6.5409 4.25235 18.759 1.5426L18.326 -0.409951C5.02949 2.53895 -3.35886 15.7084 -0.409951 29.0049L1.5426 28.5718ZM28.5718 45.7882C16.3538 48.498 4.25235 40.7899 1.5426 28.5718L-0.409951 29.0049C2.53895 42.3013 15.7084 50.6897 29.0049 47.7408L28.5718 45.7882ZM42.5505 36.1893C39.422 40.9081 34.5347 44.4658 28.5718 45.7882L29.0049 47.7408C35.4932 46.3018 40.8143 42.4274 44.2174 37.2945L42.5505 36.1893Z" fill="#333333" mask="url(#path-1-inside-1)"/>
<rect x="12.6754" y="28.2727" width="6.32235" height="21.0869" rx="1.5" transform="rotate(-68.6287 12.6754 28.2727)" fill="#EA1AB0" stroke="#E5E5E5"/>
<rect x="10.5333" y="35.5339" width="6.32235" height="19.4627" rx="1.5" transform="rotate(-68.6287 10.5333 35.5339)" fill="#EA1AB0" stroke="#E5E5E5"/>
<path fill-rule="evenodd" clip-rule="evenodd" d="M19.7208 7.51458C20.5462 7.51846 21.3524 7.5907 22.1321 7.72494C17.0579 8.94507 13.3437 12.801 13.3221 17.3864C13.3107 19.8116 14.3341 22.0424 16.0499 23.7937L14.5723 27.5697L15.8624 28.0745C10.8563 26.698 7.24357 22.6965 7.26567 17.9916C7.293 12.1731 12.8694 7.4824 19.7208 7.51458Z" fill="#EA1AB0"/>
<path fill-rule="evenodd" clip-rule="evenodd" d="M18.2628 6.90167C19.1309 6.86829 19.982 6.90766 20.808 7.01344C15.5276 8.5269 11.7969 12.7502 11.9824 17.5731C12.0798 20.1054 13.2409 22.39 15.1007 24.1486L13.685 28.2838C9.10204 26.7148 5.81319 22.9715 5.64063 18.4846C5.40527 12.3646 11.0564 7.17881 18.2628 6.90167Z" fill="#EA1AB0"/>
<path d="M20.808 7.01344L21.0835 7.97474L20.935 6.02155L20.808 7.01344ZM18.2628 6.90167L18.2244 5.90241L18.2628 6.90167ZM11.9824 17.5731L12.9816 17.5347L12.9816 17.5347L11.9824 17.5731ZM15.1007 24.1486L16.0468 24.4725L16.2552 23.8639L15.7878 23.422L15.1007 24.1486ZM13.685 28.2838L13.3611 29.2298L14.3071 29.5537L14.6311 28.6077L13.685 28.2838ZM5.64063 18.4846L6.63989 18.4461L5.64063 18.4846ZM20.935 6.02155C20.0542 5.90874 19.1477 5.8669 18.2244 5.90241L18.3012 7.90093C19.1141 7.86967 19.9098 7.90658 20.681 8.00534L20.935 6.02155ZM12.9816 17.5347C12.8187 13.2966 16.1134 9.39926 21.0835 7.97474L20.5325 6.05215C14.9418 7.65453 10.7752 12.2039 10.9831 17.6116L12.9816 17.5347ZM15.7878 23.422C14.0921 21.8186 13.0677 19.772 12.9816 17.5347L10.9831 17.6116C11.0919 20.4388 12.3897 22.9614 14.4137 24.8752L15.7878 23.422ZM14.6311 28.6077L16.0468 24.4725L14.1547 23.8247L12.7389 27.9598L14.6311 28.6077ZM4.64137 18.523C4.83321 23.5114 8.47803 27.5581 13.3611 29.2298L14.0089 27.3377C9.72605 25.8714 6.79316 22.4316 6.63989 18.4461L4.64137 18.523ZM18.2244 5.90241C10.6254 6.19465 4.37914 11.7043 4.64137 18.523L6.63989 18.4461C6.43141 13.025 11.4874 8.16298 18.3012 7.90093L18.2244 5.90241Z" fill="#E5E5E5"/>
<path fill-rule="evenodd" clip-rule="evenodd" d="M17.7826 6.76523C18.644 6.65226 19.4951 6.61331 20.3274 6.6428C15.2081 8.6347 11.8808 13.1829 12.5085 17.9685C12.838 20.4812 14.204 22.6495 16.2176 24.2298L15.1876 28.4773C10.48 27.3358 6.86133 23.9104 6.27746 19.4583C5.48109 13.3859 10.6321 7.70298 17.7826 6.76523Z" fill="#EA1AB0"/>
<path d="M21.4051 23.1153C31.8944 17.2864 25.1906 5.0458 14.252 9.54446" stroke="#E5E5E5" stroke-width="6"/>
</svg>
