<svg width="135" height="78" viewBox="0 0 135 78" fill="none" xmlns="http://www.w3.org/2000/svg">
<path d="M66.452 28.688C66.124 29.008 65.756 29.168 65.348 29.168C64.956 29.168 64.64 29.056 64.4 28.832C64.16 28.608 63.924 28.252 63.692 27.764L62.78 25.832C62.708 25.672 62.616 25.556 62.504 25.484C62.4 25.412 62.22 25.328 61.964 25.232C61.812 25.176 61.736 25.084 61.736 24.956C61.736 24.876 61.752 24.808 61.784 24.752C61.816 24.696 61.864 24.668 61.928 24.668C61.96 24.668 62.024 24.684 62.12 24.716C62.224 24.74 62.356 24.752 62.516 24.752C63.116 24.752 63.584 24.584 63.92 24.248C64.256 23.904 64.424 23.448 64.424 22.88C64.424 22.296 64.244 21.82 63.884 21.452C63.532 21.076 63.032 20.888 62.384 20.888C61.776 20.888 61.472 21.072 61.472 21.44V26.588C61.472 27.068 61.512 27.456 61.592 27.752C61.672 28.04 61.812 28.32 62.012 28.592L62.168 28.808L62.012 29H59.384L59.24 28.592L59.516 28.52C59.82 28.44 60.024 28.324 60.128 28.172C60.232 28.02 60.284 27.764 60.284 27.404V21.476C60.284 21.372 60.264 21.3 60.224 21.26C60.184 21.212 60.116 21.188 60.02 21.188H59.324L59.18 20.744C59.524 20.608 59.976 20.488 60.536 20.384C61.104 20.272 61.648 20.216 62.168 20.216C63.352 20.216 64.232 20.46 64.808 20.948C65.384 21.436 65.672 22.068 65.672 22.844C65.672 23.436 65.508 23.952 65.18 24.392C64.852 24.832 64.368 25.128 63.728 25.28C63.904 25.4 64.064 25.596 64.208 25.868L65.324 28.136C65.452 28.384 65.604 28.508 65.78 28.508C65.932 28.508 66.088 28.452 66.248 28.34L66.452 28.688ZM72.8558 27.944C72.8558 28.192 72.9718 28.316 73.2038 28.316C73.3878 28.316 73.5838 28.244 73.7918 28.1L74.0198 28.412C73.8358 28.636 73.6198 28.82 73.3718 28.964C73.1318 29.1 72.9078 29.168 72.6998 29.168C72.3798 29.168 72.1438 29.076 71.9918 28.892C71.8478 28.708 71.7758 28.416 71.7758 28.016C71.5918 28.368 71.3158 28.648 70.9478 28.856C70.5878 29.064 70.1878 29.168 69.7478 29.168C69.1718 29.168 68.7198 28.996 68.3918 28.652C68.0718 28.3 67.9118 27.808 67.9118 27.176V24.176C67.9118 24 67.8318 23.912 67.6718 23.912H67.1438L67.0358 23.6C67.2438 23.392 67.4958 23.22 67.7918 23.084C68.0958 22.948 68.3718 22.88 68.6198 22.88C68.7318 22.88 68.8238 22.916 68.8958 22.988C68.9678 23.06 69.0038 23.152 69.0038 23.264V26.9C69.0038 27.38 69.0998 27.744 69.2918 27.992C69.4918 28.24 69.7798 28.364 70.1558 28.364C70.6918 28.364 71.1078 28.132 71.4038 27.668C71.7078 27.204 71.8598 26.564 71.8598 25.748C71.8598 25.156 71.8238 24.696 71.7518 24.368C71.6878 24.032 71.5678 23.712 71.3918 23.408L71.2478 23.216L71.3918 23.036L72.8558 22.88V27.944ZM80.1378 27.944C80.1378 28.192 80.2578 28.316 80.4978 28.316C80.6978 28.316 80.8978 28.244 81.0978 28.1L81.3258 28.412C81.1178 28.644 80.8938 28.828 80.6538 28.964C80.4138 29.1 80.1938 29.168 79.9938 29.168C79.6658 29.168 79.4298 29.068 79.2858 28.868C79.1418 28.668 79.0698 28.344 79.0698 27.896C78.7418 28.36 78.4058 28.688 78.0618 28.88C77.7178 29.072 77.3458 29.168 76.9458 29.168C76.5618 29.168 76.2058 29.06 75.8778 28.844C75.5498 28.62 75.2858 28.288 75.0858 27.848C74.8938 27.408 74.7978 26.876 74.7978 26.252C74.7978 25.564 74.9218 24.968 75.1698 24.464C75.4258 23.952 75.7858 23.56 76.2498 23.288C76.7218 23.016 77.2738 22.88 77.9058 22.88C78.3218 22.88 78.7018 22.932 79.0458 23.036V20.912C79.0458 20.816 79.0258 20.748 78.9858 20.708C78.9538 20.668 78.8938 20.648 78.8058 20.648H78.2778L78.1698 20.336C78.4018 20.128 78.6658 19.956 78.9618 19.82C79.2658 19.684 79.5298 19.616 79.7538 19.616C79.8658 19.616 79.9578 19.652 80.0298 19.724C80.1018 19.796 80.1378 19.888 80.1378 20V27.944ZM76.0578 26.024C76.0578 26.784 76.1858 27.344 76.4418 27.704C76.7058 28.064 77.0338 28.244 77.4258 28.244C77.7458 28.244 78.0458 28.156 78.3258 27.98C78.6058 27.796 78.8538 27.52 79.0698 27.152V23.912C78.7018 23.664 78.3098 23.54 77.8938 23.54C77.3098 23.54 76.8578 23.76 76.5378 24.2C76.2178 24.632 76.0578 25.24 76.0578 26.024ZM82.604 21.104C82.604 20.952 82.688 20.784 82.856 20.6C83.032 20.408 83.192 20.312 83.336 20.312C83.488 20.312 83.652 20.404 83.828 20.588C84.004 20.772 84.092 20.944 84.092 21.104C84.092 21.256 84.004 21.424 83.828 21.608C83.652 21.792 83.488 21.884 83.336 21.884C83.2 21.884 83.044 21.792 82.868 21.608C82.692 21.424 82.604 21.256 82.604 21.104ZM83.876 27.944C83.876 28.216 83.996 28.352 84.236 28.352C84.436 28.352 84.636 28.268 84.836 28.1L85.064 28.412C84.856 28.644 84.632 28.828 84.392 28.964C84.152 29.1 83.928 29.168 83.72 29.168C83.392 29.168 83.156 29.068 83.012 28.868C82.868 28.668 82.796 28.344 82.796 27.896V24.176C82.796 24.08 82.776 24.012 82.736 23.972C82.704 23.932 82.644 23.912 82.556 23.912H82.028L81.92 23.6C82.152 23.392 82.416 23.22 82.712 23.084C83.008 22.948 83.272 22.88 83.504 22.88C83.616 22.88 83.708 22.916 83.78 22.988C83.852 23.06 83.888 23.152 83.888 23.264L83.876 27.944ZM87.6863 27.08C87.6863 27.456 87.7143 27.756 87.7703 27.98C87.8263 28.204 87.9263 28.42 88.0703 28.628L88.2143 28.82L88.0703 29H85.9703L85.8383 28.628L86.0903 28.568C86.2903 28.52 86.4223 28.436 86.4863 28.316C86.5583 28.188 86.5943 27.972 86.5943 27.668V24.296C86.5943 24.2 86.5743 24.132 86.5343 24.092C86.5023 24.052 86.4423 24.032 86.3543 24.032H85.8263L85.7183 23.72C85.9503 23.512 86.2143 23.34 86.5103 23.204C86.8143 23.068 87.0783 23 87.3023 23C87.4143 23 87.5063 23.036 87.5783 23.108C87.6503 23.18 87.6863 23.272 87.6863 23.384V24.668C87.8943 24.14 88.1983 23.712 88.5983 23.384C88.9983 23.048 89.4183 22.88 89.8583 22.88C90.3463 22.88 90.7143 23.024 90.9623 23.312C91.2103 23.6 91.3543 24.052 91.3943 24.668C91.6023 24.14 91.9063 23.712 92.3063 23.384C92.7063 23.048 93.1263 22.88 93.5663 22.88C94.1023 22.88 94.4903 23.052 94.7303 23.396C94.9783 23.74 95.1023 24.288 95.1023 25.04V27.944C95.1023 28.216 95.2223 28.352 95.4623 28.352C95.6463 28.352 95.8463 28.268 96.0623 28.1L96.2903 28.412C96.0823 28.644 95.8583 28.828 95.6183 28.964C95.3783 29.1 95.1543 29.168 94.9463 29.168C94.6183 29.168 94.3823 29.068 94.2383 28.868C94.0943 28.668 94.0223 28.344 94.0223 27.896V25.04C94.0223 24.224 93.7263 23.816 93.1343 23.816C92.7983 23.816 92.5023 23.948 92.2463 24.212C91.9903 24.468 91.7863 24.832 91.6343 25.304C91.4823 25.776 91.4023 26.32 91.3943 26.936V27.08C91.3943 27.496 91.4263 27.828 91.4903 28.076C91.5623 28.316 91.7063 28.564 91.9223 28.82L91.7783 29H90.3143V25.04C90.3143 24.224 90.0183 23.816 89.4263 23.816C89.0823 23.816 88.7783 23.952 88.5143 24.224C88.2583 24.496 88.0543 24.88 87.9023 25.376C87.7583 25.872 87.6863 26.44 87.6863 27.08ZM102.211 28.1C101.915 28.444 101.563 28.708 101.155 28.892C100.747 29.076 100.307 29.168 99.8352 29.168C99.2832 29.168 98.7992 29.04 98.3832 28.784C97.9672 28.528 97.6432 28.168 97.4112 27.704C97.1872 27.24 97.0752 26.704 97.0752 26.096C97.0752 25.456 97.2032 24.896 97.4592 24.416C97.7152 23.928 98.0752 23.552 98.5392 23.288C99.0112 23.016 99.5592 22.88 100.183 22.88C100.623 22.88 100.995 22.964 101.299 23.132C101.611 23.292 101.843 23.508 101.995 23.78C102.147 24.044 102.223 24.332 102.223 24.644C102.223 24.98 102.131 25.304 101.947 25.616C101.771 25.928 101.511 26.184 101.167 26.384C100.823 26.576 100.411 26.672 99.9312 26.672C99.6752 26.672 99.3912 26.624 99.0792 26.528C98.7672 26.432 98.6112 26.292 98.6112 26.108C98.6112 26.044 98.6272 25.984 98.6592 25.928C98.6992 25.872 98.7432 25.844 98.7912 25.844C98.8152 25.844 98.8952 25.872 99.0312 25.928C99.1672 25.976 99.3432 26 99.5592 26C100.039 26 100.411 25.864 100.675 25.592C100.947 25.32 101.083 25 101.083 24.632C101.083 24.32 100.983 24.052 100.783 23.828C100.583 23.596 100.303 23.48 99.9432 23.48C99.4312 23.48 99.0312 23.708 98.7432 24.164C98.4552 24.612 98.3112 25.256 98.3112 26.096C98.3112 26.808 98.4632 27.368 98.7672 27.776C99.0712 28.176 99.5112 28.376 100.087 28.376C100.791 28.376 101.375 28.148 101.839 27.692C101.871 27.66 101.907 27.644 101.947 27.644C102.011 27.644 102.079 27.684 102.151 27.764C102.223 27.836 102.259 27.912 102.259 27.992C102.259 28.032 102.243 28.068 102.211 28.1ZM105.335 27.08C105.335 27.456 105.363 27.756 105.419 27.98C105.475 28.204 105.575 28.42 105.719 28.628L105.863 28.82L105.719 29H103.619L103.487 28.628L103.739 28.568C103.939 28.52 104.071 28.436 104.135 28.316C104.207 28.188 104.243 27.972 104.243 27.668V24.296C104.243 24.2 104.223 24.132 104.183 24.092C104.151 24.052 104.091 24.032 104.003 24.032H103.475L103.367 23.72C103.599 23.512 103.863 23.34 104.159 23.204C104.463 23.068 104.727 23 104.951 23C105.063 23 105.155 23.036 105.227 23.108C105.299 23.18 105.335 23.272 105.335 23.384V24.668C105.543 24.148 105.855 23.72 106.271 23.384C106.687 23.048 107.123 22.88 107.579 22.88C108.139 22.88 108.547 23.052 108.803 23.396C109.059 23.74 109.187 24.288 109.187 25.04V27.944C109.187 28.216 109.307 28.352 109.547 28.352C109.731 28.352 109.931 28.268 110.147 28.1L110.375 28.412C110.167 28.644 109.943 28.828 109.703 28.964C109.463 29.1 109.239 29.168 109.031 29.168C108.703 29.168 108.467 29.068 108.323 28.868C108.179 28.668 108.107 28.344 108.107 27.896V25.04C108.107 24.224 107.763 23.816 107.075 23.816C106.731 23.816 106.427 23.952 106.163 24.224C105.907 24.496 105.703 24.88 105.551 25.376C105.407 25.872 105.335 26.44 105.335 27.08ZM114.449 23.036C114.449 23.204 114.425 23.356 114.377 23.492C114.329 23.628 114.261 23.728 114.173 23.792H112.889V27.656C112.889 27.904 112.925 28.08 112.997 28.184C113.069 28.288 113.185 28.34 113.345 28.34C113.585 28.34 113.857 28.212 114.161 27.956L114.389 28.268C114.181 28.54 113.933 28.76 113.645 28.928C113.357 29.088 113.085 29.168 112.829 29.168C112.501 29.168 112.245 29.068 112.061 28.868C111.885 28.66 111.797 28.376 111.797 28.016V23.792H110.741C110.741 23.576 110.757 23.436 110.789 23.372C110.821 23.308 110.901 23.26 111.029 23.228C111.453 23.116 111.753 22.936 111.929 22.688C112.113 22.432 112.245 22.104 112.325 21.704C112.349 21.576 112.389 21.496 112.445 21.464C112.509 21.432 112.657 21.416 112.889 21.416V23.036H114.449ZM119.511 27.896C119.183 28.36 118.847 28.688 118.503 28.88C118.159 29.072 117.787 29.168 117.387 29.168C117.003 29.168 116.647 29.06 116.319 28.844C115.991 28.62 115.727 28.288 115.527 27.848C115.335 27.408 115.239 26.876 115.239 26.252C115.239 25.564 115.363 24.968 115.611 24.464C115.867 23.952 116.227 23.56 116.691 23.288C117.163 23.016 117.715 22.88 118.347 22.88C118.659 22.88 119.099 22.932 119.667 23.036C120.147 23.116 120.507 23.164 120.747 23.18L120.879 23.336L120.735 23.552C120.679 23.632 120.639 23.708 120.615 23.78C120.591 23.844 120.579 23.924 120.579 24.02V27.944C120.579 28.192 120.699 28.316 120.939 28.316C121.139 28.316 121.339 28.244 121.539 28.1L121.767 28.412C121.559 28.644 121.335 28.828 121.095 28.964C120.855 29.1 120.635 29.168 120.435 29.168C120.107 29.168 119.871 29.068 119.727 28.868C119.583 28.668 119.511 28.344 119.511 27.896ZM116.499 26.024C116.499 26.784 116.627 27.344 116.883 27.704C117.147 28.064 117.475 28.244 117.867 28.244C118.187 28.244 118.487 28.156 118.767 27.98C119.047 27.796 119.295 27.52 119.511 27.152V23.912C119.143 23.664 118.751 23.54 118.335 23.54C117.751 23.54 117.299 23.76 116.979 24.2C116.659 24.632 116.499 25.24 116.499 26.024ZM124.461 24.668C124.597 24.132 124.805 23.7 125.085 23.372C125.373 23.044 125.685 22.88 126.021 22.88C126.357 22.88 126.633 22.992 126.849 23.216C127.073 23.432 127.185 23.728 127.185 24.104C127.185 24.408 127.073 24.664 126.849 24.872C126.625 25.08 126.345 25.184 126.009 25.184C125.857 25.184 125.781 25.14 125.781 25.052C125.781 25.028 125.813 24.968 125.877 24.872C125.949 24.776 126.005 24.676 126.045 24.572C126.093 24.468 126.117 24.352 126.117 24.224C126.117 24.08 126.077 23.968 125.997 23.888C125.925 23.8 125.833 23.756 125.721 23.756C125.529 23.756 125.329 23.872 125.121 24.104C124.921 24.328 124.749 24.696 124.605 25.208C124.461 25.712 124.389 26.352 124.389 27.128C124.389 27.488 124.417 27.78 124.473 28.004C124.529 28.22 124.629 28.428 124.773 28.628L124.917 28.82L124.773 29H122.673L122.541 28.628L122.793 28.568C122.993 28.52 123.125 28.436 123.189 28.316C123.261 28.188 123.297 27.972 123.297 27.668V24.296C123.297 24.2 123.277 24.132 123.237 24.092C123.205 24.052 123.145 24.032 123.057 24.032H122.529L122.421 23.72C122.653 23.512 122.917 23.34 123.213 23.204C123.517 23.068 123.781 23 124.005 23C124.117 23 124.209 23.036 124.281 23.108C124.353 23.18 124.389 23.272 124.389 23.384V24.668H124.461ZM130.672 32.336C130.232 32.336 129.856 32.252 129.544 32.084C129.232 31.924 129 31.712 128.848 31.448C128.696 31.192 128.62 30.916 128.62 30.62C128.62 30.22 128.756 29.876 129.028 29.588C129.3 29.308 129.672 29.168 130.144 29.168C130.224 29.168 130.28 29.18 130.312 29.204C130.352 29.236 130.372 29.268 130.372 29.3C130.372 29.332 130.316 29.408 130.204 29.528C130.092 29.648 129.992 29.792 129.904 29.96C129.824 30.128 129.784 30.34 129.784 30.596C129.784 30.916 129.876 31.18 130.06 31.388C130.252 31.604 130.508 31.712 130.828 31.712C131.324 31.712 131.688 31.508 131.92 31.1C132.152 30.692 132.268 30.144 132.268 29.456V27.68C132.084 28.032 131.808 28.312 131.44 28.52C131.072 28.72 130.668 28.82 130.228 28.82C129.66 28.82 129.216 28.648 128.896 28.304C128.576 27.952 128.416 27.46 128.416 26.828V24.164C128.416 24.068 128.396 24 128.356 23.96C128.324 23.92 128.264 23.9 128.176 23.9H127.648L127.54 23.588C127.748 23.38 128 23.208 128.296 23.072C128.6 22.936 128.876 22.868 129.124 22.868C129.236 22.868 129.328 22.904 129.4 22.976C129.472 23.048 129.508 23.14 129.508 23.252V26.552C129.508 27.032 129.604 27.396 129.796 27.644C129.988 27.892 130.268 28.016 130.636 28.016C131.172 28.016 131.588 27.816 131.884 27.416C132.188 27.008 132.34 26.448 132.34 25.736C132.34 25.08 132.312 24.592 132.256 24.272C132.2 23.952 132.072 23.66 131.872 23.396L131.728 23.204L131.872 23.024L133.336 22.868V29.264C133.336 30.248 133.096 31.004 132.616 31.532C132.144 32.068 131.496 32.336 130.672 32.336Z" fill="black"/>
<path d="M73.34 43.592L73.616 43.52C73.808 43.472 73.944 43.408 74.024 43.328C74.112 43.248 74.156 43.136 74.156 42.992C74.156 42.864 74.112 42.668 74.024 42.404L73.448 40.724H70.676L70.388 41.6C70.204 42.152 70.112 42.572 70.112 42.86C70.112 43.132 70.168 43.376 70.28 43.592L70.388 43.808L70.16 44H67.952L67.808 43.592L68.084 43.52C68.404 43.432 68.636 43.316 68.78 43.172C68.924 43.028 69.06 42.772 69.188 42.404L71.072 36.98C71.16 36.716 71.204 36.52 71.204 36.392C71.204 36.248 71.16 36.136 71.072 36.056C70.992 35.976 70.856 35.912 70.664 35.864L70.388 35.792L70.532 35.384H72.848L75.26 42.344C75.388 42.712 75.528 42.992 75.68 43.184C75.832 43.376 76.052 43.584 76.34 43.808L76.184 44H73.484L73.34 43.592ZM70.928 39.98H73.196L72.044 36.62L70.928 39.98ZM78.7287 42.944C78.7287 43.216 78.8487 43.352 79.0887 43.352C79.2887 43.352 79.4887 43.268 79.6887 43.1L79.9167 43.412C79.7087 43.644 79.4847 43.828 79.2447 43.964C79.0047 44.1 78.7807 44.168 78.5727 44.168C78.2447 44.168 78.0087 44.068 77.8647 43.868C77.7207 43.668 77.6487 43.344 77.6487 42.896V35.912C77.6487 35.816 77.6287 35.748 77.5887 35.708C77.5567 35.668 77.4967 35.648 77.4087 35.648H76.8807L76.7727 35.336C77.0047 35.128 77.2687 34.956 77.5647 34.82C77.8607 34.684 78.1247 34.616 78.3567 34.616C78.4687 34.616 78.5607 34.652 78.6327 34.724C78.7047 34.796 78.7407 34.888 78.7407 35L78.7287 42.944ZM83.9338 38.036C83.9338 38.204 83.9098 38.356 83.8618 38.492C83.8138 38.628 83.7458 38.728 83.6578 38.792H82.3738V42.656C82.3738 42.904 82.4098 43.08 82.4818 43.184C82.5538 43.288 82.6698 43.34 82.8298 43.34C83.0698 43.34 83.3418 43.212 83.6458 42.956L83.8738 43.268C83.6658 43.54 83.4178 43.76 83.1298 43.928C82.8418 44.088 82.5698 44.168 82.3138 44.168C81.9858 44.168 81.7298 44.068 81.5458 43.868C81.3698 43.66 81.2818 43.376 81.2818 43.016V38.792H80.2258C80.2258 38.576 80.2418 38.436 80.2738 38.372C80.3058 38.308 80.3858 38.26 80.5138 38.228C80.9378 38.116 81.2378 37.936 81.4138 37.688C81.5978 37.432 81.7298 37.104 81.8098 36.704C81.8338 36.576 81.8738 36.496 81.9298 36.464C81.9938 36.432 82.1418 36.416 82.3738 36.416V38.036H83.9338ZM89.8596 43.1C89.5636 43.444 89.2116 43.708 88.8036 43.892C88.3956 44.076 87.9556 44.168 87.4836 44.168C86.9316 44.168 86.4476 44.04 86.0316 43.784C85.6156 43.528 85.2916 43.168 85.0596 42.704C84.8356 42.24 84.7236 41.704 84.7236 41.096C84.7236 40.456 84.8516 39.896 85.1076 39.416C85.3636 38.928 85.7236 38.552 86.1876 38.288C86.6596 38.016 87.2076 37.88 87.8316 37.88C88.2716 37.88 88.6436 37.964 88.9476 38.132C89.2596 38.292 89.4916 38.508 89.6436 38.78C89.7956 39.044 89.8716 39.332 89.8716 39.644C89.8716 39.98 89.7796 40.304 89.5956 40.616C89.4196 40.928 89.1596 41.184 88.8156 41.384C88.4716 41.576 88.0596 41.672 87.5796 41.672C87.3236 41.672 87.0396 41.624 86.7276 41.528C86.4156 41.432 86.2596 41.292 86.2596 41.108C86.2596 41.044 86.2756 40.984 86.3076 40.928C86.3476 40.872 86.3916 40.844 86.4396 40.844C86.4636 40.844 86.5436 40.872 86.6796 40.928C86.8156 40.976 86.9916 41 87.2076 41C87.6876 41 88.0596 40.864 88.3236 40.592C88.5956 40.32 88.7316 40 88.7316 39.632C88.7316 39.32 88.6316 39.052 88.4316 38.828C88.2316 38.596 87.9516 38.48 87.5916 38.48C87.0796 38.48 86.6796 38.708 86.3916 39.164C86.1036 39.612 85.9596 40.256 85.9596 41.096C85.9596 41.808 86.1116 42.368 86.4156 42.776C86.7196 43.176 87.1596 43.376 87.7356 43.376C88.4396 43.376 89.0236 43.148 89.4876 42.692C89.5196 42.66 89.5556 42.644 89.5956 42.644C89.6596 42.644 89.7276 42.684 89.7996 42.764C89.8716 42.836 89.9076 42.912 89.9076 42.992C89.9076 43.032 89.8916 43.068 89.8596 43.1ZM93.0552 39.668C93.1912 39.132 93.3992 38.7 93.6792 38.372C93.9672 38.044 94.2792 37.88 94.6152 37.88C94.9512 37.88 95.2272 37.992 95.4432 38.216C95.6672 38.432 95.7792 38.728 95.7792 39.104C95.7792 39.408 95.6672 39.664 95.4432 39.872C95.2192 40.08 94.9392 40.184 94.6032 40.184C94.4512 40.184 94.3752 40.14 94.3752 40.052C94.3752 40.028 94.4072 39.968 94.4712 39.872C94.5432 39.776 94.5992 39.676 94.6392 39.572C94.6872 39.468 94.7112 39.352 94.7112 39.224C94.7112 39.08 94.6712 38.968 94.5912 38.888C94.5192 38.8 94.4272 38.756 94.3152 38.756C94.1232 38.756 93.9232 38.872 93.7152 39.104C93.5152 39.328 93.3432 39.696 93.1992 40.208C93.0552 40.712 92.9832 41.352 92.9832 42.128C92.9832 42.488 93.0112 42.78 93.0672 43.004C93.1232 43.22 93.2232 43.428 93.3672 43.628L93.5112 43.82L93.3672 44H91.2672L91.1352 43.628L91.3872 43.568C91.5872 43.52 91.7192 43.436 91.7832 43.316C91.8552 43.188 91.8912 42.972 91.8912 42.668V39.296C91.8912 39.2 91.8712 39.132 91.8312 39.092C91.7992 39.052 91.7392 39.032 91.6512 39.032H91.1232L91.0152 38.72C91.2472 38.512 91.5112 38.34 91.8072 38.204C92.1112 38.068 92.3752 38 92.5992 38C92.7112 38 92.8032 38.036 92.8752 38.108C92.9472 38.18 92.9832 38.272 92.9832 38.384V39.668H93.0552ZM98.2214 42.08C98.2214 42.456 98.2494 42.756 98.3054 42.98C98.3614 43.204 98.4614 43.42 98.6054 43.628L98.7494 43.82L98.6054 44H96.5054L96.3734 43.628L96.6254 43.568C96.8254 43.52 96.9574 43.436 97.0214 43.316C97.0934 43.188 97.1294 42.972 97.1294 42.668V39.296C97.1294 39.2 97.1094 39.132 97.0694 39.092C97.0374 39.052 96.9774 39.032 96.8894 39.032H96.3614L96.2534 38.72C96.4854 38.512 96.7494 38.34 97.0454 38.204C97.3494 38.068 97.6134 38 97.8374 38C97.9494 38 98.0414 38.036 98.1134 38.108C98.1854 38.18 98.2214 38.272 98.2214 38.384V39.668C98.4294 39.148 98.7414 38.72 99.1574 38.384C99.5734 38.048 100.009 37.88 100.465 37.88C101.025 37.88 101.433 38.052 101.689 38.396C101.945 38.74 102.073 39.288 102.073 40.04V42.944C102.073 43.216 102.193 43.352 102.433 43.352C102.617 43.352 102.817 43.268 103.033 43.1L103.261 43.412C103.053 43.644 102.829 43.828 102.589 43.964C102.349 44.1 102.125 44.168 101.917 44.168C101.589 44.168 101.353 44.068 101.209 43.868C101.065 43.668 100.993 43.344 100.993 42.896V40.04C100.993 39.224 100.649 38.816 99.9614 38.816C99.6174 38.816 99.3134 38.952 99.0494 39.224C98.7934 39.496 98.5894 39.88 98.4374 40.376C98.2934 40.872 98.2214 41.44 98.2214 42.08ZM108.308 42.896C107.98 43.36 107.644 43.688 107.3 43.88C106.956 44.072 106.584 44.168 106.184 44.168C105.8 44.168 105.444 44.06 105.116 43.844C104.788 43.62 104.524 43.288 104.324 42.848C104.132 42.408 104.036 41.876 104.036 41.252C104.036 40.564 104.16 39.968 104.408 39.464C104.664 38.952 105.024 38.56 105.488 38.288C105.96 38.016 106.512 37.88 107.144 37.88C107.456 37.88 107.896 37.932 108.464 38.036C108.944 38.116 109.304 38.164 109.544 38.18L109.676 38.336L109.532 38.552C109.476 38.632 109.436 38.708 109.412 38.78C109.388 38.844 109.376 38.924 109.376 39.02V42.944C109.376 43.192 109.496 43.316 109.736 43.316C109.936 43.316 110.136 43.244 110.336 43.1L110.564 43.412C110.356 43.644 110.132 43.828 109.892 43.964C109.652 44.1 109.432 44.168 109.232 44.168C108.904 44.168 108.668 44.068 108.524 43.868C108.38 43.668 108.308 43.344 108.308 42.896ZM105.296 41.024C105.296 41.784 105.424 42.344 105.68 42.704C105.944 43.064 106.272 43.244 106.664 43.244C106.984 43.244 107.284 43.156 107.564 42.98C107.844 42.796 108.092 42.52 108.308 42.152V38.912C107.94 38.664 107.548 38.54 107.132 38.54C106.548 38.54 106.096 38.76 105.776 39.2C105.456 39.632 105.296 40.24 105.296 41.024ZM114.578 38.036C114.578 38.204 114.554 38.356 114.506 38.492C114.458 38.628 114.39 38.728 114.302 38.792H113.018V42.656C113.018 42.904 113.054 43.08 113.126 43.184C113.198 43.288 113.314 43.34 113.474 43.34C113.714 43.34 113.986 43.212 114.29 42.956L114.518 43.268C114.31 43.54 114.062 43.76 113.774 43.928C113.486 44.088 113.214 44.168 112.958 44.168C112.63 44.168 112.374 44.068 112.19 43.868C112.014 43.66 111.926 43.376 111.926 43.016V38.792H110.87C110.87 38.576 110.886 38.436 110.918 38.372C110.95 38.308 111.03 38.26 111.158 38.228C111.582 38.116 111.882 37.936 112.058 37.688C112.242 37.432 112.374 37.104 112.454 36.704C112.478 36.576 112.518 36.496 112.574 36.464C112.638 36.432 112.786 36.416 113.018 36.416V38.036H114.578ZM115.932 36.104C115.932 35.952 116.016 35.784 116.184 35.6C116.36 35.408 116.52 35.312 116.664 35.312C116.816 35.312 116.98 35.404 117.156 35.588C117.332 35.772 117.42 35.944 117.42 36.104C117.42 36.256 117.332 36.424 117.156 36.608C116.98 36.792 116.816 36.884 116.664 36.884C116.528 36.884 116.372 36.792 116.196 36.608C116.02 36.424 115.932 36.256 115.932 36.104ZM117.204 42.944C117.204 43.216 117.324 43.352 117.564 43.352C117.764 43.352 117.964 43.268 118.164 43.1L118.392 43.412C118.184 43.644 117.96 43.828 117.72 43.964C117.48 44.1 117.256 44.168 117.048 44.168C116.72 44.168 116.484 44.068 116.34 43.868C116.196 43.668 116.124 43.344 116.124 42.896V39.176C116.124 39.08 116.104 39.012 116.064 38.972C116.032 38.932 115.972 38.912 115.884 38.912H115.356L115.248 38.6C115.48 38.392 115.744 38.22 116.04 38.084C116.336 37.948 116.6 37.88 116.832 37.88C116.944 37.88 117.036 37.916 117.108 37.988C117.18 38.06 117.216 38.152 117.216 38.264L117.204 42.944ZM121.914 43.388C122.41 43.388 122.786 43.104 123.042 42.536C123.306 41.968 123.438 41.28 123.438 40.472C123.438 40.088 123.394 39.716 123.306 39.356C123.218 38.996 123.086 38.676 122.91 38.396L122.79 38.204L122.934 38.048L124.362 37.88C124.402 38.376 124.422 38.8 124.422 39.152C124.422 40.216 124.302 41.128 124.062 41.888C123.822 42.64 123.498 43.208 123.09 43.592C122.69 43.976 122.254 44.168 121.782 44.168C121.366 44.168 121.03 44.092 120.774 43.94C120.526 43.78 120.326 43.528 120.174 43.184C120.022 42.832 119.902 42.344 119.814 41.72L119.442 39.176C119.426 39.072 119.402 39.004 119.37 38.972C119.338 38.932 119.282 38.912 119.202 38.912H118.674L118.566 38.6C118.774 38.392 119.022 38.22 119.31 38.084C119.598 37.948 119.854 37.88 120.078 37.88C120.294 37.88 120.422 38.008 120.462 38.264L121.002 42.008C121.074 42.504 121.178 42.86 121.314 43.076C121.45 43.284 121.65 43.388 121.914 43.388ZM130.875 43.1C130.579 43.444 130.227 43.708 129.819 43.892C129.411 44.076 128.971 44.168 128.499 44.168C127.947 44.168 127.463 44.04 127.047 43.784C126.631 43.528 126.307 43.168 126.075 42.704C125.851 42.24 125.739 41.704 125.739 41.096C125.739 40.456 125.867 39.896 126.123 39.416C126.379 38.928 126.739 38.552 127.203 38.288C127.675 38.016 128.223 37.88 128.847 37.88C129.287 37.88 129.659 37.964 129.963 38.132C130.275 38.292 130.507 38.508 130.659 38.78C130.811 39.044 130.887 39.332 130.887 39.644C130.887 39.98 130.795 40.304 130.611 40.616C130.435 40.928 130.175 41.184 129.831 41.384C129.487 41.576 129.075 41.672 128.595 41.672C128.339 41.672 128.055 41.624 127.743 41.528C127.431 41.432 127.275 41.292 127.275 41.108C127.275 41.044 127.291 40.984 127.323 40.928C127.363 40.872 127.407 40.844 127.455 40.844C127.479 40.844 127.559 40.872 127.695 40.928C127.831 40.976 128.007 41 128.223 41C128.703 41 129.075 40.864 129.339 40.592C129.611 40.32 129.747 40 129.747 39.632C129.747 39.32 129.647 39.052 129.447 38.828C129.247 38.596 128.967 38.48 128.607 38.48C128.095 38.48 127.695 38.708 127.407 39.164C127.119 39.612 126.975 40.256 126.975 41.096C126.975 41.808 127.127 42.368 127.431 42.776C127.735 43.176 128.175 43.376 128.751 43.376C129.455 43.376 130.039 43.148 130.503 42.692C130.535 42.66 130.571 42.644 130.611 42.644C130.675 42.644 130.743 42.684 130.815 42.764C130.887 42.836 130.923 42.912 130.923 42.992C130.923 43.032 130.907 43.068 130.875 43.1Z" fill="black"/>
<mask id="path-3-inside-1" fill="white">
<path fill-rule="evenodd" clip-rule="evenodd" d="M69.9657 59.9978C60.9052 54.2922 54.2848 44.8267 52.557 33.4092C51.0823 23.6647 53.4325 14.224 58.4839 6.61167C50.2787 1.44941 40.1154 -0.60756 29.9036 1.65722C9.32983 6.22009 -3.64956 26.5974 0.91332 47.1711C5.4762 67.7449 25.8535 80.7243 46.4272 76.1614C56.4674 73.9347 64.6989 67.9418 69.9657 59.9978Z"/>
</mask>
<path fill-rule="evenodd" clip-rule="evenodd" d="M69.9657 59.9978C60.9052 54.2922 54.2848 44.8267 52.557 33.4092C51.0823 23.6647 53.4325 14.224 58.4839 6.61167C50.2787 1.44941 40.1154 -0.60756 29.9036 1.65722C9.32983 6.22009 -3.64956 26.5974 0.91332 47.1711C5.4762 67.7449 25.8535 80.7243 46.4272 76.1614C56.4674 73.9347 64.6989 67.9418 69.9657 59.9978Z" fill="#28113C"/>
<path d="M69.9657 59.9978L70.7991 60.5504L71.3648 59.6971L70.4985 59.1516L69.9657 59.9978ZM52.557 33.4092L51.5682 33.5588L51.5682 33.5588L52.557 33.4092ZM58.4839 6.61167L59.3171 7.16459L59.8836 6.31087L59.0164 5.76526L58.4839 6.61167ZM29.9036 1.65722L29.6871 0.680938L29.9036 1.65722ZM0.91332 47.1711L-0.062958 47.3877L0.91332 47.1711ZM46.4272 76.1614L46.2107 75.1851L46.2107 75.1851L46.4272 76.1614ZM70.4985 59.1516C61.6735 53.5943 55.2282 44.3777 53.5457 33.2596L51.5682 33.5588C53.3414 45.2758 60.1368 54.9901 69.4328 60.844L70.4985 59.1516ZM53.5457 33.2596C52.1096 23.7699 54.3976 14.5782 59.3171 7.16459L57.6506 6.05876C52.4674 13.8698 50.055 23.5596 51.5682 33.5588L53.5457 33.2596ZM30.1201 2.63349C40.0646 0.428004 49.96 2.43032 57.9513 7.45809L59.0164 5.76526C50.5974 0.468491 40.1662 -1.64312 29.6871 0.680938L30.1201 2.63349ZM1.8896 46.9546C-2.5537 26.92 10.0855 7.07679 30.1201 2.63349L29.6871 0.680938C8.57413 5.3634 -4.74542 26.2747 -0.062958 47.3877L1.8896 46.9546ZM46.2107 75.1851C26.1761 79.6284 6.33289 66.9892 1.8896 46.9546L-0.062958 47.3877C4.6195 68.5006 25.5308 81.8202 46.6438 77.1377L46.2107 75.1851ZM69.1322 59.4452C64.0027 67.1822 55.9881 73.0167 46.2107 75.1851L46.6438 77.1377C56.9466 74.8527 65.395 68.7015 70.7991 60.5504L69.1322 59.4452Z" fill="#333333" mask="url(#path-3-inside-1)"/>
<rect x="20.5151" y="46.3077" width="10.0834" height="33.8944" rx="3.75" transform="rotate(-68.6287 20.5151 46.3077)" fill="#EA1AB0" stroke="#E5E5E5" stroke-width="1.5"/>
<rect x="17.3839" y="57.8759" width="9.5834" height="30.7749" rx="3.5" transform="rotate(-68.6287 17.3839 57.8759)" fill="#EA1AB0" stroke="#E5E5E5"/>
<path fill-rule="evenodd" clip-rule="evenodd" d="M31.8035 12.8628C33.1345 12.8691 34.4347 12.9856 35.692 13.2021C27.509 15.1698 21.5191 21.3882 21.4844 28.7831C21.466 32.6942 23.1164 36.2918 25.8834 39.116L23.5003 45.2058L25.5807 46.0199C17.5075 43.8 11.6813 37.3467 11.7169 29.7593C11.761 20.3757 20.7541 12.8109 31.8035 12.8628Z" fill="#EA1AB0"/>
<path fill-rule="evenodd" clip-rule="evenodd" d="M29.453 11.874C30.8531 11.8201 32.2258 11.8836 33.558 12.0543C25.0421 14.495 19.0254 21.3061 19.3246 29.0841C19.4816 33.1678 21.3541 36.8521 24.3534 39.6882L22.0701 46.357C14.6793 43.8267 9.3754 37.7899 9.09711 30.5538C8.71755 20.6842 17.8312 12.3209 29.453 11.874Z" fill="#EA1AB0"/>
<path d="M33.558 12.0543L33.8335 13.0156L33.6851 11.0624L33.558 12.0543ZM29.453 11.874L29.4145 10.8747L29.453 11.874ZM19.3246 29.0841L18.3253 29.1225L18.3253 29.1225L19.3246 29.0841ZM24.3534 39.6882L25.2994 40.0121L25.5078 39.4035L25.0404 38.9616L24.3534 39.6882ZM22.0701 46.357L21.7462 47.3031L22.6923 47.627L23.0162 46.6809L22.0701 46.357ZM9.09711 30.5538L10.0964 30.5154L9.09711 30.5538ZM33.6851 11.0624C32.298 10.8847 30.87 10.8187 29.4145 10.8747L29.4914 12.8732C30.8363 12.8215 32.1536 12.8826 33.431 13.0462L33.6851 11.0624ZM20.3238 29.0457C20.0472 21.8524 25.6279 15.3673 33.8335 13.0156L33.2825 11.093C24.4563 13.6226 18.0037 20.7597 18.3253 29.1225L20.3238 29.0457ZM25.0404 38.9616C22.2053 36.2807 20.4695 32.8344 20.3238 29.0457L18.3253 29.1225C18.4937 33.5013 20.5028 37.4235 23.6663 40.4148L25.0404 38.9616ZM23.0162 46.6809L25.2994 40.0121L23.4073 39.3643L21.1241 46.0331L23.0162 46.6809ZM8.09785 30.5922C8.39542 38.3298 14.0553 44.67 21.7462 47.3031L22.394 45.4109C15.3033 42.9833 10.3554 37.25 10.0964 30.5154L8.09785 30.5922ZM29.4145 10.8747C17.4002 11.3368 7.69141 20.0238 8.09785 30.5922L10.0964 30.5154C9.74368 21.3445 18.2621 13.3051 29.4914 12.8732L29.4145 10.8747Z" fill="#E5E5E5"/>
<path fill-rule="evenodd" clip-rule="evenodd" d="M28.6777 11.6545C30.067 11.4723 31.4397 11.4095 32.7819 11.4571C24.5259 14.6694 19.1601 22.0043 20.1722 29.7221C20.7036 33.7742 22.9066 37.271 26.1537 39.8197L24.4926 46.6698C16.9007 44.8288 11.0649 39.3046 10.1233 32.1247C8.83897 22.3317 17.1461 13.1668 28.6777 11.6545Z" fill="#EA1AB0"/>
<path d="M34.5199 38.0221C51.4361 28.6218 40.6249 8.88123 22.9841 16.1363" stroke="#E5E5E5" stroke-width="9"/>
</svg>
