<svg width="100" height="49" viewBox="0 0 100 49" fill="none" xmlns="http://www.w3.org/2000/svg">
<path d="M33.2783 20.7957C34.3836 28.0053 38.5408 34.0113 44.2536 37.7291C40.9305 42.454 35.8669 46.0055 29.7266 47.3497C16.7695 50.1863 3.94528 42.1161 1.07473 29.3397C-1.79533 16.5654 6.3675 3.90396 19.3226 1.06776C25.572 -0.300375 31.7913 0.868621 36.8785 3.8807C33.7647 8.73087 32.3393 14.6709 33.2783 20.7957Z" fill="#28113C" stroke="#333333"/>
<rect x="-1.29453" y="0.566341" width="7.10253" height="21.2215" rx="3.55127" transform="matrix(0.363609 -0.931554 0.930922 0.365213 11.3941 25.9961)" fill="#EA1AB0" stroke="#E5E5E5" stroke-width="2"/>
<rect x="-1.29453" y="0.566341" width="7.10253" height="19.6672" rx="3.55127" transform="matrix(0.363609 -0.931554 0.930922 0.365213 9.34475 32.9595)" fill="#EA1AB0" stroke="#E5E5E5" stroke-width="2"/>
<path fill-rule="evenodd" clip-rule="evenodd" d="M18.8643 7.20677C19.6539 7.21049 20.4252 7.27978 21.1711 7.40856C16.3172 8.5787 12.7643 12.2766 12.7436 16.6741C12.7328 18.9998 13.7116 21.1392 15.3528 22.8186L13.9392 26.4403L15.1717 26.9238C10.3838 25.6033 6.92861 21.766 6.94975 17.2545C6.9759 11.6744 12.3102 7.1759 18.8643 7.20677Z" fill="#EA1AB0"/>
<path fill-rule="evenodd" clip-rule="evenodd" d="M17.4706 6.61878C18.3011 6.58676 19.1153 6.62453 19.9055 6.72599C14.8543 8.17741 11.2855 12.2277 11.4629 16.853C11.5561 19.2814 12.6667 21.4722 14.4456 23.1587L13.0912 27.1246C8.70737 25.6199 5.56142 22.03 5.39635 17.727C5.17121 11.8579 10.577 6.88456 17.4706 6.61878Z" fill="#EA1AB0"/>
<path d="M19.9055 6.72599L20.1815 7.68711L20.0331 5.73413L19.9055 6.72599ZM17.4706 6.61878L17.4323 5.61951L17.4706 6.61878ZM11.4629 16.853L12.4622 16.8145L11.4629 16.853ZM14.4456 23.1587L15.3919 23.4817L15.5993 22.8744L15.1337 22.4329L14.4456 23.1587ZM13.0912 27.1246L12.7664 28.0705L13.7138 28.3956L14.0375 27.4476L13.0912 27.1246ZM5.39635 17.727L4.3971 17.7656L5.39635 17.727ZM20.0331 5.73413C19.1879 5.6256 18.3182 5.58535 17.4323 5.61951L17.5089 7.61805C18.284 7.58816 19.0427 7.62345 19.7779 7.71786L20.0331 5.73413ZM12.4622 16.8145C12.3071 12.7722 15.442 9.04894 20.1815 7.68711L19.6295 5.76488C14.2665 7.30588 10.2639 11.6832 10.4637 16.8916L12.4622 16.8145ZM15.1337 22.4329C13.5187 20.9018 12.5441 18.9487 12.4622 16.8145L10.4637 16.8916C10.5681 19.6141 11.8146 22.0426 13.7575 23.8845L15.1337 22.4329ZM14.0375 27.4476L15.3919 23.4817L13.4993 22.8357L12.1449 26.8016L14.0375 27.4476ZM4.3971 17.7656C4.58134 22.5685 8.0815 26.4624 12.7664 28.0705L13.416 26.1787C9.33325 24.7773 6.54149 21.4915 6.39561 17.6885L4.3971 17.7656ZM17.4323 5.61951C10.1437 5.90053 4.14523 11.1998 4.3971 17.7656L6.39561 17.6885C6.19719 12.516 11.0104 7.8686 17.5089 7.61805L17.4323 5.61951Z" fill="#E5E5E5"/>
<path fill-rule="evenodd" clip-rule="evenodd" d="M17.0107 6.48811C17.8347 6.37978 18.6488 6.34242 19.4448 6.37068C14.5479 8.28102 11.3652 12.6428 11.9655 17.2322C12.2807 19.6419 13.5875 21.7213 15.5136 23.2369L14.5282 27.3105C10.0251 26.2157 6.56355 22.9307 6.00503 18.6611C5.24323 12.8375 10.1706 7.38743 17.0107 6.48811Z" fill="#EA1AB0"/>
<path d="M20.4759 22.1681C30.5099 16.5781 24.0971 4.83901 13.6334 9.15333" stroke="#E5E5E5" stroke-width="6"/>
<path d="M43.21 20.74C42.9367 21.0067 42.63 21.14 42.29 21.14C41.9633 21.14 41.7 21.0467 41.5 20.86C41.3 20.6733 41.1033 20.3767 40.91 19.97L40.15 18.36C40.09 18.2267 40.0133 18.13 39.92 18.07C39.8333 18.01 39.6833 17.94 39.47 17.86C39.3433 17.8133 39.28 17.7367 39.28 17.63C39.28 17.5633 39.2933 17.5067 39.32 17.46C39.3467 17.4133 39.3867 17.39 39.44 17.39C39.4667 17.39 39.52 17.4033 39.6 17.43C39.6867 17.45 39.7967 17.46 39.93 17.46C40.43 17.46 40.82 17.32 41.1 17.04C41.38 16.7533 41.52 16.3733 41.52 15.9C41.52 15.4133 41.37 15.0167 41.07 14.71C40.7767 14.3967 40.36 14.24 39.82 14.24C39.3133 14.24 39.06 14.3933 39.06 14.7V18.99C39.06 19.39 39.0933 19.7133 39.16 19.96C39.2267 20.2 39.3433 20.4333 39.51 20.66L39.64 20.84L39.51 21H37.32L37.2 20.66L37.43 20.6C37.6833 20.5333 37.8533 20.4367 37.94 20.31C38.0267 20.1833 38.07 19.97 38.07 19.67V14.73C38.07 14.6433 38.0533 14.5833 38.02 14.55C37.9867 14.51 37.93 14.49 37.85 14.49H37.27L37.15 14.12C37.4367 14.0067 37.8133 13.9067 38.28 13.82C38.7533 13.7267 39.2067 13.68 39.64 13.68C40.6267 13.68 41.36 13.8833 41.84 14.29C42.32 14.6967 42.56 15.2233 42.56 15.87C42.56 16.3633 42.4233 16.7933 42.15 17.16C41.8767 17.5267 41.4733 17.7733 40.94 17.9C41.0867 18 41.22 18.1633 41.34 18.39L42.27 20.28C42.3767 20.4867 42.5033 20.59 42.65 20.59C42.7767 20.59 42.9067 20.5433 43.04 20.45L43.21 20.74ZM48.5465 20.12C48.5465 20.3267 48.6432 20.43 48.8365 20.43C48.9898 20.43 49.1532 20.37 49.3265 20.25L49.5165 20.51C49.3632 20.6967 49.1832 20.85 48.9765 20.97C48.7765 21.0833 48.5898 21.14 48.4165 21.14C48.1498 21.14 47.9532 21.0633 47.8265 20.91C47.7065 20.7567 47.6465 20.5133 47.6465 20.18C47.4932 20.4733 47.2632 20.7067 46.9565 20.88C46.6565 21.0533 46.3232 21.14 45.9565 21.14C45.4765 21.14 45.0998 20.9967 44.8265 20.71C44.5598 20.4167 44.4265 20.0067 44.4265 19.48V16.98C44.4265 16.8333 44.3598 16.76 44.2265 16.76H43.7865L43.6965 16.5C43.8698 16.3267 44.0798 16.1833 44.3265 16.07C44.5798 15.9567 44.8098 15.9 45.0165 15.9C45.1098 15.9 45.1865 15.93 45.2465 15.99C45.3065 16.05 45.3365 16.1267 45.3365 16.22V19.25C45.3365 19.65 45.4165 19.9533 45.5765 20.16C45.7432 20.3667 45.9832 20.47 46.2965 20.47C46.7432 20.47 47.0898 20.2767 47.3365 19.89C47.5898 19.5033 47.7165 18.97 47.7165 18.29C47.7165 17.7967 47.6865 17.4133 47.6265 17.14C47.5732 16.86 47.4732 16.5933 47.3265 16.34L47.2065 16.18L47.3265 16.03L48.5465 15.9V20.12ZM54.6148 20.12C54.6148 20.3267 54.7148 20.43 54.9148 20.43C55.0815 20.43 55.2482 20.37 55.4148 20.25L55.6048 20.51C55.4315 20.7033 55.2448 20.8567 55.0448 20.97C54.8448 21.0833 54.6615 21.14 54.4948 21.14C54.2215 21.14 54.0248 21.0567 53.9048 20.89C53.7848 20.7233 53.7248 20.4533 53.7248 20.08C53.4515 20.4667 53.1715 20.74 52.8848 20.9C52.5982 21.06 52.2882 21.14 51.9548 21.14C51.6348 21.14 51.3382 21.05 51.0648 20.87C50.7915 20.6833 50.5715 20.4067 50.4048 20.04C50.2448 19.6733 50.1648 19.23 50.1648 18.71C50.1648 18.1367 50.2682 17.64 50.4748 17.22C50.6882 16.7933 50.9882 16.4667 51.3748 16.24C51.7682 16.0133 52.2282 15.9 52.7548 15.9C53.1015 15.9 53.4182 15.9433 53.7048 16.03V14.26C53.7048 14.18 53.6882 14.1233 53.6548 14.09C53.6282 14.0567 53.5782 14.04 53.5048 14.04H53.0648L52.9748 13.78C53.1682 13.6067 53.3882 13.4633 53.6348 13.35C53.8882 13.2367 54.1082 13.18 54.2948 13.18C54.3882 13.18 54.4648 13.21 54.5248 13.27C54.5848 13.33 54.6148 13.4067 54.6148 13.5V20.12ZM51.2148 18.52C51.2148 19.1533 51.3215 19.62 51.5348 19.92C51.7548 20.22 52.0282 20.37 52.3548 20.37C52.6215 20.37 52.8715 20.2967 53.1048 20.15C53.3382 19.9967 53.5448 19.7667 53.7248 19.46V16.76C53.4182 16.5533 53.0915 16.45 52.7448 16.45C52.2582 16.45 51.8815 16.6333 51.6148 17C51.3482 17.36 51.2148 17.8667 51.2148 18.52ZM56.67 14.42C56.67 14.2933 56.74 14.1533 56.88 14C57.0267 13.84 57.16 13.76 57.28 13.76C57.4067 13.76 57.5433 13.8367 57.69 13.99C57.8367 14.1433 57.91 14.2867 57.91 14.42C57.91 14.5467 57.8367 14.6867 57.69 14.84C57.5433 14.9933 57.4067 15.07 57.28 15.07C57.1667 15.07 57.0367 14.9933 56.89 14.84C56.7433 14.6867 56.67 14.5467 56.67 14.42ZM57.73 20.12C57.73 20.3467 57.83 20.46 58.03 20.46C58.1967 20.46 58.3633 20.39 58.53 20.25L58.72 20.51C58.5467 20.7033 58.36 20.8567 58.16 20.97C57.96 21.0833 57.7733 21.14 57.6 21.14C57.3267 21.14 57.13 21.0567 57.01 20.89C56.89 20.7233 56.83 20.4533 56.83 20.08V16.98C56.83 16.9 56.8133 16.8433 56.78 16.81C56.7533 16.7767 56.7033 16.76 56.63 16.76H56.19L56.1 16.5C56.2933 16.3267 56.5133 16.1833 56.76 16.07C57.0067 15.9567 57.2267 15.9 57.42 15.9C57.5133 15.9 57.59 15.93 57.65 15.99C57.71 16.05 57.74 16.1267 57.74 16.22L57.73 20.12ZM60.9052 19.4C60.9052 19.7133 60.9286 19.9633 60.9752 20.15C61.0219 20.3367 61.1052 20.5167 61.2252 20.69L61.3452 20.85L61.2252 21H59.4752L59.3652 20.69L59.5752 20.64C59.7419 20.6 59.8519 20.53 59.9052 20.43C59.9652 20.3233 59.9952 20.1433 59.9952 19.89V17.08C59.9952 17 59.9786 16.9433 59.9452 16.91C59.9186 16.8767 59.8686 16.86 59.7952 16.86H59.3552L59.2652 16.6C59.4586 16.4267 59.6786 16.2833 59.9252 16.17C60.1786 16.0567 60.3986 16 60.5852 16C60.6786 16 60.7552 16.03 60.8152 16.09C60.8752 16.15 60.9052 16.2267 60.9052 16.32V17.39C61.0786 16.95 61.3319 16.5933 61.6652 16.32C61.9986 16.04 62.3486 15.9 62.7152 15.9C63.1219 15.9 63.4286 16.02 63.6352 16.26C63.8419 16.5 63.9619 16.8767 63.9952 17.39C64.1686 16.95 64.4219 16.5933 64.7552 16.32C65.0886 16.04 65.4386 15.9 65.8052 15.9C66.2519 15.9 66.5752 16.0433 66.7752 16.33C66.9819 16.6167 67.0852 17.0733 67.0852 17.7V20.12C67.0852 20.3467 67.1852 20.46 67.3852 20.46C67.5386 20.46 67.7052 20.39 67.8852 20.25L68.0752 20.51C67.9019 20.7033 67.7152 20.8567 67.5152 20.97C67.3152 21.0833 67.1286 21.14 66.9552 21.14C66.6819 21.14 66.4852 21.0567 66.3652 20.89C66.2452 20.7233 66.1852 20.4533 66.1852 20.08V17.7C66.1852 17.02 65.9386 16.68 65.4452 16.68C65.1652 16.68 64.9186 16.79 64.7052 17.01C64.4919 17.2233 64.3219 17.5267 64.1952 17.92C64.0686 18.3133 64.0019 18.7667 63.9952 19.28V19.4C63.9952 19.7467 64.0219 20.0233 64.0752 20.23C64.1352 20.43 64.2552 20.6367 64.4352 20.85L64.3152 21H63.0952V17.7C63.0952 17.02 62.8486 16.68 62.3552 16.68C62.0686 16.68 61.8152 16.7933 61.5952 17.02C61.3819 17.2467 61.2119 17.5667 61.0852 17.98C60.9652 18.3933 60.9052 18.8667 60.9052 19.4ZM73.0093 20.25C72.7626 20.5367 72.4693 20.7567 72.1293 20.91C71.7893 21.0633 71.4226 21.14 71.0293 21.14C70.5693 21.14 70.166 21.0333 69.8193 20.82C69.4726 20.6067 69.2026 20.3067 69.0093 19.92C68.8226 19.5333 68.7293 19.0867 68.7293 18.58C68.7293 18.0467 68.836 17.58 69.0493 17.18C69.2626 16.7733 69.5626 16.46 69.9493 16.24C70.3426 16.0133 70.7993 15.9 71.3193 15.9C71.686 15.9 71.996 15.97 72.2493 16.11C72.5093 16.2433 72.7026 16.4233 72.8293 16.65C72.956 16.87 73.0193 17.11 73.0193 17.37C73.0193 17.65 72.9426 17.92 72.7893 18.18C72.6426 18.44 72.426 18.6533 72.1393 18.82C71.8526 18.98 71.5093 19.06 71.1093 19.06C70.896 19.06 70.6593 19.02 70.3993 18.94C70.1393 18.86 70.0093 18.7433 70.0093 18.59C70.0093 18.5367 70.0226 18.4867 70.0493 18.44C70.0826 18.3933 70.1193 18.37 70.1593 18.37C70.1793 18.37 70.246 18.3933 70.3593 18.44C70.4726 18.48 70.6193 18.5 70.7993 18.5C71.1993 18.5 71.5093 18.3867 71.7293 18.16C71.956 17.9333 72.0693 17.6667 72.0693 17.36C72.0693 17.1 71.986 16.8767 71.8193 16.69C71.6526 16.4967 71.4193 16.4 71.1193 16.4C70.6926 16.4 70.3593 16.59 70.1193 16.97C69.8793 17.3433 69.7593 17.88 69.7593 18.58C69.7593 19.1733 69.886 19.64 70.1393 19.98C70.3926 20.3133 70.7593 20.48 71.2393 20.48C71.826 20.48 72.3126 20.29 72.6993 19.91C72.726 19.8833 72.756 19.87 72.7893 19.87C72.8426 19.87 72.8993 19.9033 72.9593 19.97C73.0193 20.03 73.0493 20.0933 73.0493 20.16C73.0493 20.1933 73.036 20.2233 73.0093 20.25ZM75.6123 19.4C75.6123 19.7133 75.6356 19.9633 75.6823 20.15C75.7289 20.3367 75.8123 20.5167 75.9323 20.69L76.0523 20.85L75.9323 21H74.1823L74.0723 20.69L74.2823 20.64C74.4489 20.6 74.5589 20.53 74.6123 20.43C74.6723 20.3233 74.7023 20.1433 74.7023 19.89V17.08C74.7023 17 74.6856 16.9433 74.6523 16.91C74.6256 16.8767 74.5756 16.86 74.5023 16.86H74.0623L73.9723 16.6C74.1656 16.4267 74.3856 16.2833 74.6323 16.17C74.8856 16.0567 75.1056 16 75.2923 16C75.3856 16 75.4623 16.03 75.5223 16.09C75.5823 16.15 75.6123 16.2267 75.6123 16.32V17.39C75.7856 16.9567 76.0456 16.6 76.3923 16.32C76.7389 16.04 77.1023 15.9 77.4823 15.9C77.9489 15.9 78.2889 16.0433 78.5023 16.33C78.7156 16.6167 78.8223 17.0733 78.8223 17.7V20.12C78.8223 20.3467 78.9223 20.46 79.1223 20.46C79.2756 20.46 79.4423 20.39 79.6223 20.25L79.8123 20.51C79.6389 20.7033 79.4523 20.8567 79.2523 20.97C79.0523 21.0833 78.8656 21.14 78.6923 21.14C78.4189 21.14 78.2223 21.0567 78.1023 20.89C77.9823 20.7233 77.9223 20.4533 77.9223 20.08V17.7C77.9223 17.02 77.6356 16.68 77.0623 16.68C76.7756 16.68 76.5223 16.7933 76.3023 17.02C76.0889 17.2467 75.9189 17.5667 75.7923 17.98C75.6723 18.3933 75.6123 18.8667 75.6123 19.4ZM83.2078 16.03C83.2078 16.17 83.1878 16.2967 83.1478 16.41C83.1078 16.5233 83.0511 16.6067 82.9778 16.66H81.9078V19.88C81.9078 20.0867 81.9378 20.2333 81.9978 20.32C82.0578 20.4067 82.1545 20.45 82.2878 20.45C82.4878 20.45 82.7145 20.3433 82.9678 20.13L83.1578 20.39C82.9845 20.6167 82.7778 20.8 82.5378 20.94C82.2978 21.0733 82.0711 21.14 81.8578 21.14C81.5845 21.14 81.3711 21.0567 81.2178 20.89C81.0711 20.7167 80.9978 20.48 80.9978 20.18V16.66H80.1178C80.1178 16.48 80.1311 16.3633 80.1578 16.31C80.1845 16.2567 80.2511 16.2167 80.3578 16.19C80.7111 16.0967 80.9611 15.9467 81.1078 15.74C81.2611 15.5267 81.3711 15.2533 81.4378 14.92C81.4578 14.8133 81.4911 14.7467 81.5378 14.72C81.5911 14.6933 81.7145 14.68 81.9078 14.68V16.03H83.2078ZM87.426 20.08C87.1527 20.4667 86.8727 20.74 86.586 20.9C86.2993 21.06 85.9893 21.14 85.656 21.14C85.336 21.14 85.0393 21.05 84.766 20.87C84.4927 20.6833 84.2727 20.4067 84.106 20.04C83.946 19.6733 83.866 19.23 83.866 18.71C83.866 18.1367 83.9693 17.64 84.176 17.22C84.3893 16.7933 84.6893 16.4667 85.076 16.24C85.4693 16.0133 85.9293 15.9 86.456 15.9C86.716 15.9 87.0827 15.9433 87.556 16.03C87.956 16.0967 88.256 16.1367 88.456 16.15L88.566 16.28L88.446 16.46C88.3993 16.5267 88.366 16.59 88.346 16.65C88.326 16.7033 88.316 16.77 88.316 16.85V20.12C88.316 20.3267 88.416 20.43 88.616 20.43C88.7827 20.43 88.9493 20.37 89.116 20.25L89.306 20.51C89.1327 20.7033 88.946 20.8567 88.746 20.97C88.546 21.0833 88.3627 21.14 88.196 21.14C87.9227 21.14 87.726 21.0567 87.606 20.89C87.486 20.7233 87.426 20.4533 87.426 20.08ZM84.916 18.52C84.916 19.1533 85.0227 19.62 85.236 19.92C85.456 20.22 85.7293 20.37 86.056 20.37C86.3227 20.37 86.5727 20.2967 86.806 20.15C87.0393 19.9967 87.246 19.7667 87.426 19.46V16.76C87.1193 16.5533 86.7927 16.45 86.446 16.45C85.9593 16.45 85.5827 16.6333 85.316 17C85.0493 17.36 84.916 17.8667 84.916 18.52ZM91.5512 17.39C91.6645 16.9433 91.8378 16.5833 92.0712 16.31C92.3112 16.0367 92.5712 15.9 92.8512 15.9C93.1312 15.9 93.3612 15.9933 93.5412 16.18C93.7278 16.36 93.8212 16.6067 93.8212 16.92C93.8212 17.1733 93.7278 17.3867 93.5412 17.56C93.3545 17.7333 93.1212 17.82 92.8412 17.82C92.7145 17.82 92.6512 17.7833 92.6512 17.71C92.6512 17.69 92.6778 17.64 92.7312 17.56C92.7912 17.48 92.8378 17.3967 92.8712 17.31C92.9112 17.2233 92.9312 17.1267 92.9312 17.02C92.9312 16.9 92.8978 16.8067 92.8312 16.74C92.7712 16.6667 92.6945 16.63 92.6012 16.63C92.4412 16.63 92.2745 16.7267 92.1012 16.92C91.9345 17.1067 91.7912 17.4133 91.6712 17.84C91.5512 18.26 91.4912 18.7933 91.4912 19.44C91.4912 19.74 91.5145 19.9833 91.5612 20.17C91.6078 20.35 91.6912 20.5233 91.8112 20.69L91.9312 20.85L91.8112 21H90.0612L89.9512 20.69L90.1612 20.64C90.3278 20.6 90.4378 20.53 90.4912 20.43C90.5512 20.3233 90.5812 20.1433 90.5812 19.89V17.08C90.5812 17 90.5645 16.9433 90.5312 16.91C90.5045 16.8767 90.4545 16.86 90.3812 16.86H89.9412L89.8512 16.6C90.0445 16.4267 90.2645 16.2833 90.5112 16.17C90.7645 16.0567 90.9845 16 91.1712 16C91.2645 16 91.3412 16.03 91.4012 16.09C91.4612 16.15 91.4912 16.2267 91.4912 16.32V17.39H91.5512ZM96.7264 23.78C96.3597 23.78 96.0464 23.71 95.7864 23.57C95.5264 23.4367 95.3331 23.26 95.2064 23.04C95.0797 22.8267 95.0164 22.5967 95.0164 22.35C95.0164 22.0167 95.1297 21.73 95.3564 21.49C95.5831 21.2567 95.8931 21.14 96.2864 21.14C96.3531 21.14 96.3997 21.15 96.4264 21.17C96.4597 21.1967 96.4764 21.2233 96.4764 21.25C96.4764 21.2767 96.4297 21.34 96.3364 21.44C96.2431 21.54 96.1597 21.66 96.0864 21.8C96.0197 21.94 95.9864 22.1167 95.9864 22.33C95.9864 22.5967 96.0631 22.8167 96.2164 22.99C96.3764 23.17 96.5897 23.26 96.8564 23.26C97.2697 23.26 97.5731 23.09 97.7664 22.75C97.9597 22.41 98.0564 21.9533 98.0564 21.38V19.9C97.9031 20.1933 97.6731 20.4267 97.3664 20.6C97.0597 20.7667 96.7231 20.85 96.3564 20.85C95.8831 20.85 95.5131 20.7067 95.2464 20.42C94.9797 20.1267 94.8464 19.7167 94.8464 19.19V16.97C94.8464 16.89 94.8297 16.8333 94.7964 16.8C94.7697 16.7667 94.7197 16.75 94.6464 16.75H94.2064L94.1164 16.49C94.2897 16.3167 94.4997 16.1733 94.7464 16.06C94.9997 15.9467 95.2297 15.89 95.4364 15.89C95.5297 15.89 95.6064 15.92 95.6664 15.98C95.7264 16.04 95.7564 16.1167 95.7564 16.21V18.96C95.7564 19.36 95.8364 19.6633 95.9964 19.87C96.1564 20.0767 96.3897 20.18 96.6964 20.18C97.1431 20.18 97.4897 20.0133 97.7364 19.68C97.9897 19.34 98.1164 18.8733 98.1164 18.28C98.1164 17.7333 98.0931 17.3267 98.0464 17.06C97.9997 16.7933 97.8931 16.55 97.7264 16.33L97.6064 16.17L97.7264 16.02L98.9464 15.89V21.22C98.9464 22.04 98.7464 22.67 98.3464 23.11C97.9531 23.5567 97.4131 23.78 96.7264 23.78Z" fill="black"/>
<path d="M47.45 30.66L47.68 30.6C47.84 30.56 47.9533 30.5067 48.02 30.44C48.0933 30.3733 48.13 30.28 48.13 30.16C48.13 30.0533 48.0933 29.89 48.02 29.67L47.54 28.27H45.23L44.99 29C44.8367 29.46 44.76 29.81 44.76 30.05C44.76 30.2767 44.8067 30.48 44.9 30.66L44.99 30.84L44.8 31H42.96L42.84 30.66L43.07 30.6C43.3367 30.5267 43.53 30.43 43.65 30.31C43.77 30.19 43.8833 29.9767 43.99 29.67L45.56 25.15C45.6333 24.93 45.67 24.7667 45.67 24.66C45.67 24.54 45.6333 24.4467 45.56 24.38C45.4933 24.3133 45.38 24.26 45.22 24.22L44.99 24.16L45.11 23.82H47.04L49.05 29.62C49.1567 29.9267 49.2733 30.16 49.4 30.32C49.5267 30.48 49.71 30.6533 49.95 30.84L49.82 31H47.57L47.45 30.66ZM45.44 27.65H47.33L46.37 24.85L45.44 27.65ZM51.9405 30.12C51.9405 30.3467 52.0405 30.46 52.2405 30.46C52.4072 30.46 52.5739 30.39 52.7405 30.25L52.9305 30.51C52.7572 30.7033 52.5705 30.8567 52.3705 30.97C52.1705 31.0833 51.9839 31.14 51.8105 31.14C51.5372 31.14 51.3405 31.0567 51.2205 30.89C51.1005 30.7233 51.0405 30.4533 51.0405 30.08V24.26C51.0405 24.18 51.0239 24.1233 50.9905 24.09C50.9639 24.0567 50.9139 24.04 50.8405 24.04H50.4005L50.3105 23.78C50.5039 23.6067 50.7239 23.4633 50.9705 23.35C51.2172 23.2367 51.4372 23.18 51.6305 23.18C51.7239 23.18 51.8005 23.21 51.8605 23.27C51.9205 23.33 51.9505 23.4067 51.9505 23.5L51.9405 30.12ZM56.2781 26.03C56.2781 26.17 56.2581 26.2967 56.2181 26.41C56.1781 26.5233 56.1215 26.6067 56.0481 26.66H54.9781V29.88C54.9781 30.0867 55.0081 30.2333 55.0681 30.32C55.1281 30.4067 55.2248 30.45 55.3581 30.45C55.5581 30.45 55.7848 30.3433 56.0381 30.13L56.2281 30.39C56.0548 30.6167 55.8481 30.8 55.6081 30.94C55.3681 31.0733 55.1415 31.14 54.9281 31.14C54.6548 31.14 54.4415 31.0567 54.2881 30.89C54.1415 30.7167 54.0681 30.48 54.0681 30.18V26.66H53.1881C53.1881 26.48 53.2015 26.3633 53.2281 26.31C53.2548 26.2567 53.3215 26.2167 53.4281 26.19C53.7815 26.0967 54.0315 25.9467 54.1781 25.74C54.3315 25.5267 54.4415 25.2533 54.5081 24.92C54.5281 24.8133 54.5615 24.7467 54.6081 24.72C54.6615 24.6933 54.7848 24.68 54.9781 24.68V26.03H56.2781ZM61.2163 30.25C60.9697 30.5367 60.6763 30.7567 60.3363 30.91C59.9963 31.0633 59.6297 31.14 59.2363 31.14C58.7763 31.14 58.373 31.0333 58.0263 30.82C57.6797 30.6067 57.4097 30.3067 57.2163 29.92C57.0297 29.5333 56.9363 29.0867 56.9363 28.58C56.9363 28.0467 57.043 27.58 57.2563 27.18C57.4697 26.7733 57.7697 26.46 58.1563 26.24C58.5497 26.0133 59.0063 25.9 59.5263 25.9C59.893 25.9 60.203 25.97 60.4563 26.11C60.7163 26.2433 60.9097 26.4233 61.0363 26.65C61.163 26.87 61.2263 27.11 61.2263 27.37C61.2263 27.65 61.1497 27.92 60.9963 28.18C60.8497 28.44 60.633 28.6533 60.3463 28.82C60.0597 28.98 59.7163 29.06 59.3163 29.06C59.103 29.06 58.8663 29.02 58.6063 28.94C58.3463 28.86 58.2163 28.7433 58.2163 28.59C58.2163 28.5367 58.2297 28.4867 58.2563 28.44C58.2897 28.3933 58.3263 28.37 58.3663 28.37C58.3863 28.37 58.453 28.3933 58.5663 28.44C58.6797 28.48 58.8263 28.5 59.0063 28.5C59.4063 28.5 59.7163 28.3867 59.9363 28.16C60.163 27.9333 60.2763 27.6667 60.2763 27.36C60.2763 27.1 60.193 26.8767 60.0263 26.69C59.8597 26.4967 59.6263 26.4 59.3263 26.4C58.8997 26.4 58.5663 26.59 58.3263 26.97C58.0863 27.3433 57.9663 27.88 57.9663 28.58C57.9663 29.1733 58.093 29.64 58.3463 29.98C58.5997 30.3133 58.9663 30.48 59.4463 30.48C60.033 30.48 60.5197 30.29 60.9063 29.91C60.933 29.8833 60.963 29.87 60.9963 29.87C61.0497 29.87 61.1063 29.9033 61.1663 29.97C61.2263 30.03 61.2563 30.0933 61.2563 30.16C61.2563 30.1933 61.243 30.2233 61.2163 30.25ZM63.8793 27.39C63.9926 26.9433 64.166 26.5833 64.3993 26.31C64.6393 26.0367 64.8993 25.9 65.1793 25.9C65.4593 25.9 65.6893 25.9933 65.8693 26.18C66.056 26.36 66.1493 26.6067 66.1493 26.92C66.1493 27.1733 66.056 27.3867 65.8693 27.56C65.6826 27.7333 65.4493 27.82 65.1693 27.82C65.0426 27.82 64.9793 27.7833 64.9793 27.71C64.9793 27.69 65.006 27.64 65.0593 27.56C65.1193 27.48 65.166 27.3967 65.1993 27.31C65.2393 27.2233 65.2593 27.1267 65.2593 27.02C65.2593 26.9 65.226 26.8067 65.1593 26.74C65.0993 26.6667 65.0226 26.63 64.9293 26.63C64.7693 26.63 64.6026 26.7267 64.4293 26.92C64.2626 27.1067 64.1193 27.4133 63.9993 27.84C63.8793 28.26 63.8193 28.7933 63.8193 29.44C63.8193 29.74 63.8426 29.9833 63.8893 30.17C63.936 30.35 64.0193 30.5233 64.1393 30.69L64.2593 30.85L64.1393 31H62.3893L62.2793 30.69L62.4893 30.64C62.656 30.6 62.766 30.53 62.8193 30.43C62.8793 30.3233 62.9093 30.1433 62.9093 29.89V27.08C62.9093 27 62.8926 26.9433 62.8593 26.91C62.8326 26.8767 62.7826 26.86 62.7093 26.86H62.2693L62.1793 26.6C62.3726 26.4267 62.5926 26.2833 62.8393 26.17C63.0926 26.0567 63.3126 26 63.4993 26C63.5926 26 63.6693 26.03 63.7293 26.09C63.7893 26.15 63.8193 26.2267 63.8193 26.32V27.39H63.8793ZM68.1845 29.4C68.1845 29.7133 68.2079 29.9633 68.2545 30.15C68.3012 30.3367 68.3845 30.5167 68.5045 30.69L68.6245 30.85L68.5045 31H66.7545L66.6445 30.69L66.8545 30.64C67.0212 30.6 67.1312 30.53 67.1845 30.43C67.2445 30.3233 67.2745 30.1433 67.2745 29.89V27.08C67.2745 27 67.2579 26.9433 67.2245 26.91C67.1979 26.8767 67.1479 26.86 67.0745 26.86H66.6345L66.5445 26.6C66.7379 26.4267 66.9579 26.2833 67.2045 26.17C67.4579 26.0567 67.6779 26 67.8645 26C67.9579 26 68.0345 26.03 68.0945 26.09C68.1545 26.15 68.1845 26.2267 68.1845 26.32V27.39C68.3579 26.9567 68.6179 26.6 68.9645 26.32C69.3112 26.04 69.6745 25.9 70.0545 25.9C70.5212 25.9 70.8612 26.0433 71.0745 26.33C71.2879 26.6167 71.3945 27.0733 71.3945 27.7V30.12C71.3945 30.3467 71.4945 30.46 71.6945 30.46C71.8479 30.46 72.0145 30.39 72.1945 30.25L72.3845 30.51C72.2112 30.7033 72.0245 30.8567 71.8245 30.97C71.6245 31.0833 71.4379 31.14 71.2645 31.14C70.9912 31.14 70.7945 31.0567 70.6745 30.89C70.5545 30.7233 70.4945 30.4533 70.4945 30.08V27.7C70.4945 27.02 70.2079 26.68 69.6345 26.68C69.3479 26.68 69.0945 26.7933 68.8745 27.02C68.6612 27.2467 68.4912 27.5667 68.3645 27.98C68.2445 28.3933 68.1845 28.8667 68.1845 29.4ZM76.5901 30.08C76.3167 30.4667 76.0367 30.74 75.7501 30.9C75.4634 31.06 75.1534 31.14 74.8201 31.14C74.5001 31.14 74.2034 31.05 73.9301 30.87C73.6567 30.6833 73.4367 30.4067 73.2701 30.04C73.1101 29.6733 73.0301 29.23 73.0301 28.71C73.0301 28.1367 73.1334 27.64 73.3401 27.22C73.5534 26.7933 73.8534 26.4667 74.2401 26.24C74.6334 26.0133 75.0934 25.9 75.6201 25.9C75.8801 25.9 76.2467 25.9433 76.7201 26.03C77.1201 26.0967 77.4201 26.1367 77.6201 26.15L77.7301 26.28L77.6101 26.46C77.5634 26.5267 77.5301 26.59 77.5101 26.65C77.4901 26.7033 77.4801 26.77 77.4801 26.85V30.12C77.4801 30.3267 77.5801 30.43 77.7801 30.43C77.9467 30.43 78.1134 30.37 78.2801 30.25L78.4701 30.51C78.2967 30.7033 78.1101 30.8567 77.9101 30.97C77.7101 31.0833 77.5267 31.14 77.3601 31.14C77.0867 31.14 76.8901 31.0567 76.7701 30.89C76.6501 30.7233 76.5901 30.4533 76.5901 30.08ZM74.0801 28.52C74.0801 29.1533 74.1867 29.62 74.4001 29.92C74.6201 30.22 74.8934 30.37 75.2201 30.37C75.4867 30.37 75.7367 30.2967 75.9701 30.15C76.2034 29.9967 76.4101 29.7667 76.5901 29.46V26.76C76.2834 26.5533 75.9567 26.45 75.6101 26.45C75.1234 26.45 74.7467 26.6333 74.4801 27C74.2134 27.36 74.0801 27.8667 74.0801 28.52ZM81.8152 26.03C81.8152 26.17 81.7952 26.2967 81.7552 26.41C81.7152 26.5233 81.6586 26.6067 81.5852 26.66H80.5152V29.88C80.5152 30.0867 80.5452 30.2333 80.6052 30.32C80.6652 30.4067 80.7619 30.45 80.8952 30.45C81.0952 30.45 81.3219 30.3433 81.5752 30.13L81.7652 30.39C81.5919 30.6167 81.3852 30.8 81.1452 30.94C80.9052 31.0733 80.6786 31.14 80.4652 31.14C80.1919 31.14 79.9786 31.0567 79.8252 30.89C79.6786 30.7167 79.6052 30.48 79.6052 30.18V26.66H78.7252C78.7252 26.48 78.7386 26.3633 78.7652 26.31C78.7919 26.2567 78.8586 26.2167 78.9652 26.19C79.3186 26.0967 79.5686 25.9467 79.7152 25.74C79.8686 25.5267 79.9786 25.2533 80.0452 24.92C80.0652 24.8133 80.0986 24.7467 80.1452 24.72C80.1986 24.6933 80.3219 24.68 80.5152 24.68V26.03H81.8152ZM82.9434 24.42C82.9434 24.2933 83.0134 24.1533 83.1534 24C83.3001 23.84 83.4334 23.76 83.5534 23.76C83.6801 23.76 83.8168 23.8367 83.9634 23.99C84.1101 24.1433 84.1834 24.2867 84.1834 24.42C84.1834 24.5467 84.1101 24.6867 83.9634 24.84C83.8168 24.9933 83.6801 25.07 83.5534 25.07C83.4401 25.07 83.3101 24.9933 83.1634 24.84C83.0168 24.6867 82.9434 24.5467 82.9434 24.42ZM84.0034 30.12C84.0034 30.3467 84.1034 30.46 84.3034 30.46C84.4701 30.46 84.6368 30.39 84.8034 30.25L84.9934 30.51C84.8201 30.7033 84.6334 30.8567 84.4334 30.97C84.2334 31.0833 84.0468 31.14 83.8734 31.14C83.6001 31.14 83.4034 31.0567 83.2834 30.89C83.1634 30.7233 83.1034 30.4533 83.1034 30.08V26.98C83.1034 26.9 83.0868 26.8433 83.0534 26.81C83.0268 26.7767 82.9768 26.76 82.9034 26.76H82.4634L82.3734 26.5C82.5668 26.3267 82.7868 26.1833 83.0334 26.07C83.2801 25.9567 83.5001 25.9 83.6934 25.9C83.7868 25.9 83.8634 25.93 83.9234 25.99C83.9834 26.05 84.0134 26.1267 84.0134 26.22L84.0034 30.12ZM87.9287 30.49C88.342 30.49 88.6553 30.2533 88.8687 29.78C89.0887 29.3067 89.1987 28.7333 89.1987 28.06C89.1987 27.74 89.162 27.43 89.0887 27.13C89.0153 26.83 88.9053 26.5633 88.7587 26.33L88.6587 26.17L88.7787 26.04L89.9687 25.9C90.002 26.3133 90.0187 26.6667 90.0187 26.96C90.0187 27.8467 89.9187 28.6067 89.7187 29.24C89.5187 29.8667 89.2487 30.34 88.9087 30.66C88.5753 30.98 88.212 31.14 87.8187 31.14C87.472 31.14 87.192 31.0767 86.9787 30.95C86.772 30.8167 86.6053 30.6067 86.4787 30.32C86.352 30.0267 86.252 29.62 86.1787 29.1L85.8687 26.98C85.8553 26.8933 85.8353 26.8367 85.8087 26.81C85.782 26.7767 85.7353 26.76 85.6687 26.76H85.2287L85.1387 26.5C85.312 26.3267 85.5187 26.1833 85.7587 26.07C85.9987 25.9567 86.212 25.9 86.3987 25.9C86.5787 25.9 86.6853 26.0067 86.7187 26.22L87.1687 29.34C87.2287 29.7533 87.3153 30.05 87.4287 30.23C87.542 30.4033 87.7087 30.49 87.9287 30.49ZM95.396 30.25C95.1493 30.5367 94.856 30.7567 94.516 30.91C94.176 31.0633 93.8093 31.14 93.416 31.14C92.956 31.14 92.5527 31.0333 92.206 30.82C91.8593 30.6067 91.5893 30.3067 91.396 29.92C91.2093 29.5333 91.116 29.0867 91.116 28.58C91.116 28.0467 91.2227 27.58 91.436 27.18C91.6493 26.7733 91.9493 26.46 92.336 26.24C92.7293 26.0133 93.186 25.9 93.706 25.9C94.0727 25.9 94.3827 25.97 94.636 26.11C94.896 26.2433 95.0893 26.4233 95.216 26.65C95.3427 26.87 95.406 27.11 95.406 27.37C95.406 27.65 95.3293 27.92 95.176 28.18C95.0293 28.44 94.8127 28.6533 94.526 28.82C94.2393 28.98 93.896 29.06 93.496 29.06C93.2827 29.06 93.046 29.02 92.786 28.94C92.526 28.86 92.396 28.7433 92.396 28.59C92.396 28.5367 92.4093 28.4867 92.436 28.44C92.4693 28.3933 92.506 28.37 92.546 28.37C92.566 28.37 92.6327 28.3933 92.746 28.44C92.8593 28.48 93.006 28.5 93.186 28.5C93.586 28.5 93.896 28.3867 94.116 28.16C94.3427 27.9333 94.456 27.6667 94.456 27.36C94.456 27.1 94.3727 26.8767 94.206 26.69C94.0393 26.4967 93.806 26.4 93.506 26.4C93.0793 26.4 92.746 26.59 92.506 26.97C92.266 27.3433 92.146 27.88 92.146 28.58C92.146 29.1733 92.2727 29.64 92.526 29.98C92.7793 30.3133 93.146 30.48 93.626 30.48C94.2127 30.48 94.6993 30.29 95.086 29.91C95.1127 29.8833 95.1427 29.87 95.176 29.87C95.2293 29.87 95.286 29.9033 95.346 29.97C95.406 30.03 95.436 30.0933 95.436 30.16C95.436 30.1933 95.4227 30.2233 95.396 30.25Z" fill="black"/>
</svg>
