<svg width="78" height="34" viewBox="0 0 78 34" fill="none" xmlns="http://www.w3.org/2000/svg">
<path d="M30.347 12.818C30.1557 13.0047 29.941 13.098 29.703 13.098C29.4743 13.098 29.29 13.0327 29.15 12.902C29.01 12.7713 28.8723 12.5637 28.737 12.279L28.205 11.152C28.163 11.0587 28.1093 10.991 28.044 10.949C27.9833 10.907 27.8783 10.858 27.729 10.802C27.6403 10.7693 27.596 10.7157 27.596 10.641C27.596 10.5943 27.6053 10.5547 27.624 10.522C27.6427 10.4893 27.6707 10.473 27.708 10.473C27.7267 10.473 27.764 10.4823 27.82 10.501C27.8807 10.515 27.9577 10.522 28.051 10.522C28.401 10.522 28.674 10.424 28.87 10.228C29.066 10.0273 29.164 9.76133 29.164 9.43C29.164 9.08933 29.059 8.81167 28.849 8.597C28.6437 8.37767 28.352 8.268 27.974 8.268C27.6193 8.268 27.442 8.37533 27.442 8.59V11.593C27.442 11.873 27.4653 12.0993 27.512 12.272C27.5587 12.44 27.6403 12.6033 27.757 12.762L27.848 12.888L27.757 13H26.224L26.14 12.762L26.301 12.72C26.4783 12.6733 26.5973 12.6057 26.658 12.517C26.7187 12.4283 26.749 12.279 26.749 12.069V8.611C26.749 8.55033 26.7373 8.50833 26.714 8.485C26.6907 8.457 26.651 8.443 26.595 8.443H26.189L26.105 8.184C26.3057 8.10467 26.5693 8.03467 26.896 7.974C27.2273 7.90867 27.5447 7.876 27.848 7.876C28.5387 7.876 29.052 8.01833 29.388 8.303C29.724 8.58767 29.892 8.95633 29.892 9.409C29.892 9.75433 29.7963 10.0553 29.605 10.312C29.4137 10.5687 29.1313 10.7413 28.758 10.83C28.8607 10.9 28.954 11.0143 29.038 11.173L29.689 12.496C29.7637 12.6407 29.8523 12.713 29.955 12.713C30.0437 12.713 30.1347 12.6803 30.228 12.615L30.347 12.818ZM34.0825 12.384C34.0825 12.5287 34.1502 12.601 34.2855 12.601C34.3929 12.601 34.5072 12.559 34.6285 12.475L34.7615 12.657C34.6542 12.7877 34.5282 12.895 34.3835 12.979C34.2435 13.0583 34.1129 13.098 33.9915 13.098C33.8049 13.098 33.6672 13.0443 33.5785 12.937C33.4945 12.8297 33.4525 12.6593 33.4525 12.426C33.3452 12.6313 33.1842 12.7947 32.9695 12.916C32.7595 13.0373 32.5262 13.098 32.2695 13.098C31.9335 13.098 31.6699 12.9977 31.4785 12.797C31.2919 12.5917 31.1985 12.3047 31.1985 11.936V10.186C31.1985 10.0833 31.1519 10.032 31.0585 10.032H30.7505L30.6875 9.85C30.8089 9.72867 30.9559 9.62833 31.1285 9.549C31.3059 9.46967 31.4669 9.43 31.6115 9.43C31.6769 9.43 31.7305 9.451 31.7725 9.493C31.8145 9.535 31.8355 9.58867 31.8355 9.654V11.775C31.8355 12.055 31.8915 12.2673 32.0035 12.412C32.1202 12.5567 32.2882 12.629 32.5075 12.629C32.8202 12.629 33.0629 12.4937 33.2355 12.223C33.4129 11.9523 33.5015 11.579 33.5015 11.103C33.5015 10.7577 33.4805 10.4893 33.4385 10.298C33.4012 10.102 33.3312 9.91533 33.2285 9.738L33.1445 9.626L33.2285 9.521L34.0825 9.43V12.384ZM38.3304 12.384C38.3304 12.5287 38.4004 12.601 38.5404 12.601C38.6571 12.601 38.7737 12.559 38.8904 12.475L39.0234 12.657C38.9021 12.7923 38.7714 12.8997 38.6314 12.979C38.4914 13.0583 38.3631 13.098 38.2464 13.098C38.0551 13.098 37.9174 13.0397 37.8334 12.923C37.7494 12.8063 37.7074 12.6173 37.7074 12.356C37.5161 12.6267 37.3201 12.818 37.1194 12.93C36.9187 13.042 36.7017 13.098 36.4684 13.098C36.2444 13.098 36.0367 13.035 35.8454 12.909C35.6541 12.7783 35.5001 12.5847 35.3834 12.328C35.2714 12.0713 35.2154 11.761 35.2154 11.397C35.2154 10.9957 35.2877 10.648 35.4324 10.354C35.5817 10.0553 35.7917 9.82667 36.0624 9.668C36.3377 9.50933 36.6597 9.43 37.0284 9.43C37.2711 9.43 37.4927 9.46033 37.6934 9.521V8.282C37.6934 8.226 37.6817 8.18633 37.6584 8.163C37.6397 8.13967 37.6047 8.128 37.5534 8.128H37.2454L37.1824 7.946C37.3177 7.82467 37.4717 7.72433 37.6444 7.645C37.8217 7.56567 37.9757 7.526 38.1064 7.526C38.1717 7.526 38.2254 7.547 38.2674 7.589C38.3094 7.631 38.3304 7.68467 38.3304 7.75V12.384ZM35.9504 11.264C35.9504 11.7073 36.0251 12.034 36.1744 12.244C36.3284 12.454 36.5197 12.559 36.7484 12.559C36.9351 12.559 37.1101 12.5077 37.2734 12.405C37.4367 12.2977 37.5814 12.1367 37.7074 11.922V10.032C37.4927 9.88733 37.2641 9.815 37.0214 9.815C36.6807 9.815 36.4171 9.94333 36.2304 10.2C36.0437 10.452 35.9504 10.8067 35.9504 11.264ZM39.769 8.394C39.769 8.30533 39.818 8.20733 39.916 8.1C40.0187 7.988 40.112 7.932 40.196 7.932C40.2847 7.932 40.3803 7.98567 40.483 8.093C40.5857 8.20033 40.637 8.30067 40.637 8.394C40.637 8.48267 40.5857 8.58067 40.483 8.688C40.3803 8.79533 40.2847 8.849 40.196 8.849C40.1167 8.849 40.0257 8.79533 39.923 8.688C39.8203 8.58067 39.769 8.48267 39.769 8.394ZM40.511 12.384C40.511 12.5427 40.581 12.622 40.721 12.622C40.8377 12.622 40.9543 12.573 41.071 12.475L41.204 12.657C41.0827 12.7923 40.952 12.8997 40.812 12.979C40.672 13.0583 40.5413 13.098 40.42 13.098C40.2287 13.098 40.091 13.0397 40.007 12.923C39.923 12.8063 39.881 12.6173 39.881 12.356V10.186C39.881 10.13 39.8693 10.0903 39.846 10.067C39.8273 10.0437 39.7923 10.032 39.741 10.032H39.433L39.37 9.85C39.5053 9.72867 39.6593 9.62833 39.832 9.549C40.0047 9.46967 40.1587 9.43 40.294 9.43C40.3593 9.43 40.413 9.451 40.455 9.493C40.497 9.535 40.518 9.58867 40.518 9.654L40.511 12.384ZM42.7337 11.88C42.7337 12.0993 42.75 12.2743 42.7827 12.405C42.8153 12.5357 42.8737 12.6617 42.9577 12.783L43.0417 12.895L42.9577 13H41.7327L41.6557 12.783L41.8027 12.748C41.9193 12.72 41.9963 12.671 42.0337 12.601C42.0757 12.5263 42.0967 12.4003 42.0967 12.223V10.256C42.0967 10.2 42.085 10.1603 42.0617 10.137C42.043 10.1137 42.008 10.102 41.9567 10.102H41.6487L41.5857 9.92C41.721 9.79867 41.875 9.69833 42.0477 9.619C42.225 9.53967 42.379 9.5 42.5097 9.5C42.575 9.5 42.6287 9.521 42.6707 9.563C42.7127 9.605 42.7337 9.65867 42.7337 9.724V10.473C42.855 10.165 43.0323 9.91533 43.2657 9.724C43.499 9.528 43.744 9.43 44.0007 9.43C44.2853 9.43 44.5 9.514 44.6447 9.682C44.7893 9.85 44.8733 10.1137 44.8967 10.473C45.018 10.165 45.1953 9.91533 45.4287 9.724C45.662 9.528 45.907 9.43 46.1637 9.43C46.4763 9.43 46.7027 9.53033 46.8427 9.731C46.9873 9.93167 47.0597 10.2513 47.0597 10.69V12.384C47.0597 12.5427 47.1297 12.622 47.2697 12.622C47.377 12.622 47.4937 12.573 47.6197 12.475L47.7527 12.657C47.6313 12.7923 47.5007 12.8997 47.3607 12.979C47.2207 13.0583 47.09 13.098 46.9687 13.098C46.7773 13.098 46.6397 13.0397 46.5557 12.923C46.4717 12.8063 46.4297 12.6173 46.4297 12.356V10.69C46.4297 10.214 46.257 9.976 45.9117 9.976C45.7157 9.976 45.543 10.053 45.3937 10.207C45.2443 10.3563 45.1253 10.5687 45.0367 10.844C44.948 11.1193 44.9013 11.4367 44.8967 11.796V11.88C44.8967 12.1227 44.9153 12.3163 44.9527 12.461C44.9947 12.601 45.0787 12.7457 45.2047 12.895L45.1207 13H44.2667V10.69C44.2667 10.214 44.094 9.976 43.7487 9.976C43.548 9.976 43.3707 10.0553 43.2167 10.214C43.0673 10.3727 42.9483 10.5967 42.8597 10.886C42.7757 11.1753 42.7337 11.5067 42.7337 11.88ZM51.2065 12.475C51.0338 12.6757 50.8285 12.8297 50.5905 12.937C50.3525 13.0443 50.0958 13.098 49.8205 13.098C49.4985 13.098 49.2162 13.0233 48.9735 12.874C48.7308 12.7247 48.5418 12.5147 48.4065 12.244C48.2758 11.9733 48.2105 11.6607 48.2105 11.306C48.2105 10.9327 48.2852 10.606 48.4345 10.326C48.5838 10.0413 48.7938 9.822 49.0645 9.668C49.3398 9.50933 49.6595 9.43 50.0235 9.43C50.2802 9.43 50.4972 9.479 50.6745 9.577C50.8565 9.67033 50.9918 9.79633 51.0805 9.955C51.1692 10.109 51.2135 10.277 51.2135 10.459C51.2135 10.655 51.1598 10.844 51.0525 11.026C50.9498 11.208 50.7982 11.3573 50.5975 11.474C50.3968 11.586 50.1565 11.642 49.8765 11.642C49.7272 11.642 49.5615 11.614 49.3795 11.558C49.1975 11.502 49.1065 11.4203 49.1065 11.313C49.1065 11.2757 49.1158 11.2407 49.1345 11.208C49.1578 11.1753 49.1835 11.159 49.2115 11.159C49.2255 11.159 49.2722 11.1753 49.3515 11.208C49.4308 11.236 49.5335 11.25 49.6595 11.25C49.9395 11.25 50.1565 11.1707 50.3105 11.012C50.4692 10.8533 50.5485 10.6667 50.5485 10.452C50.5485 10.27 50.4902 10.1137 50.3735 9.983C50.2568 9.84767 50.0935 9.78 49.8835 9.78C49.5848 9.78 49.3515 9.913 49.1835 10.179C49.0155 10.4403 48.9315 10.816 48.9315 11.306C48.9315 11.7213 49.0202 12.048 49.1975 12.286C49.3748 12.5193 49.6315 12.636 49.9675 12.636C50.3782 12.636 50.7188 12.503 50.9895 12.237C51.0082 12.2183 51.0292 12.209 51.0525 12.209C51.0898 12.209 51.1295 12.2323 51.1715 12.279C51.2135 12.321 51.2345 12.3653 51.2345 12.412C51.2345 12.4353 51.2252 12.4563 51.2065 12.475ZM53.0286 11.88C53.0286 12.0993 53.0449 12.2743 53.0776 12.405C53.1103 12.5357 53.1686 12.6617 53.2526 12.783L53.3366 12.895L53.2526 13H52.0276L51.9506 12.783L52.0976 12.748C52.2143 12.72 52.2913 12.671 52.3286 12.601C52.3706 12.5263 52.3916 12.4003 52.3916 12.223V10.256C52.3916 10.2 52.3799 10.1603 52.3566 10.137C52.3379 10.1137 52.3029 10.102 52.2516 10.102H51.9436L51.8806 9.92C52.0159 9.79867 52.1699 9.69833 52.3426 9.619C52.5199 9.53967 52.6739 9.5 52.8046 9.5C52.8699 9.5 52.9236 9.521 52.9656 9.563C53.0076 9.605 53.0286 9.65867 53.0286 9.724V10.473C53.1499 10.1697 53.3319 9.92 53.5746 9.724C53.8173 9.528 54.0716 9.43 54.3376 9.43C54.6643 9.43 54.9023 9.53033 55.0516 9.731C55.2009 9.93167 55.2756 10.2513 55.2756 10.69V12.384C55.2756 12.5427 55.3456 12.622 55.4856 12.622C55.5929 12.622 55.7096 12.573 55.8356 12.475L55.9686 12.657C55.8473 12.7923 55.7166 12.8997 55.5766 12.979C55.4366 13.0583 55.3059 13.098 55.1846 13.098C54.9933 13.098 54.8556 13.0397 54.7716 12.923C54.6876 12.8063 54.6456 12.6173 54.6456 12.356V10.69C54.6456 10.214 54.4449 9.976 54.0436 9.976C53.8429 9.976 53.6656 10.0553 53.5116 10.214C53.3623 10.3727 53.2433 10.5967 53.1546 10.886C53.0706 11.1753 53.0286 11.5067 53.0286 11.88ZM58.3455 9.521C58.3455 9.619 58.3315 9.70767 58.3035 9.787C58.2755 9.86633 58.2358 9.92467 58.1845 9.962H57.4355V12.216C57.4355 12.3607 57.4565 12.4633 57.4985 12.524C57.5405 12.5847 57.6081 12.615 57.7015 12.615C57.8415 12.615 58.0001 12.5403 58.1775 12.391L58.3105 12.573C58.1891 12.7317 58.0445 12.86 57.8765 12.958C57.7085 13.0513 57.5498 13.098 57.4005 13.098C57.2091 13.098 57.0598 13.0397 56.9525 12.923C56.8498 12.8017 56.7985 12.636 56.7985 12.426V9.962H56.1825C56.1825 9.836 56.1918 9.75433 56.2105 9.717C56.2291 9.67967 56.2758 9.65167 56.3505 9.633C56.5978 9.56767 56.7728 9.46267 56.8755 9.318C56.9828 9.16867 57.0598 8.97733 57.1065 8.744C57.1205 8.66933 57.1438 8.62267 57.1765 8.604C57.2138 8.58533 57.3001 8.576 57.4355 8.576V9.521H58.3455ZM61.2982 12.356C61.1069 12.6267 60.9109 12.818 60.7102 12.93C60.5095 13.042 60.2925 13.098 60.0592 13.098C59.8352 13.098 59.6275 13.035 59.4362 12.909C59.2449 12.7783 59.0909 12.5847 58.9742 12.328C58.8622 12.0713 58.8062 11.761 58.8062 11.397C58.8062 10.9957 58.8785 10.648 59.0232 10.354C59.1725 10.0553 59.3825 9.82667 59.6532 9.668C59.9285 9.50933 60.2505 9.43 60.6192 9.43C60.8012 9.43 61.0579 9.46033 61.3892 9.521C61.6692 9.56767 61.8792 9.59567 62.0192 9.605L62.0962 9.696L62.0122 9.822C61.9795 9.86867 61.9562 9.913 61.9422 9.955C61.9282 9.99233 61.9212 10.039 61.9212 10.095V12.384C61.9212 12.5287 61.9912 12.601 62.1312 12.601C62.2479 12.601 62.3645 12.559 62.4812 12.475L62.6142 12.657C62.4929 12.7923 62.3622 12.8997 62.2222 12.979C62.0822 13.0583 61.9539 13.098 61.8372 13.098C61.6459 13.098 61.5082 13.0397 61.4242 12.923C61.3402 12.8063 61.2982 12.6173 61.2982 12.356ZM59.5412 11.264C59.5412 11.7073 59.6159 12.034 59.7652 12.244C59.9192 12.454 60.1105 12.559 60.3392 12.559C60.5259 12.559 60.7009 12.5077 60.8642 12.405C61.0275 12.2977 61.1722 12.1367 61.2982 11.922V10.032C61.0835 9.88733 60.8549 9.815 60.6122 9.815C60.2715 9.815 60.0079 9.94333 59.8212 10.2C59.6345 10.452 59.5412 10.8067 59.5412 11.264ZM64.1858 10.473C64.2652 10.1603 64.3865 9.90833 64.5498 9.717C64.7178 9.52567 64.8998 9.43 65.0958 9.43C65.2918 9.43 65.4528 9.49533 65.5788 9.626C65.7095 9.752 65.7748 9.92467 65.7748 10.144C65.7748 10.3213 65.7095 10.4707 65.5788 10.592C65.4482 10.7133 65.2848 10.774 65.0888 10.774C65.0002 10.774 64.9558 10.7483 64.9558 10.697C64.9558 10.683 64.9745 10.648 65.0118 10.592C65.0538 10.536 65.0865 10.4777 65.1098 10.417C65.1378 10.3563 65.1518 10.2887 65.1518 10.214C65.1518 10.13 65.1285 10.0647 65.0818 10.018C65.0398 9.96667 64.9862 9.941 64.9208 9.941C64.8088 9.941 64.6922 10.0087 64.5708 10.144C64.4542 10.2747 64.3538 10.4893 64.2698 10.788C64.1858 11.082 64.1438 11.4553 64.1438 11.908C64.1438 12.118 64.1602 12.2883 64.1928 12.419C64.2255 12.545 64.2838 12.6663 64.3678 12.783L64.4518 12.895L64.3678 13H63.1428L63.0658 12.783L63.2128 12.748C63.3295 12.72 63.4065 12.671 63.4438 12.601C63.4858 12.5263 63.5068 12.4003 63.5068 12.223V10.256C63.5068 10.2 63.4952 10.1603 63.4718 10.137C63.4532 10.1137 63.4182 10.102 63.3668 10.102H63.0588L62.9958 9.92C63.1312 9.79867 63.2852 9.69833 63.4578 9.619C63.6352 9.53967 63.7892 9.5 63.9198 9.5C63.9852 9.5 64.0388 9.521 64.0808 9.563C64.1228 9.605 64.1438 9.65867 64.1438 9.724V10.473H64.1858ZM67.8085 14.946C67.5518 14.946 67.3325 14.897 67.1505 14.799C66.9685 14.7057 66.8332 14.582 66.7445 14.428C66.6558 14.2787 66.6115 14.1177 66.6115 13.945C66.6115 13.7117 66.6908 13.511 66.8495 13.343C67.0082 13.1797 67.2252 13.098 67.5005 13.098C67.5472 13.098 67.5798 13.105 67.5985 13.119C67.6218 13.1377 67.6335 13.1563 67.6335 13.175C67.6335 13.1937 67.6008 13.238 67.5355 13.308C67.4702 13.378 67.4118 13.462 67.3605 13.56C67.3138 13.658 67.2905 13.7817 67.2905 13.931C67.2905 14.1177 67.3442 14.2717 67.4515 14.393C67.5635 14.519 67.7128 14.582 67.8995 14.582C68.1888 14.582 68.4012 14.463 68.5365 14.225C68.6718 13.987 68.7395 13.6673 68.7395 13.266V12.23C68.6322 12.4353 68.4712 12.5987 68.2565 12.72C68.0418 12.8367 67.8062 12.895 67.5495 12.895C67.2182 12.895 66.9592 12.7947 66.7725 12.594C66.5858 12.3887 66.4925 12.1017 66.4925 11.733V10.179C66.4925 10.123 66.4808 10.0833 66.4575 10.06C66.4388 10.0367 66.4038 10.025 66.3525 10.025H66.0445L65.9815 9.843C66.1028 9.72167 66.2498 9.62133 66.4225 9.542C66.5998 9.46267 66.7608 9.423 66.9055 9.423C66.9708 9.423 67.0245 9.444 67.0665 9.486C67.1085 9.528 67.1295 9.58167 67.1295 9.647V11.572C67.1295 11.852 67.1855 12.0643 67.2975 12.209C67.4095 12.3537 67.5728 12.426 67.7875 12.426C68.1002 12.426 68.3428 12.3093 68.5155 12.076C68.6928 11.838 68.7815 11.5113 68.7815 11.096C68.7815 10.7133 68.7652 10.4287 68.7325 10.242C68.6998 10.0553 68.6252 9.885 68.5085 9.731L68.4245 9.619L68.5085 9.514L69.3625 9.423V13.154C69.3625 13.728 69.2225 14.169 68.9425 14.477C68.6672 14.7897 68.2892 14.946 67.8085 14.946Z" fill="black"/>
<path d="M34.115 21.762L34.276 21.72C34.388 21.692 34.4673 21.6547 34.514 21.608C34.5653 21.5613 34.591 21.496 34.591 21.412C34.591 21.3373 34.5653 21.223 34.514 21.069L34.178 20.089H32.561L32.393 20.6C32.2857 20.922 32.232 21.167 32.232 21.335C32.232 21.4937 32.2647 21.636 32.33 21.762L32.393 21.888L32.26 22H30.972L30.888 21.762L31.049 21.72C31.2357 21.6687 31.371 21.601 31.455 21.517C31.539 21.433 31.6183 21.2837 31.693 21.069L32.792 17.905C32.8433 17.751 32.869 17.6367 32.869 17.562C32.869 17.478 32.8433 17.4127 32.792 17.366C32.7453 17.3193 32.666 17.282 32.554 17.254L32.393 17.212L32.477 16.974H33.828L35.235 21.034C35.3097 21.2487 35.3913 21.412 35.48 21.524C35.5687 21.636 35.697 21.7573 35.865 21.888L35.774 22H34.199L34.115 21.762ZM32.708 19.655H34.031L33.359 17.695L32.708 19.655ZM37.2584 21.384C37.2584 21.5427 37.3284 21.622 37.4684 21.622C37.585 21.622 37.7017 21.573 37.8184 21.475L37.9514 21.657C37.83 21.7923 37.6994 21.8997 37.5594 21.979C37.4194 22.0583 37.2887 22.098 37.1674 22.098C36.976 22.098 36.8384 22.0397 36.7544 21.923C36.6704 21.8063 36.6284 21.6173 36.6284 21.356V17.282C36.6284 17.226 36.6167 17.1863 36.5934 17.163C36.5747 17.1397 36.5397 17.128 36.4884 17.128H36.1804L36.1174 16.946C36.2527 16.8247 36.4067 16.7243 36.5794 16.645C36.752 16.5657 36.906 16.526 37.0414 16.526C37.1067 16.526 37.1604 16.547 37.2024 16.589C37.2444 16.631 37.2654 16.6847 37.2654 16.75L37.2584 21.384ZM40.2947 18.521C40.2947 18.619 40.2807 18.7077 40.2527 18.787C40.2247 18.8663 40.185 18.9247 40.1337 18.962H39.3847V21.216C39.3847 21.3607 39.4057 21.4633 39.4477 21.524C39.4897 21.5847 39.5574 21.615 39.6507 21.615C39.7907 21.615 39.9494 21.5403 40.1267 21.391L40.2597 21.573C40.1384 21.7317 39.9937 21.86 39.8257 21.958C39.6577 22.0513 39.499 22.098 39.3497 22.098C39.1584 22.098 39.009 22.0397 38.9017 21.923C38.799 21.8017 38.7477 21.636 38.7477 21.426V18.962H38.1317C38.1317 18.836 38.141 18.7543 38.1597 18.717C38.1784 18.6797 38.225 18.6517 38.2997 18.633C38.547 18.5677 38.722 18.4627 38.8247 18.318C38.932 18.1687 39.009 17.9773 39.0557 17.744C39.0697 17.6693 39.093 17.6227 39.1257 17.604C39.163 17.5853 39.2494 17.576 39.3847 17.576V18.521H40.2947ZM43.7514 21.475C43.5788 21.6757 43.3734 21.8297 43.1354 21.937C42.8974 22.0443 42.6408 22.098 42.3654 22.098C42.0434 22.098 41.7611 22.0233 41.5184 21.874C41.2758 21.7247 41.0868 21.5147 40.9514 21.244C40.8208 20.9733 40.7554 20.6607 40.7554 20.306C40.7554 19.9327 40.8301 19.606 40.9794 19.326C41.1288 19.0413 41.3388 18.822 41.6094 18.668C41.8848 18.5093 42.2044 18.43 42.5684 18.43C42.8251 18.43 43.0421 18.479 43.2194 18.577C43.4014 18.6703 43.5368 18.7963 43.6254 18.955C43.7141 19.109 43.7584 19.277 43.7584 19.459C43.7584 19.655 43.7048 19.844 43.5974 20.026C43.4948 20.208 43.3431 20.3573 43.1424 20.474C42.9418 20.586 42.7014 20.642 42.4214 20.642C42.2721 20.642 42.1064 20.614 41.9244 20.558C41.7424 20.502 41.6514 20.4203 41.6514 20.313C41.6514 20.2757 41.6608 20.2407 41.6794 20.208C41.7028 20.1753 41.7284 20.159 41.7564 20.159C41.7704 20.159 41.8171 20.1753 41.8964 20.208C41.9758 20.236 42.0784 20.25 42.2044 20.25C42.4844 20.25 42.7014 20.1707 42.8554 20.012C43.0141 19.8533 43.0934 19.6667 43.0934 19.452C43.0934 19.27 43.0351 19.1137 42.9184 18.983C42.8018 18.8477 42.6384 18.78 42.4284 18.78C42.1298 18.78 41.8964 18.913 41.7284 19.179C41.5604 19.4403 41.4764 19.816 41.4764 20.306C41.4764 20.7213 41.5651 21.048 41.7424 21.286C41.9198 21.5193 42.1764 21.636 42.5124 21.636C42.9231 21.636 43.2638 21.503 43.5344 21.237C43.5531 21.2183 43.5741 21.209 43.5974 21.209C43.6348 21.209 43.6744 21.2323 43.7164 21.279C43.7584 21.321 43.7794 21.3653 43.7794 21.412C43.7794 21.4353 43.7701 21.4563 43.7514 21.475ZM45.6155 19.473C45.6948 19.1603 45.8162 18.9083 45.9795 18.717C46.1475 18.5257 46.3295 18.43 46.5255 18.43C46.7215 18.43 46.8825 18.4953 47.0085 18.626C47.1392 18.752 47.2045 18.9247 47.2045 19.144C47.2045 19.3213 47.1392 19.4707 47.0085 19.592C46.8778 19.7133 46.7145 19.774 46.5185 19.774C46.4298 19.774 46.3855 19.7483 46.3855 19.697C46.3855 19.683 46.4042 19.648 46.4415 19.592C46.4835 19.536 46.5162 19.4777 46.5395 19.417C46.5675 19.3563 46.5815 19.2887 46.5815 19.214C46.5815 19.13 46.5582 19.0647 46.5115 19.018C46.4695 18.9667 46.4158 18.941 46.3505 18.941C46.2385 18.941 46.1218 19.0087 46.0005 19.144C45.8838 19.2747 45.7835 19.4893 45.6995 19.788C45.6155 20.082 45.5735 20.4553 45.5735 20.908C45.5735 21.118 45.5898 21.2883 45.6225 21.419C45.6552 21.545 45.7135 21.6663 45.7975 21.783L45.8815 21.895L45.7975 22H44.5725L44.4955 21.783L44.6425 21.748C44.7592 21.72 44.8362 21.671 44.8735 21.601C44.9155 21.5263 44.9365 21.4003 44.9365 21.223V19.256C44.9365 19.2 44.9248 19.1603 44.9015 19.137C44.8828 19.1137 44.8478 19.102 44.7965 19.102H44.4885L44.4255 18.92C44.5608 18.7987 44.7148 18.6983 44.8875 18.619C45.0648 18.5397 45.2188 18.5 45.3495 18.5C45.4148 18.5 45.4685 18.521 45.5105 18.563C45.5525 18.605 45.5735 18.6587 45.5735 18.724V19.473H45.6155ZM48.6292 20.88C48.6292 21.0993 48.6455 21.2743 48.6782 21.405C48.7108 21.5357 48.7692 21.6617 48.8532 21.783L48.9372 21.895L48.8532 22H47.6282L47.5512 21.783L47.6982 21.748C47.8148 21.72 47.8918 21.671 47.9292 21.601C47.9712 21.5263 47.9922 21.4003 47.9922 21.223V19.256C47.9922 19.2 47.9805 19.1603 47.9572 19.137C47.9385 19.1137 47.9035 19.102 47.8522 19.102H47.5442L47.4812 18.92C47.6165 18.7987 47.7705 18.6983 47.9432 18.619C48.1205 18.5397 48.2745 18.5 48.4052 18.5C48.4705 18.5 48.5242 18.521 48.5662 18.563C48.6082 18.605 48.6292 18.6587 48.6292 18.724V19.473C48.7505 19.1697 48.9325 18.92 49.1752 18.724C49.4178 18.528 49.6722 18.43 49.9382 18.43C50.2648 18.43 50.5028 18.5303 50.6522 18.731C50.8015 18.9317 50.8762 19.2513 50.8762 19.69V21.384C50.8762 21.5427 50.9462 21.622 51.0862 21.622C51.1935 21.622 51.3102 21.573 51.4362 21.475L51.5692 21.657C51.4478 21.7923 51.3172 21.8997 51.1772 21.979C51.0372 22.0583 50.9065 22.098 50.7852 22.098C50.5938 22.098 50.4562 22.0397 50.3722 21.923C50.2882 21.8063 50.2462 21.6173 50.2462 21.356V19.69C50.2462 19.214 50.0455 18.976 49.6442 18.976C49.4435 18.976 49.2662 19.0553 49.1122 19.214C48.9628 19.3727 48.8438 19.5967 48.7552 19.886C48.6712 20.1753 48.6292 20.5067 48.6292 20.88ZM54.5131 21.356C54.3217 21.6267 54.1257 21.818 53.9251 21.93C53.7244 22.042 53.5074 22.098 53.2741 22.098C53.0501 22.098 52.8424 22.035 52.6511 21.909C52.4597 21.7783 52.3057 21.5847 52.1891 21.328C52.0771 21.0713 52.0211 20.761 52.0211 20.397C52.0211 19.9957 52.0934 19.648 52.2381 19.354C52.3874 19.0553 52.5974 18.8267 52.8681 18.668C53.1434 18.5093 53.4654 18.43 53.8341 18.43C54.0161 18.43 54.2727 18.4603 54.6041 18.521C54.8841 18.5677 55.0941 18.5957 55.2341 18.605L55.3111 18.696L55.2271 18.822C55.1944 18.8687 55.1711 18.913 55.1571 18.955C55.1431 18.9923 55.1361 19.039 55.1361 19.095V21.384C55.1361 21.5287 55.2061 21.601 55.3461 21.601C55.4627 21.601 55.5794 21.559 55.6961 21.475L55.8291 21.657C55.7077 21.7923 55.5771 21.8997 55.4371 21.979C55.2971 22.0583 55.1687 22.098 55.0521 22.098C54.8607 22.098 54.7231 22.0397 54.6391 21.923C54.5551 21.8063 54.5131 21.6173 54.5131 21.356ZM52.7561 20.264C52.7561 20.7073 52.8307 21.034 52.9801 21.244C53.1341 21.454 53.3254 21.559 53.5541 21.559C53.7407 21.559 53.9157 21.5077 54.0791 21.405C54.2424 21.2977 54.3871 21.1367 54.5131 20.922V19.032C54.2984 18.8873 54.0697 18.815 53.8271 18.815C53.4864 18.815 53.2227 18.9433 53.0361 19.2C52.8494 19.452 52.7561 19.8067 52.7561 20.264ZM58.1707 18.521C58.1707 18.619 58.1567 18.7077 58.1287 18.787C58.1007 18.8663 58.061 18.9247 58.0097 18.962H57.2607V21.216C57.2607 21.3607 57.2817 21.4633 57.3237 21.524C57.3657 21.5847 57.4333 21.615 57.5267 21.615C57.6667 21.615 57.8253 21.5403 58.0027 21.391L58.1357 21.573C58.0143 21.7317 57.8697 21.86 57.7017 21.958C57.5337 22.0513 57.375 22.098 57.2257 22.098C57.0343 22.098 56.885 22.0397 56.7777 21.923C56.675 21.8017 56.6237 21.636 56.6237 21.426V18.962H56.0077C56.0077 18.836 56.017 18.7543 56.0357 18.717C56.0543 18.6797 56.101 18.6517 56.1757 18.633C56.423 18.5677 56.598 18.4627 56.7007 18.318C56.808 18.1687 56.885 17.9773 56.9317 17.744C56.9457 17.6693 56.969 17.6227 57.0017 17.604C57.039 17.5853 57.1253 17.576 57.2607 17.576V18.521H58.1707ZM58.9604 17.394C58.9604 17.3053 59.0094 17.2073 59.1074 17.1C59.2101 16.988 59.3034 16.932 59.3874 16.932C59.4761 16.932 59.5717 16.9857 59.6744 17.093C59.7771 17.2003 59.8284 17.3007 59.8284 17.394C59.8284 17.4827 59.7771 17.5807 59.6744 17.688C59.5717 17.7953 59.4761 17.849 59.3874 17.849C59.3081 17.849 59.2171 17.7953 59.1144 17.688C59.0117 17.5807 58.9604 17.4827 58.9604 17.394ZM59.7024 21.384C59.7024 21.5427 59.7724 21.622 59.9124 21.622C60.0291 21.622 60.1457 21.573 60.2624 21.475L60.3954 21.657C60.2741 21.7923 60.1434 21.8997 60.0034 21.979C59.8634 22.0583 59.7327 22.098 59.6114 22.098C59.4201 22.098 59.2824 22.0397 59.1984 21.923C59.1144 21.8063 59.0724 21.6173 59.0724 21.356V19.186C59.0724 19.13 59.0607 19.0903 59.0374 19.067C59.0187 19.0437 58.9837 19.032 58.9324 19.032H58.6244L58.5614 18.85C58.6967 18.7287 58.8507 18.6283 59.0234 18.549C59.1961 18.4697 59.3501 18.43 59.4854 18.43C59.5507 18.43 59.6044 18.451 59.6464 18.493C59.6884 18.535 59.7094 18.5887 59.7094 18.654L59.7024 21.384ZM62.4501 21.643C62.7394 21.643 62.9587 21.4773 63.1081 21.146C63.2621 20.8147 63.3391 20.4133 63.3391 19.942C63.3391 19.718 63.3134 19.501 63.2621 19.291C63.2107 19.081 63.1337 18.8943 63.0311 18.731L62.9611 18.619L63.0451 18.528L63.8781 18.43C63.9014 18.7193 63.9131 18.9667 63.9131 19.172C63.9131 19.7927 63.8431 20.3247 63.7031 20.768C63.5631 21.2067 63.3741 21.538 63.1361 21.762C62.9027 21.986 62.6484 22.098 62.3731 22.098C62.1304 22.098 61.9344 22.0537 61.7851 21.965C61.6404 21.8717 61.5237 21.7247 61.4351 21.524C61.3464 21.3187 61.2764 21.034 61.2251 20.67L61.0081 19.186C60.9987 19.1253 60.9847 19.0857 60.9661 19.067C60.9474 19.0437 60.9147 19.032 60.8681 19.032H60.5601L60.4971 18.85C60.6184 18.7287 60.7631 18.6283 60.9311 18.549C61.0991 18.4697 61.2484 18.43 61.3791 18.43C61.5051 18.43 61.5797 18.5047 61.6031 18.654L61.9181 20.838C61.9601 21.1273 62.0207 21.335 62.1001 21.461C62.1794 21.5823 62.2961 21.643 62.4501 21.643ZM67.6772 21.475C67.5045 21.6757 67.2992 21.8297 67.0612 21.937C66.8232 22.0443 66.5665 22.098 66.2912 22.098C65.9692 22.098 65.6869 22.0233 65.4442 21.874C65.2015 21.7247 65.0125 21.5147 64.8772 21.244C64.7465 20.9733 64.6812 20.6607 64.6812 20.306C64.6812 19.9327 64.7559 19.606 64.9052 19.326C65.0545 19.0413 65.2645 18.822 65.5352 18.668C65.8105 18.5093 66.1302 18.43 66.4942 18.43C66.7509 18.43 66.9679 18.479 67.1452 18.577C67.3272 18.6703 67.4625 18.7963 67.5512 18.955C67.6399 19.109 67.6842 19.277 67.6842 19.459C67.6842 19.655 67.6305 19.844 67.5232 20.026C67.4205 20.208 67.2689 20.3573 67.0682 20.474C66.8675 20.586 66.6272 20.642 66.3472 20.642C66.1979 20.642 66.0322 20.614 65.8502 20.558C65.6682 20.502 65.5772 20.4203 65.5772 20.313C65.5772 20.2757 65.5865 20.2407 65.6052 20.208C65.6285 20.1753 65.6542 20.159 65.6822 20.159C65.6962 20.159 65.7429 20.1753 65.8222 20.208C65.9015 20.236 66.0042 20.25 66.1302 20.25C66.4102 20.25 66.6272 20.1707 66.7812 20.012C66.9399 19.8533 67.0192 19.6667 67.0192 19.452C67.0192 19.27 66.9609 19.1137 66.8442 18.983C66.7275 18.8477 66.5642 18.78 66.3542 18.78C66.0555 18.78 65.8222 18.913 65.6542 19.179C65.4862 19.4403 65.4022 19.816 65.4022 20.306C65.4022 20.7213 65.4909 21.048 65.6682 21.286C65.8455 21.5193 66.1022 21.636 66.4382 21.636C66.8489 21.636 67.1895 21.503 67.4602 21.237C67.4789 21.2183 67.4999 21.209 67.5232 21.209C67.5605 21.209 67.6002 21.2323 67.6422 21.279C67.6842 21.321 67.7052 21.3653 67.7052 21.412C67.7052 21.4353 67.6959 21.4563 67.6772 21.475Z" fill="black"/>
<mask id="path-3-inside-1" fill="white">
<path fill-rule="evenodd" clip-rule="evenodd" d="M30.9999 26.2542C26.9852 23.7262 24.0518 19.5322 23.2862 14.4732C22.6328 10.1555 23.6742 5.97251 25.9124 2.59963C22.2769 0.31253 17.774 -0.598762 13.2496 0.40467C4.13382 2.42637 -1.61703 11.455 0.40467 20.5708C2.42637 29.6865 11.455 35.4374 20.5708 33.4157C25.0192 32.4291 28.6663 29.7739 30.9999 26.2542Z"/>
</mask>
<path fill-rule="evenodd" clip-rule="evenodd" d="M30.9999 26.2542C26.9852 23.7262 24.0518 19.5322 23.2862 14.4732C22.6328 10.1555 23.6742 5.97251 25.9124 2.59963C22.2769 0.31253 17.774 -0.598762 13.2496 0.40467C4.13382 2.42637 -1.61703 11.455 0.40467 20.5708C2.42637 29.6865 11.455 35.4374 20.5708 33.4157C25.0192 32.4291 28.6663 29.7739 30.9999 26.2542Z" fill="#28113C"/>
<path d="M30.9999 26.2542L31.8334 26.8068L32.3991 25.9535L31.5328 25.408L30.9999 26.2542ZM23.2862 14.4732L22.2974 14.6228L22.2974 14.6228L23.2862 14.4732ZM25.9124 2.59963L26.7456 3.15255L27.3122 2.29881L26.4449 1.7532L25.9124 2.59963ZM13.2496 0.40467L13.033 -0.571608L13.033 -0.571608L13.2496 0.40467ZM0.40467 20.5708L1.38095 20.3543L0.40467 20.5708ZM20.5708 33.4157L20.3543 32.4394L20.3543 32.4394L20.5708 33.4157ZM31.5328 25.408C27.7536 23.0283 24.9952 19.0831 24.2749 14.3236L22.2974 14.6228C23.1083 19.9812 26.2169 24.4241 30.4671 27.1004L31.5328 25.408ZM24.2749 14.3236C23.6601 10.2607 24.6392 6.32674 26.7456 3.15255L25.0792 2.0467C22.7091 5.61829 21.6055 10.0504 22.2974 14.6228L24.2749 14.3236ZM13.4661 1.38095C17.7232 0.4368 21.9582 1.29345 25.3799 3.44606L26.4449 1.7532C22.5957 -0.668389 17.8248 -1.63432 13.033 -0.571608L13.4661 1.38095ZM1.38095 20.3543C-0.521171 11.7777 4.88952 3.28307 13.4661 1.38095L13.033 -0.571608C3.37812 1.56967 -2.71289 11.1324 -0.571608 20.7873L1.38095 20.3543ZM20.3543 32.4394C11.7777 34.3415 3.28307 28.9308 1.38095 20.3543L-0.571608 20.7873C1.56967 30.4422 11.1324 36.5332 20.7873 34.3919L20.3543 32.4394ZM30.1665 25.7016C27.9702 29.0142 24.54 31.5111 20.3543 32.4394L20.7873 34.3919C25.4985 33.3471 29.3625 30.5335 31.8334 26.8068L30.1665 25.7016Z" fill="#333333" mask="url(#path-3-inside-1)"/>
<rect x="7.67365" y="19.5036" width="4.3031" height="14.8532" rx="1.25" transform="rotate(-68.6287 7.67365 19.5036)" fill="#EA1AB0" stroke="#E5E5E5" stroke-width="0.5"/>
<rect x="6.67365" y="25.5036" width="4.3031" height="13.6925" rx="1.25" transform="rotate(-68.6287 6.67365 25.5036)" fill="#EA1AB0" stroke="#E5E5E5" stroke-width="0.5"/>
<path fill-rule="evenodd" clip-rule="evenodd" d="M14.091 5.36974C14.6809 5.37251 15.2572 5.42415 15.8144 5.52012C12.1886 6.39195 9.53457 9.1472 9.51918 12.4238C9.51103 14.1566 10.2422 15.7505 11.4681 17.0018L10.4122 19.7001L11.3343 20.061C7.75705 19.0775 5.17537 16.2181 5.19116 12.8561C5.21069 8.69851 9.1953 5.34674 14.091 5.36974Z" fill="#EA1AB0"/>
<path fill-rule="evenodd" clip-rule="evenodd" d="M13.0497 4.93148C13.6699 4.90762 14.278 4.93575 14.8682 5.01132C11.095 6.09274 8.42919 9.11056 8.56172 12.5568C8.63131 14.3661 9.46088 15.9985 10.7897 17.255L9.77803 20.2099C6.50358 19.0887 4.15377 16.414 4.03048 13.208C3.8623 8.83506 7.90032 5.12951 13.0497 4.93148Z" fill="#EA1AB0"/>
<path d="M14.8682 5.01132L15.0059 5.49197L14.9317 4.51537L14.8682 5.01132ZM13.0497 4.93148L13.0689 5.43111L13.0497 4.93148ZM8.56172 12.5568L8.06209 12.576L8.06209 12.576L8.56172 12.5568ZM10.7897 17.255L11.2627 17.417L11.3669 17.1127L11.1332 16.8918L10.7897 17.255ZM9.77803 20.2099L9.61606 20.6829L10.0891 20.8449L10.2511 20.3719L9.77803 20.2099ZM4.03048 13.208L3.53085 13.2273L4.03048 13.208ZM14.9317 4.51537C14.3141 4.43629 13.6783 4.40693 13.0304 4.43185L13.0689 5.43111C13.6615 5.40832 14.2419 5.43521 14.8046 5.50727L14.9317 4.51537ZM9.06135 12.5376C8.94006 9.38372 11.3879 6.52893 15.0059 5.49197L14.7304 4.53068C10.8021 5.65656 7.91831 8.83739 8.06209 12.576L9.06135 12.5376ZM11.1332 16.8918C9.8865 15.7128 9.12526 14.1994 9.06135 12.5376L8.06209 12.576C8.13735 14.5328 9.03526 16.2841 10.4462 17.6183L11.1332 16.8918ZM10.2511 20.3719L11.2627 17.417L10.3167 17.0931L9.30499 20.0479L10.2511 20.3719ZM3.53085 13.2273C3.66378 16.6839 6.19156 19.5103 9.61606 20.6829L9.94001 19.7369C6.8156 18.667 4.64376 16.1441 4.53011 13.1888L3.53085 13.2273ZM13.0304 4.43185C7.68484 4.63743 3.34923 8.50489 3.53085 13.2273L4.53011 13.1888C4.37537 9.16522 8.11581 5.62159 13.0689 5.43111L13.0304 4.43185Z" fill="#E5E5E5"/>
<path fill-rule="evenodd" clip-rule="evenodd" d="M11.2221 4.78079C11.822 4.62062 12.4215 4.51386 13.014 4.45738C9.5722 6.34462 7.6378 9.87637 8.52749 13.2085C8.99459 14.958 10.1639 16.3671 11.7373 17.2995L11.4026 20.4046C7.96124 20.0336 5.079 17.9433 4.25133 14.8434C3.12243 10.6153 6.24333 6.11011 11.2221 4.78079Z" fill="#EA1AB0"/>
<path d="M15.7432 16.1182C23.19 11.98 18.4307 3.28984 10.6649 6.48365" stroke="#E5E5E5" stroke-width="3"/>
</svg>
