<svg width="656" height="310" viewBox="0 0 656 310" fill="none" xmlns="http://www.w3.org/2000/svg">
<path fill-rule="evenodd" clip-rule="evenodd" d="M319 189.168C270.921 185.679 233 145.616 233 96.707C233 45.5064 274.558 4 325.822 4C369.959 4 406.901 34.7677 416.319 76H354.696C348.22 67.4926 337.98 62 326.454 62C306.873 62 291 77.854 291 97.411C291 114.414 302.998 128.618 319 132.038V189.168Z" fill="#00B0BB"/>
<path d="M319 189.168L318.747 192.658L322.5 192.931V189.168H319ZM416.319 76V79.5H420.709L419.732 75.2206L416.319 76ZM354.696 76L351.911 78.1198L352.961 79.5H354.696V76ZM319 132.038H322.5V129.207L319.731 128.615L319 132.038ZM229.5 96.707C229.5 147.468 268.855 189.039 318.747 192.658L319.253 185.677C272.987 182.32 236.5 143.764 236.5 96.707H229.5ZM325.822 0.5C272.629 0.5 229.5 43.5693 229.5 96.707H236.5C236.5 47.4434 276.487 7.5 325.822 7.5V0.5ZM419.732 75.2206C409.957 32.4288 371.624 0.5 325.822 0.5V7.5C368.293 7.5 403.845 37.1066 412.907 76.7794L419.732 75.2206ZM354.696 79.5H416.319V72.5H354.696V79.5ZM357.481 73.8802C350.371 64.5398 339.118 58.5 326.454 58.5V65.5C336.841 65.5 346.069 70.4455 351.911 78.1198L357.481 73.8802ZM326.454 58.5C304.944 58.5 287.5 75.917 287.5 97.411H294.5C294.5 79.7911 308.802 65.5 326.454 65.5V58.5ZM287.5 97.411C287.5 116.102 300.689 131.704 318.269 135.461L319.731 128.615C305.308 125.533 294.5 112.726 294.5 97.411H287.5ZM322.5 189.168V132.038H315.5V189.168H322.5Z" fill="#38113C"/>
<path fill-rule="evenodd" clip-rule="evenodd" d="M324.038 4.01677C324.631 4.00561 325.226 4 325.822 4C377.086 4 418.644 45.5064 418.644 96.707C418.644 97.6069 418.631 98.5037 418.605 99.3973C418.012 99.4085 417.418 99.4141 416.822 99.4141C365.558 99.4141 324 57.9077 324 6.70705C324 5.80724 324.013 4.91042 324.038 4.01677Z" fill="#FCC8C0"/>
<path d="M324.038 4.01677L323.972 0.51739L320.635 0.580205L320.54 3.91695L324.038 4.01677ZM418.605 99.3973L418.671 102.897L422.009 102.834L422.104 99.4971L418.605 99.3973ZM324.104 7.51615C324.675 7.5054 325.248 7.5 325.822 7.5V0.5C325.204 0.5 324.588 0.505813 323.972 0.51739L324.104 7.51615ZM325.822 7.5C375.157 7.5 415.144 47.4434 415.144 96.707H422.144C422.144 43.5693 379.015 0.5 325.822 0.5V7.5ZM415.144 96.707C415.144 97.5736 415.131 98.4371 415.107 99.2975L422.104 99.4971C422.13 98.5702 422.144 97.6401 422.144 96.707H415.144ZM418.539 95.8979C417.968 95.9087 417.396 95.9141 416.822 95.9141V102.914C417.44 102.914 418.056 102.908 418.671 102.897L418.539 95.8979ZM416.822 95.9141C367.487 95.9141 327.5 55.9707 327.5 6.70705H320.5C320.5 59.8448 363.629 102.914 416.822 102.914V95.9141ZM327.5 6.70705C327.5 5.84052 327.512 4.97698 327.537 4.11659L320.54 3.91695C320.513 4.84386 320.5 5.77395 320.5 6.70705H327.5Z" fill="#38113C"/>
<path fill-rule="evenodd" clip-rule="evenodd" d="M332.644 119C380.722 122.488 418.644 162.551 418.644 211.46C418.644 262.661 377.086 304.167 325.822 304.167C281.685 304.167 244.743 273.4 235.324 232.167L296.948 232.167C303.423 240.675 313.664 246.167 325.189 246.167C344.77 246.167 360.644 230.313 360.644 210.756C360.644 193.753 348.645 179.549 332.644 176.129V119Z" fill="#00B0BB"/>
<path d="M332.644 119L332.897 115.509L329.144 115.237V119H332.644ZM235.324 232.167V228.667H230.934L231.912 232.947L235.324 232.167ZM296.948 232.167L299.733 230.048L298.682 228.667H296.948V232.167ZM332.644 176.129H329.144V178.961L331.912 179.552L332.644 176.129ZM422.144 211.46C422.144 160.699 382.789 119.129 332.897 115.509L332.39 122.491C378.656 125.847 415.144 164.403 415.144 211.46H422.144ZM325.822 307.667C379.015 307.667 422.144 264.598 422.144 211.46H415.144C415.144 260.724 375.157 300.667 325.822 300.667V307.667ZM231.912 232.947C241.687 275.739 280.019 307.667 325.822 307.667V300.667C283.35 300.667 247.799 271.061 238.736 231.388L231.912 232.947ZM296.948 228.667L235.324 228.667V235.667L296.948 235.667V228.667ZM294.163 234.287C301.272 243.628 312.526 249.667 325.189 249.667V242.667C314.802 242.667 305.574 237.722 299.733 230.048L294.163 234.287ZM325.189 249.667C346.699 249.667 364.144 232.25 364.144 210.756H357.144C357.144 228.376 342.841 242.667 325.189 242.667V249.667ZM364.144 210.756C364.144 192.065 350.955 176.464 333.375 172.707L331.912 179.552C346.335 182.635 357.144 195.441 357.144 210.756H364.144ZM329.144 119V176.129H336.144V119H329.144Z" fill="#38113C"/>
<path fill-rule="evenodd" clip-rule="evenodd" d="M327.605 304.151C327.012 304.162 326.418 304.167 325.822 304.167C274.558 304.167 233 262.661 233 211.46C233 210.561 233.013 209.664 233.038 208.77C233.631 208.759 234.226 208.753 234.822 208.753C286.086 208.753 327.644 250.26 327.644 301.46C327.644 302.36 327.631 303.257 327.605 304.151Z" fill="#FCC8C0"/>
<path d="M327.605 304.151L327.671 307.65L331.009 307.587L331.104 304.251L327.605 304.151ZM233.038 208.77L232.972 205.271L229.635 205.334L229.54 208.67L233.038 208.77ZM327.539 300.651C326.968 300.662 326.396 300.667 325.822 300.667V307.667C326.44 307.667 327.056 307.662 327.671 307.65L327.539 300.651ZM325.822 300.667C276.487 300.667 236.5 260.724 236.5 211.46H229.5C229.5 264.598 272.629 307.667 325.822 307.667V300.667ZM236.5 211.46C236.5 210.594 236.512 209.73 236.537 208.87L229.54 208.67C229.513 209.597 229.5 210.527 229.5 211.46H236.5ZM233.104 212.27C233.675 212.259 234.248 212.253 234.822 212.253V205.253C234.204 205.253 233.588 205.259 232.972 205.271L233.104 212.27ZM234.822 212.253C284.157 212.253 324.144 252.197 324.144 301.46H331.144C331.144 248.323 288.015 205.253 234.822 205.253V212.253ZM324.144 301.46C324.144 302.327 324.131 303.19 324.107 304.051L331.104 304.251C331.13 303.324 331.144 302.394 331.144 301.46H324.144Z" fill="#38113C"/>
<path fill-rule="evenodd" clip-rule="evenodd" d="M96.8218 301.414C103.397 301.414 109.812 300.731 116 299.433V239.597C110.605 242.911 104.253 244.822 97.4543 244.822C77.8734 244.822 62 228.968 62 209.411C62 189.854 77.8734 174 97.4543 174C117.035 174 132.909 189.854 132.909 209.411C132.909 210.282 132.877 211.145 132.815 212H133V243H133.001C133 243.099 133 243.197 133 243.296C133 273.811 156.884 298.754 187 300.495V186.097C186.955 186.1 186.91 186.102 186.865 186.105C176.763 145.829 140.28 116 96.8218 116C45.5577 116 4 157.506 4 208.707C4 259.908 45.5577 301.414 96.8218 301.414Z" fill="#00B0BB"/>
<path d="M116 299.433L116.719 302.858L119.5 302.275V299.433H116ZM116 239.597H119.5V233.34L114.168 236.615L116 239.597ZM132.815 212L129.324 211.747L129.053 215.5H132.815V212ZM133 212H136.5V208.5H133V212ZM133 243H129.5V246.5H133V243ZM133.001 243L136.501 243.018L136.519 239.5H133.001V243ZM187 300.495L186.798 303.989L190.5 304.203V300.495H187ZM187 186.097H190.5V182.389L186.798 182.603L187 186.097ZM186.865 186.105L183.471 186.957L184.177 189.773L187.076 189.599L186.865 186.105ZM115.281 296.008C109.328 297.257 103.154 297.914 96.8218 297.914V304.914C103.64 304.914 110.295 304.206 116.719 302.858L115.281 296.008ZM112.5 239.597V299.433H119.5V239.597H112.5ZM97.4543 248.322C104.918 248.322 111.901 246.222 117.832 242.579L114.168 236.615C109.308 239.6 103.588 241.322 97.4543 241.322V248.322ZM58.5 209.411C58.5 230.905 75.9444 248.322 97.4543 248.322V241.322C79.8024 241.322 65.5 227.031 65.5 209.411H58.5ZM97.4543 170.5C75.9444 170.5 58.5 187.917 58.5 209.411H65.5C65.5 191.791 79.8024 177.5 97.4543 177.5V170.5ZM136.409 209.411C136.409 187.917 118.964 170.5 97.4543 170.5V177.5C115.106 177.5 129.409 191.791 129.409 209.411H136.409ZM136.306 212.253C136.374 211.314 136.409 210.366 136.409 209.411H129.409C129.409 210.197 129.38 210.976 129.324 211.747L136.306 212.253ZM133 208.5H132.815V215.5H133V208.5ZM136.5 243V212H129.5V243H136.5ZM133.001 239.5H133V246.5H133.001V239.5ZM136.5 243.296C136.5 243.203 136.5 243.11 136.501 243.018L129.501 242.982C129.5 243.087 129.5 243.192 129.5 243.296H136.5ZM187.202 297.001C158.923 295.366 136.5 271.942 136.5 243.296H129.5C129.5 275.68 154.845 302.142 186.798 303.989L187.202 297.001ZM190.5 300.495V186.097H183.5V300.495H190.5ZM187.076 189.599C187.117 189.596 187.159 189.594 187.202 189.591L186.798 182.603C186.751 182.606 186.703 182.608 186.655 182.611L187.076 189.599ZM96.8218 119.5C138.64 119.5 173.75 148.202 183.471 186.957L190.26 185.253C179.776 143.455 141.92 112.5 96.8218 112.5V119.5ZM7.5 208.707C7.5 159.443 47.4866 119.5 96.8218 119.5V112.5C43.6288 112.5 0.5 155.569 0.5 208.707H7.5ZM96.8218 297.914C47.4866 297.914 7.5 257.971 7.5 208.707H0.5C0.5 261.845 43.6288 304.914 96.8218 304.914V297.914Z" fill="#38113C"/>
<path fill-rule="evenodd" clip-rule="evenodd" d="M187 300.398V186C156.884 187.741 133 212.684 133 243.199C133 273.714 156.884 298.657 187 300.398Z" fill="#FCC8C0"/>
<path d="M187 300.398L186.798 303.892L190.5 304.106V300.398H187ZM187 186H190.5V182.292L186.798 182.506L187 186ZM190.5 300.398V186H183.5V300.398H190.5ZM136.5 243.199C136.5 214.553 158.923 191.129 187.202 189.494L186.798 182.506C154.845 184.353 129.5 210.815 129.5 243.199H136.5ZM187.202 296.904C158.923 295.269 136.5 271.845 136.5 243.199H129.5C129.5 275.583 154.845 302.045 186.798 303.892L187.202 296.904Z" fill="#38113C"/>
<path fill-rule="evenodd" clip-rule="evenodd" d="M481 288.758C470.901 273.919 465 256.001 465 236.707C465 185.506 506.558 144 557.822 144C609.086 144 650.644 185.506 650.644 236.707C650.644 249.821 647.917 262.299 643 273.606V237H593.906C593.686 217.632 577.898 202 558.454 202C539.011 202 523.223 217.632 523.002 237H481V288.758Z" fill="#00B0BB"/>
<path d="M481 288.758L478.107 290.727L484.5 300.122V288.758H481ZM643 273.606H639.5L646.21 275.002L643 273.606ZM643 237H646.5V233.5H643V237ZM593.906 237L590.406 237.04L590.446 240.5H593.906V237ZM523.002 237V240.5H526.463L526.502 237.04L523.002 237ZM481 237V233.5H477.5V237H481ZM461.5 236.707C461.5 256.726 467.626 275.326 478.107 290.727L483.893 286.789C474.177 272.512 468.5 255.277 468.5 236.707H461.5ZM557.822 140.5C504.629 140.5 461.5 183.569 461.5 236.707H468.5C468.5 187.443 508.487 147.5 557.822 147.5V140.5ZM654.144 236.707C654.144 183.569 611.015 140.5 557.822 140.5V147.5C607.157 147.5 647.144 187.443 647.144 236.707H654.144ZM646.21 275.002C651.315 263.263 654.144 250.31 654.144 236.707H647.144C647.144 249.332 644.52 261.335 639.79 272.211L646.21 275.002ZM639.5 237V273.606H646.5V237H639.5ZM593.906 240.5H643V233.5H593.906V240.5ZM597.406 236.96C597.164 215.673 579.813 198.5 558.454 198.5V205.5C575.982 205.5 590.208 219.591 590.406 237.04L597.406 236.96ZM558.454 198.5C537.095 198.5 519.745 215.673 519.503 236.96L526.502 237.04C526.701 219.591 540.926 205.5 558.454 205.5V198.5ZM481 240.5H523.002V233.5H481V240.5ZM484.5 288.758V237H477.5V288.758H484.5Z" fill="#38113C"/>
<path fill-rule="evenodd" clip-rule="evenodd" d="M493.822 303.854C511.577 286.967 522.644 263.128 522.644 236.707C522.644 210.286 511.577 186.447 493.822 169.56C476.066 186.447 465 210.286 465 236.707C465 263.128 476.066 286.967 493.822 303.854Z" fill="#FCC8C0"/>
<path d="M493.822 303.854L491.41 306.39L493.822 308.684L496.234 306.39L493.822 303.854ZM493.822 169.56L496.234 167.024L493.822 164.73L491.41 167.024L493.822 169.56ZM496.234 306.39C514.655 288.871 526.144 264.127 526.144 236.707H519.144C519.144 262.129 508.5 285.064 491.41 301.318L496.234 306.39ZM526.144 236.707C526.144 209.288 514.655 184.543 496.234 167.024L491.41 172.096C508.5 188.35 519.144 211.285 519.144 236.707H526.144ZM491.41 167.024C472.989 184.543 461.5 209.288 461.5 236.707H468.5C468.5 211.285 479.143 188.35 496.234 172.096L491.41 167.024ZM461.5 236.707C461.5 264.127 472.989 288.871 491.41 306.39L496.234 301.318C479.143 285.064 468.5 262.129 468.5 236.707H461.5Z" fill="#38113C"/>
<path fill-rule="evenodd" clip-rule="evenodd" d="M622.822 304.294C640.577 287.408 651.644 263.568 651.644 237.147C651.644 210.726 640.577 186.887 622.822 170C605.066 186.887 594 210.726 594 237.147C594 263.568 605.066 287.408 622.822 304.294Z" fill="#FCC8C0"/>
<path d="M622.822 304.294L620.41 306.831L622.822 309.125L625.234 306.831L622.822 304.294ZM622.822 170L625.234 167.464L622.822 165.17L620.41 167.464L622.822 170ZM625.234 306.831C643.655 289.311 655.144 264.567 655.144 237.147H648.144C648.144 262.57 637.5 285.504 620.41 301.758L625.234 306.831ZM655.144 237.147C655.144 209.728 643.655 184.983 625.234 167.464L620.41 172.536C637.5 188.79 648.144 211.725 648.144 237.147H655.144ZM620.41 167.464C601.989 184.983 590.5 209.728 590.5 237.147H597.5C597.5 211.725 608.143 188.79 625.234 172.536L620.41 167.464ZM590.5 237.147C590.5 264.567 601.989 289.311 620.41 306.831L625.234 301.758C608.143 285.504 597.5 262.57 597.5 237.147H590.5Z" fill="#38113C"/>
</svg>
