<svg height="512" viewBox="0 0 128 128" width="512" xmlns="http://www.w3.org/2000/svg"><path d="m104.73 34.754a19.76 19.76 0 0 0 -25.549-18.864 38.645 38.645 0 0 0 -56.981 33.992v4.3l-6.917 21.149a5.105 5.105 0 0 0 4.852 6.691h2.806a1.054 1.054 0 0 1 1.053 1.053v11.8a7.166 7.166 0 0 0 7.158 7.158h13.6a5.164 5.164 0 0 1 5.157 5.157v9.494a3.056 3.056 0 0 0 3.053 3.052h37.604a3.053 3.053 0 0 0 3.012-3.55l-1.594-9.663a62.693 62.693 0 0 1 .929-25.084l4.966-20.507h4.927a13.16 13.16 0 0 0 1.924-26.18z" fill="#e6e7e8"/><path d="m87 102.688a64.01 64.01 0 0 1 .945-25.482l5.15-21.272h-31.247a15.337 15.337 0 1 1 0-30.673c.407 0 .807.03 1.206.061a18.782 18.782 0 0 1 12.027-12.343 37.36 37.36 0 0 0 -18.263-4.717 37.62 37.62 0 0 0 -37.618 37.62v4.457l-6.965 21.3a4.1 4.1 0 0 0 3.9 5.38h2.806a2.053 2.053 0 0 1 2.053 2.053v11.8a6.158 6.158 0 0 0 6.157 6.158h13.6a6.158 6.158 0 0 1 6.157 6.158v9.493a2.053 2.053 0 0 0 2.053 2.052h37.605a2.052 2.052 0 0 0 2.025-2.386z" fill="#6dc9f7"/><path d="m56.887 12.262a38.871 38.871 0 0 1 14.136 2.638 18.627 18.627 0 0 1 4.066-1.919 37.345 37.345 0 0 0 -18.271-4.719 37.625 37.625 0 0 0 -37.424 33.757 38.183 38.183 0 0 1 37.492-29.757z" fill="#fff"/><path d="m99.686 31.645c.013-.293.044-.582.044-.879a18.742 18.742 0 0 0 -36.676-5.444c-.4-.032-.8-.061-1.206-.061a15.337 15.337 0 1 0 0 30.673h36.958a12.16 12.16 0 0 0 .88-24.289z" fill="#d4fbff"/><path d="m77.656 28.946h8.664l-8.816 14.337h13.009l-17.485 17.757 6.528-13.523h-11.668z" fill="#fa759e"/><g fill="#3a2c60"><path d="m74.909 113.738h-10.834a1 1 0 1 0 0 2h10.834a1 1 0 0 0 0-2z"/><path d="m100.73 30.754a19.762 19.762 0 0 0 -25.584-18.854 38.6 38.6 0 0 0 -56.946 33.982v4.3l-6.917 21.149a5.1 5.1 0 0 0 4.852 6.691h2.806a1.055 1.055 0 0 1 1.053 1.053v11.8a7.166 7.166 0 0 0 7.157 7.158h13.6a5.164 5.164 0 0 1 5.157 5.157v9.494a3.056 3.056 0 0 0 3.053 3.052h10.781a1 1 0 0 0 0-2h-10.782a1.054 1.054 0 0 1 -1.053-1.052v-9.494a7.166 7.166 0 0 0 -7.157-7.157h-13.6a5.163 5.163 0 0 1 -5.157-5.158v-11.8a3.056 3.056 0 0 0 -3.053-3.053h-2.805a3.105 3.105 0 0 1 -2.951-4.07l6.964-21.3a.991.991 0 0 0 .05-.31v-4.46a36.609 36.609 0 0 1 52.444-33.018 19.6 19.6 0 0 0 -10.3 11.408c-.164-.006-.329-.011-.5-.011a16.337 16.337 0 1 0 0 32.673h12.058l-1.772 3.671a1 1 0 0 0 1.613 1.136l4.734-4.807h13.347l-4.852 20.037a64.656 64.656 0 0 0 -.96 25.881l1.594 9.663a1.05 1.05 0 0 1 -1.038 1.223h-7.824a1 1 0 0 0 0 2h7.824a3.052 3.052 0 0 0 3.012-3.55l-1.594-9.663a62.693 62.693 0 0 1 .929-25.084l4.966-20.507h4.927a13.16 13.16 0 0 0 1.924-26.18zm-20.33 16.231a1 1 0 0 0 -.847-.468h-10.01l8.717-16.571h6.271l-7.879 12.814a1 1 0 0 0 .852 1.523h10.621l-11.569 11.749 3.9-8.081a1 1 0 0 0 -.056-.966zm18.4 7.949h-18.356l10.781-10.95a1 1 0 0 0 -.712-1.7h-11.22l7.878-12.814a1 1 0 0 0 -.852-1.524h-8.663a1 1 0 0 0 -.885.534l-9.771 18.571a1 1 0 0 0 .886 1.466h10.076l-3.1 6.417h-13.014a14.337 14.337 0 1 1 0-28.673 16.733 16.733 0 0 1 1.968.14 7.9 7.9 0 0 1 4.061 1.947 1 1 0 0 0 1.382-1.448 9.659 9.659 0 0 0 -4.854-2.425 17.732 17.732 0 0 1 34.314 6.067 8.057 8.057 0 0 0 -5.219 1.463 1 1 0 0 0 1.227 1.58 6.362 6.362 0 0 1 3.98-1.041 17.109 17.109 0 0 1 1.978.228 11.16 11.16 0 0 1 -1.882 22.162z"/></g></svg>