<svg height="512" viewBox="0 0 128 128" width="512" xmlns="http://www.w3.org/2000/svg"><path d="m97.22 79.472v-39.586a1 1 0 0 0 -.336-.747l-26.807-26.807a1 1 0 0 0 -.707-.293h-49.908a3 3 0 0 0 -3 3v100.922a3 3 0 0 0 3 3h75.243a19.824 19.824 0 0 0 2.515-39.489z" fill="#e6e7e8"/><path d="m92.218 35.888-26.849-26.849h-49.907a2 2 0 0 0 -2 2v100.922a2 2 0 0 0 2 2h74.758a2 2 0 0 0 2-2v-76.075z" fill="#fa759e"/><path d="m21.364 22.364v2.542a1.955 1.955 0 0 0 1.956 1.956 1.956 1.956 0 0 0 1.956-1.956v-1.616h5.239v17.533a2.363 2.363 0 0 0 2.363 2.363 2.363 2.363 0 0 0 2.363-2.363v-17.533h5.238v1.616a1.956 1.956 0 0 0 1.956 1.956 1.956 1.956 0 0 0 1.957-1.956v-2.542a2.986 2.986 0 0 0 -2.987-2.986h-17.055a2.986 2.986 0 0 0 -2.986 2.986z" fill="#fff"/><path d="m81.846 43.994h-34.982a1 1 0 0 1 0-2h34.982a1 1 0 0 1 0 2z" fill="#fff"/><path d="m81.846 55.508h-58.01a1 1 0 1 1 0-2h58.01a1 1 0 0 1 0 2z" fill="#fff"/><path d="m81.846 67.022h-58.01a1 1 0 0 1 0-2h58.01a1 1 0 0 1 0 2z" fill="#fff"/><path d="m65.371 9.039v24.849a2 2 0 0 0 2 2h24.849z" fill="#ffd7e5"/><path d="m76.494 82.8h-1.808a2.007 2.007 0 0 1 -1.661-.9 7.013 7.013 0 0 0 -11.64 0 2.007 2.007 0 0 1 -1.661.9h-1.808a18.737 18.737 0 0 1 2.926 20.112h2.058a2.063 2.063 0 0 0 1.506-.712 3.787 3.787 0 0 1 5.594 0 2.063 2.063 0 0 0 1.506.712h2.06a18.737 18.737 0 0 1 2.928-20.112z" fill="#0089ef"/><circle cx="67.205" cy="85.823" fill="#d4fbff" r="2.5"/><circle cx="43.705" cy="95.128" fill="#6dc9f7" r="18.833" transform="matrix(.997 -.071 .071 .997 -6.634 3.338)"/><circle cx="43.705" cy="95.128" fill="#d4fbff" r="13.5"/><path d="m37.092 83.365a13.563 13.563 0 0 0 -5.316 5.448l11.424 19.787c.168.006.333.025.5.025a13.414 13.414 0 0 0 6.877-1.9z" fill="#fff"/><path d="m44.3 81.658c-.2-.009-.4-.03-.6-.03a13.477 13.477 0 0 0 -3.764.542l13.1 22.693a13.531 13.531 0 0 0 2.632-3.506z" fill="#fff"/><circle cx="90.705" cy="95.128" fill="#6dc9f7" r="18.833" transform="matrix(.997 -.071 .071 .997 -6.515 6.669)"/><circle cx="90.705" cy="95.128" fill="#d4fbff" r="13.5"/><path d="m91.2 108.6a13.473 13.473 0 0 0 4.18-.824l-13.3-23.036a13.557 13.557 0 0 0 -2.8 3.214z" fill="#fff"/><path d="m91.3 81.658c-.2-.009-.395-.03-.6-.03a13.436 13.436 0 0 0 -5.416 1.139l13.416 23.223a13.538 13.538 0 0 0 3.978-4.633z" fill="#fff"/><g fill="#3a2c60"><path d="m13.462 93.729a1 1 0 0 0 1-1v-8.679a1 1 0 0 0 -2 0v8.679a1 1 0 0 0 1 1z"/><path d="m67.205 89.323a3.5 3.5 0 1 0 -3.5-3.5 3.5 3.5 0 0 0 3.5 3.5zm0-5a1.5 1.5 0 1 1 -1.5 1.5 1.5 1.5 0 0 1 1.5-1.5z"/><path d="m58.205 95.128a14.5 14.5 0 1 0 -14.5 14.5 14.517 14.517 0 0 0 14.5-14.5zm-27 0a12.5 12.5 0 1 1 12.5 12.5 12.514 12.514 0 0 1 -12.5-12.5z"/><path d="m93.22 75.472v-39.586a1 1 0 0 0 -.336-.746l-26.808-26.808a1 1 0 0 0 -.707-.293h-49.907a3 3 0 0 0 -3 3v69.246a1 1 0 0 0 2 0v-69.246a1 1 0 0 1 1-1h48.907v23.849a3 3 0 0 0 3 3h23.851v38.433c-.173 0-.341-.027-.515-.027a19.762 19.762 0 0 0 -14.639 6.5h-1.38a1.009 1.009 0 0 1 -.832-.458 8.012 8.012 0 0 0 -13.3 0 1.009 1.009 0 0 1 -.832.458h-1.377a19.81 19.81 0 1 0 -23.262 31.167h-19.621a1 1 0 0 1 -1-1v-15.343a1 1 0 0 0 -2 0v15.343a3 3 0 0 0 3 3h75.243a19.824 19.824 0 0 0 2.515-39.489zm-26.851-41.584v-22.435l23.431 23.435h-22.431a1 1 0 0 1 -1-1zm-4.155 48.567a6.01 6.01 0 0 1 9.982 0 3.006 3.006 0 0 0 2.277 1.312 19.625 19.625 0 0 0 -2.382 18.139h-.582a1.109 1.109 0 0 1 -.772-.389 4.786 4.786 0 0 0 -7.065 0 1.106 1.106 0 0 1 -.77.389h-.582a19.625 19.625 0 0 0 -2.382-18.139 3 3 0 0 0 2.276-1.312zm-36.342 12.673a17.834 17.834 0 1 1 17.833 17.833 17.854 17.854 0 0 1 -17.833-17.833zm26.455 17.833a19.924 19.924 0 0 0 9.136-9.054h1.437a3.048 3.048 0 0 0 2.242-1.034 2.851 2.851 0 0 1 4.123 0 3.048 3.048 0 0 0 2.242 1.034h1.439a19.926 19.926 0 0 0 9.135 9.054zm38.378 0a17.834 17.834 0 1 1 17.833-17.833 17.853 17.853 0 0 1 -17.833 17.833z"/><path d="m90.705 80.628a14.5 14.5 0 1 0 14.5 14.5 14.517 14.517 0 0 0 -14.5-14.5zm0 27a12.5 12.5 0 1 1 12.5-12.5 12.514 12.514 0 0 1 -12.5 12.5z"/></g></svg>