<svg id="Layer_1" enable-background="new 0 0 256 256" height="512" viewBox="0 0 256 256" width="512" xmlns="http://www.w3.org/2000/svg"><path d="m134 248.304h-12c-1.657 0-3-1.343-3-3v-19.5h18v19.5c0 1.657-1.343 3-3 3z" fill="#a4c9ff"/><path d="m134 250.304h-12c-2.757 0-5-2.243-5-5v-19.5c0-1.104.896-2 2-2h18c1.104 0 2 .896 2 2v19.5c0 2.757-2.243 5-5 5zm-13-22.5v17.5c0 .552.449 1 1 1h12c.551 0 1-.448 1-1v-17.5z" fill="#3762cc"/><path d="m29.75 75.804h196.5v140.5h-196.5z" fill="#f9cfcf"/><path d="m226.25 75.804h-196.5c-3.728 0-6.75-3.022-6.75-6.75 0-3.728 3.022-6.75 6.75-6.75h196.5c3.728 0 6.75 3.022 6.75 6.75 0 3.728-3.022 6.75-6.75 6.75z" fill="#f9a7a7"/><path d="m226.25 229.804h-196.5c-3.728 0-6.75-3.022-6.75-6.75 0-3.728 3.022-6.75 6.75-6.75h196.5c3.728 0 6.75 3.022 6.75 6.75 0 3.728-3.022 6.75-6.75 6.75z" fill="#f9a7a7"/><path d="m207.555 198.041h-81.812c-4.197 0-7.6-3.403-7.6-7.6v-70.775c0-4.197 3.403-7.6 7.6-7.6h81.812c4.197 0 7.6 3.403 7.6 7.6v70.775c0 4.198-3.402 7.6-7.6 7.6z" fill="#a4c9ff"/><path d="m153.287 189.273h-6.712c-1.014 0-1.837-.822-1.837-1.837v-37.148c0-1.014.822-1.837 1.837-1.837h6.712c1.014 0 1.837.822 1.837 1.837v37.148c0 1.014-.823 1.837-1.837 1.837z" fill="#6bdddd"/><path d="m170.005 189.273h-6.712c-1.014 0-1.837-.822-1.837-1.837v-16.737c0-1.014.822-1.837 1.837-1.837h6.712c1.014 0 1.837.822 1.837 1.837v16.737c0 1.014-.822 1.837-1.837 1.837z" fill="#6bdddd"/><path d="m186.724 189.273h-6.712c-1.014 0-1.837-.822-1.837-1.837v-25.745c0-1.014.822-1.837 1.837-1.837h6.712c1.014 0 1.837.822 1.837 1.837v25.745c0 1.014-.823 1.837-1.837 1.837z" fill="#6bdddd"/><path d="m203.443 189.273h-6.712c-1.014 0-1.837-.822-1.837-1.837v-31.25c0-1.014.822-1.837 1.837-1.837h6.712c1.014 0 1.837.822 1.837 1.837v31.25c-.001 1.014-.823 1.837-1.837 1.837z" fill="#6bdddd"/><path d="m136.568 189.273h-6.712c-1.014 0-1.837-.822-1.837-1.837v-25.745c0-1.014.822-1.837 1.837-1.837h6.712c1.014 0 1.837.822 1.837 1.837v25.745c0 1.014-.822 1.837-1.837 1.837z" fill="#6bdddd"/><g fill="#3762cc"><path d="m153.287 191.272h-6.712c-2.116 0-3.837-1.722-3.837-3.837v-37.147c0-2.115 1.721-3.837 3.837-3.837h6.712c2.116 0 3.837 1.722 3.837 3.837v37.147c0 2.116-1.722 3.837-3.837 3.837zm-6.549-4h6.386v-36.821h-6.386z"/><path d="m170.005 191.272h-6.712c-2.115 0-3.836-1.722-3.836-3.837v-16.736c0-2.115 1.721-3.837 3.836-3.837h6.712c2.116 0 3.837 1.722 3.837 3.837v16.736c0 2.116-1.721 3.837-3.837 3.837zm-6.548-4h6.386v-16.41h-6.386z"/><path d="m186.724 191.272h-6.712c-2.116 0-3.837-1.722-3.837-3.837v-25.744c0-2.115 1.721-3.837 3.837-3.837h6.712c2.116 0 3.837 1.722 3.837 3.837v25.744c0 2.116-1.721 3.837-3.837 3.837zm-6.549-4h6.386v-25.418h-6.386z"/><path d="m203.443 191.272h-6.712c-2.116 0-3.837-1.722-3.837-3.837v-31.25c0-2.115 1.721-3.837 3.837-3.837h6.712c2.115 0 3.836 1.722 3.836 3.837v31.25c0 2.116-1.721 3.837-3.836 3.837zm-6.549-4h6.386v-30.924h-6.386z"/><path d="m136.568 191.272h-6.712c-2.116 0-3.837-1.722-3.837-3.837v-25.744c0-2.115 1.721-3.837 3.837-3.837h6.712c2.115 0 3.836 1.722 3.836 3.837v25.744c.001 2.116-1.72 3.837-3.836 3.837zm-6.549-4h6.386v-25.418h-6.386z"/><path d="m202.193 132.86c-.262-.648-.827-1.12-1.511-1.262l-10.603-2.212c-.141-.029-.285-.044-.428-.044-.985 0-1.845.7-2.047 1.665-.235 1.129.492 2.239 1.62 2.474l4.285.894-26.382 11.793-14.65-23.6c-.605-.974-1.606-1.598-2.747-1.713-.124-.012-.248-.018-.372-.018-1.016 0-1.961.41-2.66 1.153l-15.21 16.163c-.361.383-.551.884-.535 1.41s.236 1.015.619 1.375c.367.345.847.536 1.35.536.541 0 1.064-.226 1.435-.62l14.962-15.899 14.587 23.498c.662 1.067 1.858 1.729 3.121 1.729.516 0 1.016-.107 1.486-.317l26.145-11.687-2.069 3.055c-.313.462-.428 1.019-.323 1.568.106.549.418 1.023.881 1.337.348.235.753.36 1.171.36l.076-.001c.665-.024 1.285-.367 1.658-.917l5.935-8.76c.391-.581.468-1.313.206-1.96z"/></g><path d="m46.78 166.151v-20.386c0-.044.006-.087.007-.131h-3.507c-2.755 0-4.988 2.233-4.988 4.988v10.806c0 2.755 2.233 4.987 4.988 4.987h3.513c-.004-.087-.013-.174-.013-.264z" fill="#a4c9ff"/><path d="m46.793 168.417h-3.514c-3.853 0-6.987-3.135-6.987-6.987v-10.807c0-3.853 3.134-6.987 6.987-6.987h3.507c.538 0 1.054.217 1.43.602.376.386.582.905.569 1.444-.001.033-.006.126-.008.16l.002 20.294c.002.033.012.193.012.193.024.545-.176 1.076-.553 1.471-.377.394-.899.617-1.445.617zm1.986-2.266h.01zm-5.5-18.515c-1.647 0-2.987 1.34-2.987 2.987v10.807c0 1.647 1.34 2.987 2.987 2.987h1.5v-16.781z" fill="#3762cc"/><path d="m79.602 139.66v16.299 16.299l18.864 13.464v-29.763-29.764z" fill="#e0ebfc"/><path d="m103.265 188.567h-3.085c-.946 0-1.713-.767-1.713-1.713v-61.655c0-.946.767-1.713 1.713-1.713h3.085c.946 0 1.713.767 1.713 1.713v61.655c0 .946-.767 1.713-1.713 1.713z" fill="#a4c9ff"/><path d="m98.466 187.723c-.409 0-.816-.125-1.162-.372l-18.864-13.465c-.526-.375-.838-.981-.838-1.628v-32.598c0-.646.312-1.253.838-1.628l18.864-13.465c.609-.435 1.411-.493 2.078-.15.666.343 1.084 1.029 1.084 1.778v59.527c0 .749-.418 1.436-1.084 1.778-.289.149-.603.223-.916.223zm-16.863-16.494 14.864 10.609v-51.758l-14.864 10.609z" fill="#3762cc"/><path d="m103.265 190.566h-3.085c-2.047 0-3.713-1.666-3.713-3.713v-61.655c0-2.047 1.666-3.713 3.713-3.713h3.085c2.047 0 3.713 1.666 3.713 3.713v61.655c0 2.047-1.666 3.713-3.713 3.713zm-2.799-4h2.512v-61.081h-2.512z" fill="#3762cc"/><path d="m79.602 172.258v-16.299-16.299h-26.716c-3.372 0-6.106 2.734-6.106 6.106v20.385c0 3.372 2.734 6.106 6.106 6.106z" fill="#4671c6"/><path d="m79.603 174.258h-26.717c-4.47 0-8.106-3.637-8.106-8.106v-20.386c0-4.47 3.637-8.105 8.106-8.105h26.717c1.104 0 2 .896 2 2v32.598c0 1.103-.896 1.999-2 1.999zm-26.717-32.598c-2.264 0-4.106 1.842-4.106 4.105v20.386c0 2.265 1.842 4.106 4.106 4.106h24.717v-28.597z" fill="#3762cc"/><path d="m226.25 77.804h-196.5c-4.825 0-8.75-3.925-8.75-8.75s3.925-8.75 8.75-8.75h196.5c4.825 0 8.75 3.925 8.75 8.75s-3.925 8.75-8.75 8.75zm-196.5-13.5c-2.619 0-4.75 2.131-4.75 4.75s2.131 4.75 4.75 4.75h196.5c2.619 0 4.75-2.131 4.75-4.75s-2.131-4.75-4.75-4.75z" fill="#3762cc"/><path d="m226.25 231.804h-196.5c-4.825 0-8.75-3.925-8.75-8.75s3.925-8.75 8.75-8.75h196.5c4.825 0 8.75 3.925 8.75 8.75s-3.925 8.75-8.75 8.75zm-196.5-13.5c-2.619 0-4.75 2.131-4.75 4.75s2.131 4.75 4.75 4.75h196.5c2.619 0 4.75-2.131 4.75-4.75s-2.131-4.75-4.75-4.75z" fill="#3762cc"/><path d="m226.25 218.304h-196.5c-1.104 0-2-.896-2-2v-140.5c0-1.104.896-2 2-2h196.5c1.104 0 2 .896 2 2v140.5c0 1.104-.896 2-2 2zm-194.5-4h192.5v-136.5h-192.5z" fill="#3762cc"/><path d="m207.555 200.041h-81.812c-5.293 0-9.6-4.307-9.6-9.6v-70.775c0-5.293 4.306-9.6 9.6-9.6h81.812c5.293 0 9.6 4.307 9.6 9.6v70.775c0 5.293-4.306 9.6-9.6 9.6zm-81.812-85.975c-3.087 0-5.6 2.512-5.6 5.6v70.775c0 3.088 2.512 5.6 5.6 5.6h81.812c3.088 0 5.6-2.512 5.6-5.6v-70.775c0-3.088-2.512-5.6-5.6-5.6z" fill="#3762cc"/><path d="m142.912 61.424c3.292-3.596 5.302-8.385 5.302-13.644 0-11.164-9.05-20.214-20.214-20.214s-20.214 9.05-20.214 20.214c0 5.259 2.01 10.048 5.302 13.644h-.052c3.343 3.958 5.363 9.069 5.363 14.655 0 .339-.011.675-.026 1.011h2.047 6.57 2.021 6.064 2.552c-.015-.335-.026-.672-.026-1.011 0-5.587 2.02-10.697 5.363-14.655z" fill="#ffea92"/><path d="m142.963 28.802.083.083c1.161 1.161 3.044 1.161 4.205 0l6.515-6.515c1.161-1.161 1.161-3.044 0-4.205l-.083-.083c-1.161-1.161-3.044-1.161-4.205 0l-6.515 6.515c-1.161 1.161-1.161 3.044 0 4.205z" fill="#ffea92"/><path d="m128.055 22.897h-.11c-1.644 0-2.977-1.333-2.977-2.977v-9.247c0-1.644 1.333-2.977 2.977-2.977h.11c1.644 0 2.977 1.333 2.977 2.977v9.247c0 1.644-1.333 2.977-2.977 2.977z" fill="#ffea92"/><path d="m113.289 28.802-.083.083c-1.161 1.161-3.044 1.161-4.205 0l-6.515-6.515c-1.161-1.161-1.161-3.044 0-4.205l.083-.083c1.161-1.161 3.044-1.161 4.205 0l6.515 6.515c1.161 1.161 1.161 3.044 0 4.205z" fill="#ffea92"/><path d="m149.73 37.591v-.118c0-1.642 1.331-2.973 2.973-2.973h9.214c1.642 0 2.973 1.331 2.973 2.973v.118c0 1.642-1.331 2.973-2.973 2.973h-9.214c-1.642 0-2.973-1.331-2.973-2.973z" fill="#ffea92"/><path d="m91.11 37.591v-.118c0-1.642 1.331-2.973 2.973-2.973h9.214c1.642 0 2.973 1.331 2.973 2.973v.118c0 1.642-1.331 2.973-2.973 2.973h-9.214c-1.642 0-2.973-1.331-2.973-2.973z" fill="#ffea92"/><path d="m128 49.446c-3.628 0-6.57 2.941-6.57 6.57 0 2.762 1.707 5.122 4.122 6.094v14.98h4.895v-14.98c2.415-.971 4.122-3.331 4.122-6.094.001-3.628-2.941-6.57-6.569-6.57zm0 10.274c-2.043 0-3.704-1.662-3.704-3.704s1.662-3.704 3.704-3.704c2.043 0 3.704 1.662 3.704 3.704s-1.661 3.704-3.704 3.704z" fill="#f9a7a7"/><path d="m138.01 83.154h-20.021c-.611 0-1.107-.496-1.107-1.107v-3.85c0-.611.496-1.107 1.107-1.107h20.021c.611 0 1.107.496 1.107 1.107v3.85c.001.611-.495 1.107-1.107 1.107z" fill="#4671c6"/><path d="m136.356 89.218h-16.207c-.967 0-1.751-.784-1.751-1.751v-4.314h19.709v4.314c0 .968-.784 1.751-1.751 1.751z" fill="#4671c6"/><path d="m130.021 97.304h-4.043c-3.349 0-6.064-2.715-6.064-6.064v-2.021h16.171v2.021c.001 3.349-2.714 6.064-6.064 6.064z" fill="#4671c6"/><path d="m137.627 79.09h-19.254c-.545 0-1.067-.223-1.445-.617-.377-.394-.577-.925-.553-1.47.013-.307.023-.614.023-.924 0-4.884-1.737-9.631-4.891-13.365-.073-.086-.138-.178-.194-.273-3.568-4.057-5.527-9.244-5.527-14.66 0-12.249 9.965-22.215 22.214-22.215s22.214 9.966 22.214 22.215c0 5.416-1.959 10.604-5.527 14.66-.056.096-.121.188-.194.273-3.154 3.734-4.891 8.481-4.891 13.365 0 .31.01.617.023.924.024.545-.176 1.076-.553 1.47-.378.394-.9.617-1.445.617zm-17.249-4h15.243c.214-5.331 2.158-10.474 5.535-14.619.075-.142.168-.275.28-.397 3.081-3.364 4.777-7.73 4.777-12.293 0-10.044-8.171-18.215-18.214-18.215s-18.214 8.171-18.214 18.215c0 4.563 1.696 8.929 4.777 12.293.115.125.211.263.289.408 3.373 4.143 5.313 9.282 5.527 14.608z" fill="#3762cc"/><path d="m138.011 85.154h-20.021c-1.713 0-3.107-1.394-3.107-3.107v-3.85c0-1.714 1.394-3.107 3.107-3.107h20.021c1.713 0 3.107 1.394 3.107 3.107v3.85c0 1.714-1.394 3.107-3.107 3.107zm-19.129-4h18.235v-2.064h-18.235z" fill="#3762cc"/><path d="m136.356 91.219h-16.208c-2.068 0-3.75-1.683-3.75-3.751v-4.313c0-1.104.896-2 2-2h19.708c1.104 0 2 .896 2 2v4.313c.001 2.068-1.682 3.751-3.75 3.751zm-15.958-4h15.708v-2.064h-15.708z" fill="#3762cc"/><path d="m130.021 99.304h-4.043c-4.446 0-8.064-3.617-8.064-8.063v-2.021c0-1.104.896-2 2-2h16.171c1.104 0 2 .896 2 2v2.021c0 4.446-3.617 8.063-8.064 8.063zm-8.106-8.085v.021c0 2.24 1.823 4.063 4.064 4.063h4.043c2.241 0 4.064-1.823 4.064-4.063v-.021z" fill="#3762cc"/></svg>